<?xml version="1.0" encoding="utf-8"?>
<!-- Generator: Adobe Illustrator 24.1.2, SVG Export Plug-In . SVG Version: 6.00 Build 0)  -->
<svg version="1.2" baseProfile="tiny" id="Слой_1"
	 xmlns="http://www.w3.org/2000/svg" xmlns:xlink="http://www.w3.org/1999/xlink" x="0px" y="0px" viewBox="0 0 994 226.2"
	 overflow="visible" xml:space="preserve">
<path fill="#E7BFC4" d="M39.9,38.9c-1,0.5-2.3,1-4,1c-2.1,0-4,0.8-5.3,1.9c0.2,0.4,0.4,0.9,0.5,1.4c0.5-0.3,1-0.5,1.6-0.5
	c1.4-0.2,2.7,0.4,3.4,1C37.6,42.2,38.9,40.7,39.9,38.9z"/>
<path fill="#E7BFC4" d="M41.7,35.6c0.9-2.2,1.4-4,1.6-5.7c-0.8,1.3-1.9,2.6-3.8,3.4c-3.2,1.6-7.6,3.8-10,6.5
	c0.2,0.2,0.3,0.5,0.5,0.8c1.5-1.2,3.5-2,5.9-2C39.7,38.6,41.2,36.3,41.7,35.6z"/>
<path fill="#E7BFC4" d="M33,43.7c-0.4,0.1-1,0.3-1.4,0.6c0.2,0.9,0.3,1.7,0.3,2.5c1-0.5,2.1-1.4,3.3-2.5
	C34.7,43.9,33.9,43.6,33,43.7z"/>
<path fill="#E7BFC4" d="M42.9,22.1h-0.8c0,0-0.1,3.6-4.1,5.6c-3.3,1.7-8.8,4.8-10.2,10.5c0.2,0.2,0.5,0.4,0.8,0.6
	c2.5-2.9,7-5.1,10.2-6.7c3.9-1.9,4.5-5.7,4.6-7.3C43.4,23.1,42.9,22.1,42.9,22.1z"/>
<path fill="#E7BFC4" d="M30.7,47.9c0-1.3-0.1-2.9-0.8-4.5c-1.4,0.2-6.9,1.4-8.8,6.9c0.1,0.2,0.2,0.4,0.4,0.5
	C22.8,49.4,25.8,46.6,30.7,47.9z"/>
<path fill="#E7BFC4" d="M20.3,29.7c0.8-3.1-0.5-5.4-1.4-6.5c-1.5-1.3-3.4-2.6-5.7-3.8L12.7,20c0,0,4.4,2.5,3.9,9.9
	c-0.4,5.2-2,11.8,0.1,16.2c-1-4.3,0.8-8.5,2.3-12.1C19.4,32.4,20,30.9,20.3,29.7z"/>
<path fill="#E7BFC4" d="M35.3,51.3c-0.5-0.2-1.1-0.3-1.6-0.5c0.1,1.5,3.9,12.6,10.2,7.3C39.1,56.2,36.1,52.3,35.3,51.3z"/>
<path fill="#E7BFC4" d="M47.5,53.8c0,0-5.6-0.9-10.2-2c1.5,1.7,4.3,4.3,8.1,5.4C47,57.2,49,55.6,47.5,53.8z"/>
<path fill="#E7BFC4" d="M16.4,52c1.5,1.1,5,5.9,10.6,5.2c0.5-0.1,1-0.1,1.4-0.2c-5.5-1.5-8.3-5.7-9.2-7.5c0,0,0,0-0.1,0
	c-1.7-0.8-3.9-1.4-5.3-0.1c-1.4,1.2-2.4,1.6-4.1,2.2v0.6C9.8,52,14.6,50.7,16.4,52z"/>
<path fill="#E7BFC4" d="M18.5,47.2c1.1-7.6,5.7-9.7,6.8-10.1c0.2-1.8,0.2-6.3-3.8-11.2c0.2,1.2,0.3,2.5-0.1,4
	c-0.3,1.4-1,2.8-1.6,4.4c-1.6,3.9-3.3,8.3-1.8,12.5C18.3,47,18.4,47.1,18.5,47.2z"/>
<path fill="#E7BFC4" d="M29.5,42.2c-0.8-1.5-1.9-2.9-3.8-4c-0.6,0.2-5.4,2.2-6.1,9.9c0.3,0.3,0.5,0.6,0.8,0.9
	C22.7,44.1,27.6,42.5,29.5,42.2z"/>
<path fill="#E7BFC4" d="M0.1,54.5L9.8,52v-0.5l-9.8,2L0.1,54.5z"/>
<path fill="#E7BFC4" d="M30.6,49.2c-4.7-1.4-7.4,1.5-8.3,2.7c2,2.3,5.6,4.7,11.2,4.4c0.3,0,0.6,0,0.9,0c-0.8-1.3-1.9-3.8-2.1-6.3
	C31.7,49.6,31.2,49.3,30.6,49.2z"/>
<path fill="none" stroke="#E7BFC4" stroke-miterlimit="10" d="M993.5,226C956,144,882.5,96.2,788,73.5s-162.1,7.8-203.9,50.1
	c-11.9,12-22.1,32.5-12.8,47c6.6,10.2,20.6,11.2,29.9,4.2c24.3-17.9,21.3-55.3,9-78.6c-13.8-26.1-39.1-46.4-68.3-51.9
	c-26.2-4.9-53.2,1.3-78.9,8c-25.8,6.7-52,14.4-78.6,12.6c-26.6-1.8-54.2-15.2-65-39.7c-2.5-5.8-4-12.7-1.3-18.3
	c2.7-5.7,11.2-8.7,15.6-4.2c5.8,5.7-0.1,15.7-7.1,20c-15.3,9.4-34.8,9.4-52.2,5.3c-17.5-4.1-33.9-11.8-51-17.1
	C164.2-7.6,96.2,5.1,47.7,43.6"/>
</svg>
