<svg width="261" height="85" viewBox="0 0 261 85" fill="none" xmlns="http://www.w3.org/2000/svg">
<g clip-path="url(#clip0_728_2510)">
<mask id="mask0_728_2510" style="mask-type:luminance" maskUnits="userSpaceOnUse" x="0" y="0" width="49" height="85">
<path d="M49 0H0V85H49V0Z" fill="white"/>
</mask>
<g mask="url(#mask0_728_2510)">
<path d="M23.2876 14.8086C13.5425 23.8863 10.3399 39.2449 13.5425 50.7983C16.7451 62.3517 28.9608 74.7304 48.9542 77.3436" stroke="#FFCBC4" stroke-miterlimit="10"/>
<path d="M37.5164 0C30.6079 0 22.8759 7.79396 22.9674 15.1295C30.6536 15.4045 37.0589 5.40992 37.5164 0Z" fill="#FFCBC4"/>
<path d="M14.8693 27.7369C9.28761 24.711 9.83663 15.1749 13.1765 10.04C17.3856 13.0659 17.0196 22.8313 16.1046 24.8486" fill="#FFCBC4"/>
<path d="M15.7844 25.5365C17.7517 22.2813 23.7452 19.3471 31.4315 20.7225C28.2288 26.9119 19.719 28.6082 14.9609 27.5079" fill="#FFCBC4"/>
<path d="M12.4902 38.1447C11.9869 32.0929 6.49675 26.4079 3.52289 24.3906C1.96734 31.8637 7.09152 38.9699 12.4445 39.245" fill="#FFCBC4"/>
<path d="M12.5817 37.6406C14.6863 32.7809 22.5098 31.8181 26.2157 29.8467C25.0261 35.7609 17.5686 40.2081 12.4902 38.9243" fill="#FFCBC4"/>
<path d="M13.817 51.5774C13.6798 44.6545 18.3465 43.921 21.7321 39.6572C22.0523 45.9382 19.3072 53.0445 14.5033 53.5488" fill="#FFCBC4"/>
<path d="M13.5882 50.7985C11.3007 45.0218 3.93464 45.3886 0 43.1421C1.5098 49.5148 8.96732 55.3832 14.366 53.2284" fill="#FFCBC4"/>
<path d="M20.817 63.4984C18.8954 56.713 23.3333 51.945 24.3856 47.7271C27.085 53.9622 25.8497 63.0857 21.915 64.6445" fill="#FFCBC4"/>
<path d="M20.6798 63.3605C15.9673 59.7844 8.73857 59.922 3.52289 60.9306C5.58171 64.094 14.6863 69.2289 21.7778 64.5066" fill="#FFCBC4"/>
<path d="M31.1111 71.5666C24.7059 69.366 18.3464 71.0623 14.8693 75.2802C20.7712 78.4895 29.0065 76.7932 32.1176 72.1168" fill="#FFCBC4"/>
<path d="M43.0065 76.197C43.1438 80.6442 38.1569 85.779 29.0065 84.8621C32.1176 81.9737 33.3072 76.6096 41.9542 75.9678" fill="#FFCBC4"/>
<path d="M30.8824 71.4299C28.0916 63.0858 33.3988 57.0798 34.5883 52.0825C37.7452 59.2805 37.6079 69.8252 31.9805 72.0717" fill="#FFCBC4"/>
<path d="M42.6404 76.106C38.6143 70.7877 40.4444 65.928 39.9411 60.0596C44.6535 61.6642 46.5293 71.8422 43.8757 76.381" fill="#FFCBC4"/>
</g>
<mask id="mask1_728_2510" style="mask-type:luminance" maskUnits="userSpaceOnUse" x="212" y="0" width="49" height="85">
<path d="M212 0H261V85H212V0Z" fill="white"/>
</mask>
<g mask="url(#mask1_728_2510)">
<path d="M237.712 14.8086C247.457 23.8863 250.66 39.2449 247.457 50.7983C244.255 62.3517 232.039 74.7304 212.046 77.3436" stroke="#FFCBC4" stroke-miterlimit="10"/>
<path d="M223.484 0C230.392 0 238.124 7.79396 238.033 15.1295C230.346 15.4045 223.941 5.40992 223.484 0Z" fill="#FFCBC4"/>
<path d="M246.131 27.7369C251.712 24.711 251.163 15.1749 247.824 10.04C243.614 13.0659 243.98 22.8313 244.895 24.8486" fill="#FFCBC4"/>
<path d="M245.216 25.5365C243.248 22.2813 237.255 19.3471 229.569 20.7225C232.771 26.9119 241.281 28.6082 246.039 27.5079" fill="#FFCBC4"/>
<path d="M248.51 38.1447C249.013 32.0929 254.503 26.4079 257.477 24.3906C259.033 31.8637 253.908 38.9699 248.556 39.245" fill="#FFCBC4"/>
<path d="M248.418 37.6406C246.314 32.7809 238.49 31.8181 234.784 29.8467C235.974 35.7609 243.431 40.2081 248.51 38.9243" fill="#FFCBC4"/>
<path d="M247.183 51.5774C247.32 44.6545 242.654 43.921 239.268 39.6572C238.948 45.9382 241.693 53.0445 246.497 53.5488" fill="#FFCBC4"/>
<path d="M247.412 50.7985C249.699 45.0218 257.065 45.3886 261 43.1421C259.49 49.5148 252.033 55.3832 246.634 53.2284" fill="#FFCBC4"/>
<path d="M240.183 63.4984C242.105 56.713 237.667 51.945 236.614 47.7271C233.915 53.9622 235.15 63.0857 239.085 64.6445" fill="#FFCBC4"/>
<path d="M240.32 63.3605C245.033 59.7844 252.261 59.922 257.477 60.9306C255.418 64.094 246.314 69.2289 239.222 64.5066" fill="#FFCBC4"/>
<path d="M229.889 71.5666C236.294 69.366 242.654 71.0623 246.131 75.2802C240.229 78.4895 231.993 76.7932 228.882 72.1168" fill="#FFCBC4"/>
<path d="M217.993 76.197C217.856 80.6442 222.843 85.779 231.993 84.8621C228.882 81.9737 227.693 76.6096 219.046 75.9678" fill="#FFCBC4"/>
<path d="M230.118 71.4299C232.908 63.0858 227.601 57.0798 226.412 52.0825C223.255 59.2805 223.392 69.8252 229.02 72.0717" fill="#FFCBC4"/>
<path d="M218.36 76.106C222.386 70.7877 220.556 65.928 221.059 60.0596C216.346 61.6642 214.471 71.8422 217.124 76.381" fill="#FFCBC4"/>
</g>
<path d="M86.4246 67H84.7246V60.66H77.0246V67H75.3246V53H77.0246V59.06H84.7246V53H86.4246V67ZM90.4376 59.9L90.0176 58.62C90.9109 58.0733 91.9109 57.8 93.0176 57.8C94.2309 57.8 95.1109 58.1 95.6576 58.7C96.2042 59.3 96.4776 60.2267 96.4776 61.48V67H94.9576V65.84C94.2509 66.7067 93.2909 67.14 92.0776 67.14C91.2509 67.14 90.5842 66.8933 90.0776 66.4C89.5709 65.8933 89.3176 65.2133 89.3176 64.36C89.3176 63.48 89.6309 62.7867 90.2576 62.28C90.8842 61.76 91.7042 61.5 92.7176 61.5C93.6642 61.5 94.4109 61.6933 94.9576 62.08C94.9576 61.0667 94.8176 60.34 94.5376 59.9C94.2576 59.46 93.7176 59.24 92.9176 59.24C92.1042 59.24 91.2776 59.46 90.4376 59.9ZM92.6376 65.7C93.5309 65.7 94.3042 65.3133 94.9576 64.54V63.4C94.3976 63 93.7242 62.8 92.9376 62.8C92.3909 62.8 91.9309 62.9333 91.5576 63.2C91.1976 63.4533 91.0176 63.8133 91.0176 64.28C91.0176 64.72 91.1576 65.0667 91.4376 65.32C91.7309 65.5733 92.1309 65.7 92.6376 65.7ZM110.557 67H99.1568V58H100.757V65.5H104.057V58H105.657V65.5H108.957V58H110.557V67ZM119.546 71H117.946V58H119.546V59.06C119.866 58.6867 120.306 58.3867 120.866 58.16C121.426 57.92 122.006 57.8 122.606 57.8C123.886 57.8 124.893 58.2267 125.626 59.08C126.386 59.92 126.766 61.0133 126.766 62.36C126.766 63.7333 126.333 64.8867 125.466 65.82C124.613 66.74 123.486 67.2 122.086 67.2C121.006 67.2 120.159 66.9933 119.546 66.58V71ZM122.146 59.3C121.079 59.3 120.213 59.7133 119.546 60.54V65C120.253 65.4667 121.053 65.7 121.946 65.7C122.893 65.7 123.646 65.4 124.206 64.8C124.779 64.1867 125.066 63.3933 125.066 62.42C125.066 61.4733 124.806 60.72 124.286 60.16C123.766 59.5867 123.053 59.3 122.146 59.3ZM136.159 64.76L136.659 66.02C135.792 66.8067 134.666 67.2 133.279 67.2C131.812 67.2 130.646 66.7733 129.779 65.92C128.899 65.0667 128.459 63.9267 128.459 62.5C128.459 61.1533 128.872 60.0333 129.699 59.14C130.512 58.2467 131.646 57.8 133.099 57.8C134.299 57.8 135.292 58.1867 136.079 58.96C136.879 59.72 137.279 60.7067 137.279 61.92C137.279 62.3067 137.246 62.6667 137.179 63H130.259C130.326 63.84 130.639 64.5 131.199 64.98C131.772 65.46 132.506 65.7 133.399 65.7C134.572 65.7 135.492 65.3867 136.159 64.76ZM133.019 59.3C132.232 59.3 131.579 59.52 131.059 59.96C130.552 60.4 130.252 60.98 130.159 61.7H135.619C135.579 60.9533 135.326 60.3667 134.859 59.94C134.406 59.5133 133.792 59.3 133.019 59.3ZM146.25 60.3L141.05 67H139.45V58H141.05V64.7L146.25 58H147.85V67H146.25V60.3ZM140.73 53.4H142.23C142.31 54.4533 142.823 54.98 143.77 54.98C144.663 54.98 145.15 54.4533 145.23 53.4H146.73C146.73 54.2133 146.45 54.8867 145.89 55.42C145.343 55.94 144.636 56.2 143.77 56.2C142.823 56.2 142.076 55.9467 141.53 55.44C140.996 54.92 140.73 54.24 140.73 53.4ZM152.918 59.6H149.618V58H157.818V59.6H154.518V67H152.918V59.6ZM166.367 60.3L161.167 67H159.567V58H161.167V64.7L166.367 58H167.967V67H166.367V60.3ZM179.076 67H177.476V63.2H172.476V67H170.876V58H172.476V61.7H177.476V58H179.076V67ZM183.569 67H181.969V58H187.669V59.5H183.569V67Z" fill="#282828"/>
</g>
<defs>
<clipPath id="clip0_728_2510">
<rect width="261" height="85" fill="white"/>
</clipPath>
</defs>
</svg>
