<svg viewBox="0 0 553.8 488.5" xmlns="http://www.w3.org/2000/svg"><path d="m485 58c-22.7 19.5-76 52.5-107.4 29.1-39.3-29.3 28.8-56.3 12.7 24.5-16.6 83.7-91.2 91.8-134.6 97.3" fill="none" stroke="#e7bfc4"/><path d="m176.8 216.6c-53.5 12.2-160.5 25.9-160.5-16.5 0-53 96.9 3.6 54 81.5-59.5 108 43.5 204.5 147 189.5s161.5-52.5 146.5-73.5-46 41.7-7 73.5c30 24.5 92.5 20.5 123 0" fill="none" stroke="#e7bfc4"/><path d="m104.3 281.9c-5.4 22.7 12.2 48.1 29.7 48.5 8.9 1.2 33.9 2.3 63.3-2.8 36.8-6.4 54.9 49.5 108.4 33.6s40.4-17.6 73.2-23.4c32.8-5.7 31.2-50.8 8.2-61.3s-26.1-31.6-33-50.5-26.8-19.2-47-6.3c-20.1 12.9-26.5-12.5-38.4-46.1-11.8-33.6-75.3-40.9-94.9 19.3-19.6 60.1-62.7 60.6-69.5 89z" fill="#f5f5f5"/><path d="m500.3 235.1c-10.6 6.2-23.9 8.1-35.4 5.2-2.2.5-4.6.9-7.3 1.5 10 5.6 18.3 14.4 24 24.6-11.3-4.1-21.2-13.3-26.2-24.1-4.4.9-9.5 2-15.3 3.3-2.6.6-5.3 1.2-8.2 1.8-1.3.4-2.7.6-4.2 1 14.1 9.5 24.3 23.7 30.5 39.5-15.3-7.6-27.2-22.8-31.4-39.3-1.3.2-2.4.6-3.7.8-6.2 1.5-12.7 3.2-19.4 5-3.1.9-6.2 1.6-9.4 2.5 17.8 9.7 31.4 25.6 40.5 43.9-19.3-7-35.8-23.6-43.1-42.9-7.4 2-14.9 4.4-22.7 7 0 .2-.2.2-.2.3v-.2c-2.6.8-5.4 1.7-8 2.7-.2.2-.5.1-.7.3 20.5 9.8 37.1 29.3 43.4 51.4-20.6-11.1-36.6-29.4-46.7-50.5-13.4 4.6-25.7 9.3-36.8 14-.9.4-1.9.7-2.6 1.1 27.1 7.9 51.1 28.4 62.7 53.9-27-9.7-49.2-29-65-52.9-4.1 1.9-8.3 3.6-12 5.3-2.6 1.1-5.1 2.3-7.6 3.5-2.3 1.2-4.5 2.2-6.8 3.2 0 0-.2 0-.2.2 24.6 10.7 45 32.7 53.1 58.2-24.4-12.1-43.2-32.7-55.8-56.9-15.5 7.6-24.4 12.5-25.2 12.3-.5-.2 5-4.3 16.2-10.8-7-21.4-6-44.9.8-66.5 9.4 19.9 9.7 44.9 1.1 65.5 1.7-1.1 3.6-2.1 5.7-3.1 0 0 0-.2-.1-.2h.2c.2 0 .2-.2.4-.1 2.1-1 4.4-2.2 6.7-3.4s4.9-2.3 7.4-3.7c.9-.4 1.9-.9 2.8-1.3-4.5-28.2 1-57.4 13.3-83.3 8 26.4 4.2 57.2-9.4 81.6 3.2-1.4 6.6-3 10.2-4.6 4.5-2 9.4-4 14.4-5.9.5-29 11.4-57.1 28.6-80.7 2.8 27.8-6.5 57.8-24.8 79.3 7.5-2.9 15.1-5.7 23.5-8.5l11.1-3.6c-.4-23.6 7.4-46.9 20.2-66.9 3.6 21.6-2.3 46.3-15.6 64.9 8.7-2.6 17.2-5.1 25.2-7.2 3.9-20.8 16.9-40.3 34.4-51.6-4.5 19.2-15.4 36.5-29.4 50.2 6.6-1.6 12.7-3.3 18.7-4.4 3.1-.7 6.2-1.5 9.1-2 1.3-.2 2.4-.5 3.6-.7.4-13.6 7.6-26.4 19.4-33.9-1 12.8-7.3 24.3-16.4 33.4.5-.1 1.3-.2 1.8-.3 5.6-1 10.7-1.9 15.2-2.6h.2c.7-.1 1.4-.2 2-.3 4.5-11.3 14-21.4 24.8-26.3-4.6 10.4-12.3 19.3-21.4 26 1.4-.2 2.9-.4 4.2-.6 10.9-5.1 23.7-6.2 35.6-4.1z" fill="#e7bfc4"/><path d="m0 111.1c8.7 11.7 22.7 20 37.2 22.2 2.2 1.5 4.6 3.1 7.4 5.1-14.2 1.5-28.1 7.4-39.8 15.9 14.9.7 30.8-4.8 42-14.3 4.4 3.1 9.6 6.6 15.5 10.8 2.6 1.9 5.3 3.8 8.3 5.8 1.3 1 2.8 1.9 4.2 3-20.8 3.7-39.6 14.6-54.8 29.1 21.2-1.3 42.5-12.4 55.8-28.5 1.3.8 2.4 1.8 3.7 2.6 6.2 4.5 12.6 9.5 19.3 14.5 3.1 2.5 6.2 4.7 9.2 7.2-25.1 2.4-48.7 13.5-68.4 29.3 25.3 1.3 52.6-9.2 70.9-27.1 7.2 5.7 14.5 11.8 22 18.2-.1.2.1.3.1.5l.1-.2c2.5 2.1 5.1 4.4 7.6 6.7.1.3.6.4.7.6-28.2 1.3-57.1 14.9-75.6 36.2 29-2.6 56.5-15.3 78.8-33.7 12.7 11.3 24.1 22.2 34.1 32.5.8.9 1.7 1.6 2.4 2.5-34.6-3.9-72.3 7.4-98.6 30 35.5 2 70.5-9 100.7-27.9 3.7 4 7.5 7.8 10.8 11.4 2.4 2.5 4.5 4.9 6.7 7.3 2 2.4 4 4.5 6 6.7 0 0 .2.1.1.3-33.2.3-67.7 15-90.1 39.2 33.8-1.9 65.7-15.8 92.4-36.5 13.5 15.6 20.9 25.1 22 25.2.7 0-3.4-7-12.6-19.3 18.9-20.2 29.9-46.4 33.5-73.4-20.9 17.5-34.3 44.8-35.3 71.4-1.4-2-3-4-4.8-6.1 0 0 .1-.2.3-.1l-.2-.1c-.2-.1-.1-.3-.3-.3-1.8-2.1-3.8-4.5-5.7-6.8-2-2.4-4.3-4.8-6.4-7.5-.8-.9-1.7-1.8-2.5-2.7 19.8-28.8 28.7-63.4 28.3-97.6-22.8 25.2-34.6 60.8-32 93.8-2.9-3.1-5.9-6.4-9.1-9.8-4-4.3-8.5-8.7-13.2-13.2 14.5-32.1 16.9-68 9.8-101.9-17.6 29.2-22.7 66.5-13.3 98.6-6.9-6.7-14.1-13.3-22-20.3-3.5-3-7.1-6.1-10.6-9.1 12.7-25.7 16.1-55 12.1-82.8-15.3 22-21.5 51.9-16.2 78.5-8.4-6.9-16.7-13.6-24.6-19.7 6.5-24.6 1.9-52.1-11.9-72.7-4.9 23.2-1.7 47.3 7 68.8-6.6-4.8-12.6-9.5-18.7-13.5-3.1-2.2-6.2-4.5-9.2-6.5-1.3-.8-2.4-1.6-3.7-2.4 6.6-15.1 5.2-32.6-4.2-46.3-5.5 14.5-4.4 30.1 1 44.2-.6-.4-1.3-.8-1.9-1.2-5.8-3.7-11.1-7-15.8-9.9 0 0 0 0-.2-.1-.8-.4-1.5-.9-2.1-1.3.8-14.6-4.7-30-14.2-40.4-.3 13.6 3.9 26.9 10.6 38.5-1.5-.9-3-1.8-4.4-2.6-9.9-10.3-23.7-17.5-38.2-20.8z" fill="#ffcbc4"/><path d="m159.9 79 18.2 25.8-19.9-14c-1.3 11.5-2.2 20.5-2.7 33.6l32.1 33.4-32.8-19.2c-.2 14.7-.5 22.3 1.2 36.8 17.1 12.3 34.5 26.4 34.5 26.4l-32.4-9.1c2.8 17.2 7.2 33.4 14.5 47.3 1.2 2.3-.1.2 1.2 2.3l25.2 16.3-17.2-2c33.8 55.9 64.3 55 64.3 55s1-.9 2.5-2.7c1.3-1.4 2.7-3.5 4.4-6.1 6.8-10.5 17-31.4 21.7-67.7l-18.8 12.2 17.4-24.4c-.1-2.9-.1-5.9-.4-8.9-.5-9.9.5-8.7-2.5-18.9l-26.5 17.3 21.8-32.2c-2-6-4.2-12.1-6.6-18.1l-20.6 21.8 14.2-35c-5.1-11.2-7.1-15-13.6-25.5l-21.2 22.9 12.3-36.5c-9.8-15.7-9.6-14.9-19.4-27.6l-15.4 21.7 8.6-32.4c-17-20.7-35.5-40.3-35.5-40.3s-4.6 17.1-8.6 47.8z" fill="#e8e9e9"/><path d="m129.8 373.6 11.2-9.6-5.6 9.7c5.5 0 9.8-.1 16-.6l14.1-16.3-7.3 15.8c6.9-.7 10.5-1 17.3-2.6 4.9-8.4 10.6-17 10.6-17l-2.6 15c8-2.2 15.4-5.1 21.6-9.1 1-.6.1 0 1-.6l6.4-12.2v7.8c24.6-18.3 22.6-31.9 22.6-31.9s-.5-.4-1.4-1c-.7-.5-1.8-1-3.1-1.6-5.3-2.5-15.7-5.9-33.1-6l6.7 7.8-12.4-6.5c-1.3.2-2.8.4-4.2.7-4.6.8-4.1.3-8.8 2.2l9.5 11-16.3-8c-2.7 1.2-5.5 2.5-8.2 4l11.4 8-17.3-4.4c-5 2.9-6.7 4-11.3 7.5l11.9 8.3-17.9-3.5c-6.9 5.3-6.5 5.1-12 10.2l11 5.7-15.7-2.1c-8.9 8.8-17.2 18.2-17.2 18.2s8.4.9 23.1 1.1z" fill="#f0dbde"/><g fill="#e7bfc4"><path d="m501.8 24.3c1.3.6 2.9 1.2 5.2 1.2 2.7 0 5.2 1 6.9 2.4-.2.6-.6 1.2-.6 1.6-.6-.4-1.3-.6-2.1-.8-1.9-.2-3.6.6-4.4 1.2-1.8-1.1-3.5-3.1-5-5.6z"/><path d="m499.5 20.3c-1-2.6-1.9-5.1-2.1-7.1 1 1.6 2.5 3.2 5 4.3 4.2 2 9.9 4.7 13 8.1-.2.4-.4.6-.6 1-2.1-1.6-4.6-2.6-7.8-2.6-5-.1-6.9-2.7-7.5-3.7z"/><path d="m510.8 30.6c.6 0 1.3.4 1.7.8-.2 1-.4 2-.4 3-1.3-.8-2.7-1.8-4.4-3 .8-.6 1.9-1 3.1-.8z"/><path d="m497.8 3.2h1s.2 4.5 5.2 7.1c4.4 2.2 11.5 6.1 13.2 13.4-.4.2-.6.6-.8.8-3.4-3.7-9-6.5-13.2-8.3-5-2.4-5.9-7.1-6.1-9.1.1-2.4.7-3.9.7-3.9z"/><path d="m513.8 35.9c0-1.6.2-3.7.8-5.7 1.9.2 9 1.8 11.5 8.7-.2.2-.4.4-.6.8-1.5-2-5.2-5.4-11.7-3.8z"/><path d="m527.4 13c-1-4.1.6-6.7 1.9-8.1 1.9-1.6 4.4-3.2 7.3-4.9l.8.6s-5.9 3.2-5 12.4c.6 6.5 2.5 15-.2 20.5 1.3-5.5-1-10.8-2.9-15.2-.7-2.1-1.5-3.7-1.9-5.3z"/><path d="m507.9 40c.6-.2 1.5-.4 2.1-.6 0 1.8-5 15.8-13.4 9.3 6.3-2.4 10.2-7.3 11.3-8.7z"/><path d="m492 43.4s7.3-1 13.2-2.6c-1.9 2-5.5 5.5-10.5 6.9-2.1-.2-4.6-2.3-2.7-4.3z"/><path d="m532.4 41c-1.9 1.4-6.5 7.5-13.8 6.5-.6 0-1.3-.2-1.9-.2 7.1-1.8 10.7-7.1 11.9-9.5 2.3-1 5-1.8 6.9-.2s3.1 2 5.2 2.8v.8c.3-.2-5.8-1.8-8.3-.2z"/><path d="m529.7 34.9c-1.3-9.5-7.3-12.2-8.8-12.6-.2-2.2-.2-7.9 4.8-14-.4 1.4-.4 3 .2 5.1.4 1.6 1.3 3.7 2.1 5.5 2.1 4.9 4.4 10.3 2.3 15.8-.2 0-.4.2-.6.2z"/><path d="m515.4 28.6c1-1.8 2.5-3.7 4.8-4.9.8.2 6.9 2.6 8 12.4-.4.4-.6.8-1 1-2.7-6.1-9.5-7.9-11.8-8.5z"/><path d="m553.6 44.2-12.6-3.2v-.6l12.8 2.4z"/><path d="m514 37.3c6.1-1.8 9.6 1.8 10.7 3.4-2.7 2.8-7.3 6.1-14.5 5.7-.4 0-.8 0-1.3 0 1-1.6 2.5-4.7 2.7-7.9.9-.6 1.5-.8 2.4-1.2z"/></g><path d="m247.8 314c46-28.8 76.1-91.4 76.1-91.4" style="fill:none;stroke:#c16a84;stroke-width:2;stroke-linecap:round;stroke-linejoin:round;stroke-miterlimit:10"/><path d="m290.8 274c13.4-13.1 35.5-20.4 50.7-23.6 15.1-3.2 18.2-6.5 22.7-8.9s3.7-.5 2 1.9c-1.8 2.4-19.5 18.4-35 25-13.7 5.9-33.3 7.7-41.3 7.1" fill="#c16a84"/><path d="m276.6 289.7c8.5-17.6 7.9-41.5 5.7-57.2s.1-19.8.8-25-.8-3.8-2.6-1.2c-1.8 2.5-11.6 25.4-12.8 42.6-1 15.3 4.2 34.8 7.7 42.3" fill="#c16a84"/><path d="m301.7 179.8c6.4-17 21-9.3 21.7-2.2 8.1-11.8 21.2-3.4 20.9 3.5 3.5-3.8 9.6-1.7 10.4 3.2 11.3-4.8 14.9 10.6 8.5 19.5-7.7 10.8-28.6 26.7-44.7 17.8s-20.8-31.2-16.8-41.8z" fill="#ff8674"/><path d="m363.5 207.7c6.5-9.4.6-17-7.1-7.6 1.4-6.8-8.5-9.8-12.4-1.7-4 8.1-9.2 15.6-12.3 17.5 4.9-8.9 14.9-29 2.7-32.7-5.9-1.8-10.2 5.1-11.8 13.6-2.3-7.1 2-12.1-3.5-15.8-4.5-3.1-7.6.4-10.8 4.2.4-5.8 2.5-14.6 0-16.2-2.4-1.6-6.3 2.4-8.2 8.3s-5.5 33.2 19.5 46.3 43.9-15.9 43.9-15.9z" fill="#ffa597"/><path d="m231.1 289.8c-21.8-49.4-15.6-160.3-15.6-160.3" fill="none" stroke="#c16a84" stroke-linecap="round" stroke-miterlimit="10" stroke-width="2"/><path d="m192.9 93.3c1.6-9.1 9.8-10.3 15.6-3.5 2-9.1 13.4-7.5 14.7-1.3 3.4-4.7 11.4-.4 9.6 6.9 3.6-8.6 11.4-5.9 13.1.9 1.7 6.9-6.9 35.7-29.5 34-22.6-1.6-25.1-28-23.5-37z" fill="#ff8674"/><path d="m190.5 95.3c1.8-6.2 11.5-1.7 12.6 5.9 1.3-1.9 5.9-2.1 7.2 2 1.1 3.6-1.1 12.7 1 15.7.8-2.8 1.4-9.7 2.7-13.2 1.3-4 7.4-3.1 7.8 1.7 2-7.6 7.8-5 8.8-2s-1.3 12.2-3 15.4c3.4-1.7 8.7-11 9.7-18.4 1-7 9.1-8.3 10-4.8 2.5 9-8.4 36.1-32.1 33.7-23.5-2.3-27.3-27.1-24.7-36z" fill="#ffa597"/><path d="m215.7 218.7c.6-22 13.6-45.9 24-60.6 10.3-14.7 10.2-20 12.1-25.6s2-2.8 2.4.7-.7 30.9-8.5 48.8c-6.9 15.9-22.2 33-29.5 38.7" fill="#c16a84"/><path d="m216 207.3c-1.2-17.3-12.1-35.7-20.7-47.1s-10.5-15.3-12.2-19.6-1.9-2.2-2.1.5 3.8 24 10.4 37.9c5.9 12.4 18.4 25.5 24.4 29.9" fill="#c16a84"/><path d="m244.8 312.2c-5-43.5 1.8-79.8 1.8-79.8" fill="none" stroke="#c16a84" stroke-linecap="round" stroke-miterlimit="10" stroke-width="2"/><path d="m223.9 196.2c1.6-9.1 9.7-10.3 15.6-3.5 2-9.1 13.4-7.5 14.7-1.3 3.4-4.7 11.4-.4 9.6 6.9 3.6-8.6 11.4-5.9 13.1.9 1.7 6.9-6.8 35.8-29.3 34.1-22.6-1.6-25.2-28.1-23.7-37.1z" fill="#ffa597"/><path d="m221.5 198.2c1.7-6.2 11.4-1.7 12.6 5.9 1.3-1.9 5.9-2.1 7.2 1.9 1.1 3.6-1.1 12.7 1.1 15.7.8-2.8 1.4-9.7 2.6-13.2 1.3-4 7.4-3.1 7.8 1.7 2-7.6 7.8-5 8.8-2s-1.2 12.2-2.9 15.4c3.4-1.7 8.6-11 9.6-18.4 1-7 9.1-8.3 10-4.9 2.6 9-8.2 36.1-31.9 33.8-23.6-2.2-27.4-27-24.9-35.9z" fill="#ffcbc4"/><path d="m243.9 297.1c-12.9-18.6-37.7-32.3-55-39.6-17.3-7.2-22.1-10.4-26.9-14.2s-3.7-1.3-2.1 1.9 20.3 24.5 37.3 35.9c15 10.1 37.9 16.7 47.6 17.9" fill="#c16a84"/></svg>