<svg viewBox="0 0 1006.2 194.5" xmlns="http://www.w3.org/2000/svg"><g fill="#fff"><path d="m975.4 43.6c.7.4 1.7.8 3.1.8 1.7 0 3.1.6 4.1 1.6-.2.4-.3.7-.4 1.1-.4-.3-.7-.4-1.2-.4-1.1-.2-2.1.4-2.6.8-1.2-1.2-2.2-2.4-3-3.9z"/><path d="m974.1 40.9c-.7-1.8-1.1-3.2-1.2-4.6.6 1.1 1.5 2.1 2.9 2.8 2.5 1.3 5.9 3.1 7.7 5.3-.2.2-.2.4-.4.6-1.2-1-2.7-1.7-4.6-1.7-2.9.1-4.1-1.8-4.4-2.4z"/><path d="m980.8 47.6c.3.1.7.3 1.1.5-.2.7-.2 1.4-.2 2-.7-.4-1.7-1.1-2.6-2 .3-.4.9-.6 1.7-.5z"/><path d="m973.1 30h.6s.1 2.9 3.1 4.6c2.6 1.4 6.8 3.9 7.9 8.6-.2.2-.4.4-.6.5-1.9-2.4-5.4-4.1-7.9-5.4-3-1.6-3.5-4.6-3.6-6 .1-1.6.5-2.3.5-2.3z"/><path d="m982.5 51c0-1.1.1-2.4.6-3.7 1.1.2 5.3 1.1 6.8 5.6-.1.2-.2.4-.3.4-1-1.1-3.3-3.4-7.1-2.3z"/><path d="m990.5 36.2c-.6-2.5.4-4.4 1.1-5.3 1.2-1.1 2.6-2.1 4.4-3.1l.4.4s-3.4 2-3 8.1c.3 4.2 1.6 9.6-.1 13.2.7-3.5-.6-6.9-1.7-9.8-.4-1.3-.8-2.6-1.1-3.5z"/><path d="m978.9 53.7c.4-.2.8-.3 1.2-.4-.1 1.2-3 10.3-7.9 6 3.8-1.6 6.2-4.7 6.7-5.6z"/><path d="m969.6 55.8s4.3-.7 7.9-1.7c-1.2 1.4-3.3 3.5-6.2 4.4-1.4 0-2.9-1.3-1.7-2.7z"/><path d="m993.5 54.3c-1.2.9-3.9 4.8-8.2 4.2-.4-.1-.7-.1-1.1-.2 4.2-1.2 6.4-4.6 7.1-6.1h.1c1.3-.6 3-1.1 4.1-.1s1.8 1.3 3.1 1.8v.5c0-.1-3.7-1.1-5.1-.1z"/><path d="m991.9 50.4c-.8-6.2-4.4-7.9-5.2-8.2-.2-1.5-.2-5.2 2.9-9.1-.2 1-.2 2 .1 3.2.2 1.1.7 2.3 1.2 3.6 1.2 3.2 2.6 6.7 1.4 10.2-.2.1-.3.2-.4.3z"/><path d="m983.4 46.3c.6-1.2 1.5-2.4 2.9-3.2.5.2 4.1 1.8 4.7 8.1-.2.3-.4.5-.6.7-1.7-4.1-5.5-5.3-7-5.6z"/><path d="m1006.1 56.3-7.4-2v-.4l7.5 1.7z"/><path d="m982.6 52c3.6-1.1 5.7 1.2 6.4 2.2-1.6 1.8-4.3 3.9-8.6 3.6-.2 0-.5 0-.7 0 .6-1.1 1.5-3.1 1.7-5.2.4-.2.7-.5 1.2-.6z"/></g><path d="m.5 194.5c0-49.9 75.1-101.6 131.2-117.2 125.4-29.8 264.6 8.5 306.5 53.2 11.9 12.7 22.1 34.3 12.8 49.6-6.6 10.7-20.6 11.8-29.9 4.5-24.3-19-21.3-58.4-9-83.1 13.8-27.5 39.1-49 68.3-54.8 26.2-5.2 53.2 1.3 78.9 8.5 25.8 7.1 52 15.2 78.6 13.3s54.2-16.1 65-41.9c2.5-6.2 4-13.4 1.3-19.3-2.7-6-11.2-9.2-15.6-4.5-5.8 6 .1 16.5 7.1 21.1 15.3 9.9 34.8 9.9 52.2 5.6 17.5-4.3 33.9-12.4 51-18.1 59.2-19.5 127.1-6.1 175.7 34.6" fill="none" stroke="#fff" stroke-miterlimit="10"/></svg>
