<svg viewBox="0 0 423.1 268.3" xmlns="http://www.w3.org/2000/svg"><g fill="#3d1522"><path d="m312.1 268.3c-17.7 0-37.9-4.7-59.5-14-24.6-10.6-51.2-27.3-72.9-45.9-9.7-8.3-18.9-14.1-27.4-17.9-6 6-12.7 11.2-19.7 15.3-15.3 8.9-28 9.9-33.1 2.5-3.8-5.5-2.5-12.5 3.4-17.7 6.7-6 17.6-8.6 29.8-7 6.3.8 12.8 2.7 19.4 5.7 21.9-21.8 39-57.1 20.4-95.1-27.5-56.4-124.9-85.6-172.5-93.2l.2-1c47.8 7.6 145.6 37 173.3 93.8 13.4 27.5 7.3 52-.3 67.7-4.9 10.2-11.9 19.9-20.1 28.2 9 4.1 18.2 10.1 27.2 17.9 43.5 37.3 107.9 69.4 153.5 56.9 32.9-9 42.7-26.3 43.7-28.2l.9.5c-1 2-11 19.7-44.3 28.8-6.7 1.7-14.1 2.7-22 2.7zm-186.3-84c-9.9 0-17.6 3-22.1 7.1-5.5 4.9-6.7 11.2-3.2 16.4 4.7 6.8 17.1 5.7 31.7-2.8 6.3-3.7 12.9-8.7 19.2-14.8-9.5-4.3-18.2-5.9-25.6-5.9z"/><path d="m385.6 209.5c.9.4 2.1.9 3.8.9 2 0 3.8.7 5 1.8-.2.4-.5.9-.5 1.2-.5-.3-.9-.4-1.5-.6-1.4-.2-2.6.4-3.2.9-1.3-.9-2.5-2.4-3.6-4.2z"/><path d="m384 206.5c-.8-1.9-1.4-3.7-1.5-5.2.8 1.2 1.8 2.4 3.6 3.1 3 1.5 7.1 3.4 9.4 6-.2.3-.3.4-.5.7-1.5-1.2-3.3-1.9-5.6-1.9-3.6 0-5-1.9-5.4-2.7z"/><path d="m392.1 214.1c.5 0 .9.3 1.2.6-.2.7-.3 1.5-.3 2.2-.9-.6-2-1.3-3.2-2.2.7-.4 1.4-.7 2.3-.6z"/><path d="m382.8 194h.8s.2 3.3 3.8 5.2c3.2 1.6 8.3 4.5 9.5 9.8-.3.1-.5.4-.6.6-2.4-2.7-6.5-4.8-9.5-6.1-3.6-1.8-4.2-5.2-4.4-6.7-.1-1.8.4-2.8.4-2.8z"/><path d="m394.2 218c0-1.2.2-2.7.6-4.2 1.4.1 6.5 1.3 8.3 6.4-.2.1-.3.3-.5.6-1-1.4-3.7-4-8.4-2.8z"/><path d="m404.1 201.2c-.8-3 .5-4.9 1.4-6 1.4-1.2 3.2-2.4 5.3-3.6l.6.4s-4.2 2.4-3.6 9.1c.5 4.8 1.8 11-.2 15.1.9-4-.8-7.9-2.1-11.2-.5-1.5-1.1-2.6-1.4-3.8z"/><path d="m390 221c.5-.1 1.1-.3 1.5-.4 0 1.3-3.6 11.6-9.7 6.9 4.6-1.9 7.5-5.5 8.2-6.5z"/><path d="m378.5 223.5s5.3-.7 9.5-1.9c-1.4 1.5-3.9 4-7.6 5.1-1.4-.2-3.2-1.7-1.9-3.2z"/><path d="m407.7 221.8c-1.4 1-4.7 5.5-10 4.8-.5 0-.9-.2-1.4-.2 5.1-1.3 7.7-5.2 8.6-7 1.7-.7 3.6-1.3 5-.1s2.3 1.5 3.8 2.1v.6c.2-.2-4.2-1.4-6-.2z"/><path d="m405.7 217.3c-.9-7-5.3-9-6.3-9.3-.2-1.6-.2-5.8 3.5-10.3-.3 1-.3 2.2.2 3.7.3 1.2.9 2.7 1.5 4 1.5 3.6 3.2 7.6 1.7 11.6-.3.1-.4.3-.6.3z"/><path d="m395.4 212.7c.8-1.3 1.8-2.7 3.5-3.6.6.1 5 1.9 5.7 9.1-.3.3-.5.6-.8.7-1.9-4.5-6.7-5.8-8.4-6.2z"/><path d="m422.9 224.1-9.1-2.4v-.4l9.2 1.8z"/><path d="m394.4 219.1c4.4-1.3 6.9 1.3 7.7 2.5-2 2.1-5.3 4.5-10.4 4.2-.3 0-.6 0-.9 0 .8-1.2 1.8-3.4 2-5.8.5-.5 1-.6 1.6-.9z"/></g></svg>