<svg viewBox="0 0 464.4 258.7" xmlns="http://www.w3.org/2000/svg"><g fill="#3d1522"><path d="m444.4 258.7c-1 0-1.9-.1-2.9-.2-22.2-3.1-42.6-42.4-66.2-87.8-17.7-34.1-37.9-72.8-61.3-99.9-26.8-30.9-53.9-42-82.9-33.9-14.9 4.1-35.4 19.5-36.3 52.4 5.7 4.4 10.8 9.1 15 14.3 12.9 15.7 14.3 27.1 11.4 32.6-1.5 2.8-4.3 4.2-7.5 3.8-5-.6-12.1-6-15.8-19.5-3.1-11.6-4.4-21.8-4.2-30.7-31.9-24.2-83.6-36.7-123-46.2-3.1-.7-6.1-1.5-9-2.2l.2-1c2.9.7 5.9 1.4 9 2.2 39.2 9.5 90.6 21.9 122.8 46 1.2-33 21.9-48.5 37-52.6 29.4-8.2 56.8 3 83.9 34.2 23.5 27.1 43.7 65.9 61.4 100.1 23.5 45.2 43.8 84.2 65.4 87.3 7.4 1 14.6-2.2 22-9.9l.7.7c-6.4 6.8-13 10.3-19.7 10.3zm-249.6-168.2c-.1 8.7 1.1 18.5 4.2 29.7 3.5 12.9 10.2 18.2 14.9 18.7 2.8.3 5.1-.9 6.5-3.3 2.8-5.2 1.3-16.2-11.3-31.4-4.1-4.9-8.9-9.5-14.3-13.7z"/><path d="m44.1 20.8c-1.1.5-2.5 1-4.4 1-2.3 0-4.4.9-5.9 2.1.2.5.5 1 .5 1.4.5-.3 1.1-.5 1.8-.7 1.6-.2 3 .5 3.7 1 1.6-1 3.1-2.7 4.3-4.8z"/><path d="m46.1 17.3c.9-2.3 1.6-4.3 1.8-6.1-.9 1.4-2.1 2.8-4.3 3.6-3.6 1.7-8.4 4-11 6.9.2.3.4.5.5.9 1.8-1.4 3.9-2.3 6.6-2.3 4.2.2 5.8-2.1 6.4-3z"/><path d="m36.5 26.2c-.5 0-1.1.3-1.4.7.2.9.4 1.7.4 2.6 1.1-.7 2.3-1.6 3.7-2.6-.8-.5-1.7-.9-2.7-.7z"/><path d="m47.5 2.8h-.9s-.2 3.8-4.4 6.1c-3.7 1.9-9.8 5.2-11.2 11.4.4.2.5.5.7.7 2.8-3.1 7.6-5.5 11.2-7.1 4.3-2.1 5-6.1 5.2-7.8-.1-2.1-.6-3.3-.6-3.3z"/><path d="m34 30.7c0-1.4-.2-3.1-.7-4.9-1.6.2-7.6 1.6-9.8 7.5.2.2.4.3.5.7 1.3-1.7 4.5-4.7 10-3.3z"/><path d="m22.4 11.1c.9-3.5-.5-5.7-1.6-6.9-1.6-1.4-3.7-2.8-6.2-4.2l-.7.5s5 2.8 4.3 10.6c-.5 5.5-2.1 12.8.2 17.5-1.1-4.7.9-9.2 2.5-13 .4-1.7 1.2-3.1 1.5-4.5z"/><path d="m38.9 34.2c-.5-.2-1.2-.3-1.8-.5 0 1.6 4.3 13.5 11.4 8-5.3-2.2-8.7-6.3-9.6-7.5z"/><path d="m52.5 37.1s-6.2-.9-11.2-2.3c1.6 1.7 4.6 4.7 8.9 5.9 1.7-.1 3.9-1.9 2.3-3.6z"/><path d="m18.1 35c1.6 1.2 5.5 6.4 11.7 5.5.5 0 1.1-.2 1.6-.2-6-1.6-9.1-6.1-10.1-8.1-2-.9-4.3-1.6-5.9-.2s-2.7 1.7-4.4 2.4v.7c-.2-.1 5-1.5 7.1-.1z"/><path d="m20.5 29.8c1.1-8.1 6.2-10.4 7.5-10.8.2-1.9.2-6.8-4.1-12 .4 1.2.4 2.6-.2 4.3-.4 1.4-1.1 3.1-1.8 4.7-1.8 4.2-3.7 8.8-2 13.5.2.1.4.3.6.3z"/><path d="m32.5 24.4c-.9-1.6-2.1-3.1-4.1-4.2-.7.2-5.9 2.3-6.8 10.6.4.3.5.7.9.9 2.4-5.2 8.1-6.7 10-7.3z"/><path d="m.2 37.8 10.6-2.8v-.5l-10.8 2.1z"/><path d="m33.8 31.9c-5.2-1.6-8.2 1.6-9.1 2.9 2.3 2.4 6.2 5.2 12.3 4.9h1.1c-.9-1.4-2.1-4-2.3-6.8-.8-.5-1.3-.7-2-1z"/></g></svg>