<svg width="100" height="100" viewBox="0 0 100 100" fill="none" xmlns="http://www.w3.org/2000/svg">
<path d="M62.6802 76.3691C74.8304 76.3691 84.6802 66.5194 84.6802 54.3691C84.6802 42.2189 74.8304 32.3691 62.6802 32.3691C50.5299 32.3691 40.6802 42.2189 40.6802 54.3691C40.6802 66.5194 50.5299 76.3691 62.6802 76.3691Z" stroke="#D0ABB4" stroke-width="2" stroke-linecap="round" stroke-linejoin="round"/>
<path d="M62.6798 83.4593C78.7458 83.4593 91.7698 70.4353 91.7698 54.3693C91.7698 38.3033 78.7458 25.2793 62.6798 25.2793C46.6139 25.2793 33.5898 38.3033 33.5898 54.3693C33.5898 70.4353 46.6139 83.4593 62.6798 83.4593Z" stroke="#D0ABB4" stroke-width="2" stroke-linecap="round" stroke-linejoin="round"/>
<path d="M68.4598 12.1504H56.8798C54.7424 12.1504 53.0098 13.883 53.0098 16.0204V16.0304C53.0098 18.1677 54.7424 19.9004 56.8798 19.9004H68.4598C70.5971 19.9004 72.3298 18.1677 72.3298 16.0304V16.0204C72.3298 13.883 70.5971 12.1504 68.4598 12.1504Z" stroke="#D0ABB4" stroke-width="2" stroke-linecap="round" stroke-linejoin="round"/>
<path d="M67.46 19.9004V25.5804" stroke="#D0ABB4" stroke-width="2" stroke-linecap="round" stroke-linejoin="round"/>
<path d="M57.8901 19.9004V25.5804" stroke="#D0ABB4" stroke-width="2" stroke-linecap="round" stroke-linejoin="round"/>
<path d="M62.6802 36.0293V39.5193" stroke="#D0ABB4" stroke-width="2" stroke-miterlimit="10" stroke-linecap="round"/>
<path d="M49.7002 41.4004L52.1702 43.8704" stroke="#D0ABB4" stroke-width="2" stroke-miterlimit="10" stroke-linecap="round"/>
<path d="M44.3301 54.3691H47.8301" stroke="#D0ABB4" stroke-width="2" stroke-miterlimit="10" stroke-linecap="round"/>
<path d="M49.7002 67.3391L52.1702 64.8691" stroke="#D0ABB4" stroke-width="2" stroke-miterlimit="10" stroke-linecap="round"/>
<path d="M62.6802 72.7207V69.2207" stroke="#D0ABB4" stroke-width="2" stroke-miterlimit="10" stroke-linecap="round"/>
<path d="M75.6502 67.3391L73.1802 64.8691" stroke="#D0ABB4" stroke-width="2" stroke-miterlimit="10" stroke-linecap="round"/>
<path d="M81.0198 54.3691H77.5298" stroke="#D0ABB4" stroke-width="2" stroke-miterlimit="10" stroke-linecap="round"/>
<path d="M75.6502 41.4004L73.1802 43.8704" stroke="#D0ABB4" stroke-width="2" stroke-miterlimit="10" stroke-linecap="round"/>
<path d="M62.6802 43.5605V54.3705H67.9502" stroke="#D0ABB4" stroke-width="2" stroke-miterlimit="10" stroke-linecap="round"/>
<path d="M43.9699 32.3008H24.1899" stroke="#D0ABB4" stroke-width="2" stroke-miterlimit="10" stroke-linecap="round"/>
<path d="M14.5698 39.5195H26.3798" stroke="#D0ABB4" stroke-width="2" stroke-miterlimit="10" stroke-linecap="round"/>
<path d="M43.9702 76.6504H20.4702" stroke="#D0ABB4" stroke-width="2" stroke-miterlimit="10" stroke-linecap="round"/>
<path d="M10.8799 69.2207H25.5299" stroke="#D0ABB4" stroke-width="2" stroke-miterlimit="10" stroke-linecap="round"/>
<path d="M34.4398 61.3594H21.2798" stroke="#D0ABB4" stroke-width="2" stroke-miterlimit="10" stroke-linecap="round"/>
<path d="M24.8701 46.6094H30.1601" stroke="#D0ABB4" stroke-width="2" stroke-miterlimit="10" stroke-linecap="round"/>
<path d="M8.24023 52.8398H26.3802" stroke="#D0ABB4" stroke-width="2" stroke-miterlimit="10" stroke-linecap="round"/>
</svg>
