<svg width="100" height="100" viewBox="0 0 100 100" fill="none" xmlns="http://www.w3.org/2000/svg">
<path d="M67.74 43.4908C69.9326 43.4908 71.71 41.7134 71.71 39.5208C71.71 37.3282 69.9326 35.5508 67.74 35.5508C65.5474 35.5508 63.77 37.3282 63.77 39.5208C63.77 41.7134 65.5474 43.4908 67.74 43.4908Z" stroke="#D0ABB4" stroke-width="2" stroke-linecap="round" stroke-linejoin="round"/>
<path d="M63.77 32.7106C64.3971 32.3492 65.0697 32.0734 65.77 31.8906" stroke="#D0ABB4" stroke-width="2" stroke-linecap="round" stroke-linejoin="round"/>
<path d="M60.1099 37.5391C60.29 36.8379 60.566 36.1649 60.9299 35.5391" stroke="#D0ABB4" stroke-width="2" stroke-linecap="round" stroke-linejoin="round"/>
<path d="M61.0002 43.5195C60.6298 42.8945 60.3471 42.2216 60.1602 41.5195" stroke="#D0ABB4" stroke-width="2" stroke-linecap="round" stroke-linejoin="round"/>
<path d="M65.7598 47.1508C65.0581 46.958 64.3855 46.6721 63.7598 46.3008" stroke="#D0ABB4" stroke-width="2" stroke-linecap="round" stroke-linejoin="round"/>
<path d="M71.71 46.3301C71.0841 46.694 70.4111 46.9699 69.71 47.1501" stroke="#D0ABB4" stroke-width="2" stroke-linecap="round" stroke-linejoin="round"/>
<path d="M75.3598 41.5098C75.1816 42.2132 74.902 42.8869 74.5298 43.5098" stroke="#D0ABB4" stroke-width="2" stroke-linecap="round" stroke-linejoin="round"/>
<path d="M74.5498 35.5508C74.907 36.1787 75.1794 36.8512 75.3598 37.5508" stroke="#D0ABB4" stroke-width="2" stroke-linecap="round" stroke-linejoin="round"/>
<path d="M69.71 31.8906C70.4123 32.0766 71.0854 32.3593 71.71 32.7306" stroke="#D0ABB4" stroke-width="2" stroke-linecap="round" stroke-linejoin="round"/>
<path d="M65.7598 31.7897V29.1797C65.7977 28.8375 65.9668 28.5233 66.2317 28.3032C66.4965 28.0831 66.8364 27.9743 67.1798 27.9997H68.2998C68.6432 27.9743 68.983 28.0831 69.2479 28.3032C69.5127 28.5233 69.6819 28.8375 69.7198 29.1797V31.7897" stroke="#D0ABB4" stroke-width="2" stroke-linecap="round" stroke-linejoin="round"/>
<path d="M60.8699 35.4495L58.9999 33.6095C58.7818 33.3415 58.6774 32.9988 58.7092 32.6547C58.741 32.3107 58.9064 31.9929 59.1699 31.7695L59.9999 30.9995C60.2233 30.736 60.5412 30.5706 60.8852 30.5388C61.2292 30.507 61.5719 30.6114 61.8399 30.8295L63.6799 32.6695" stroke="#D0ABB4" stroke-width="2" stroke-linecap="round" stroke-linejoin="round"/>
<path d="M60.0002 41.5001H57.4002C57.0569 41.4646 56.7412 41.2961 56.5206 41.0307C56.3 40.7653 56.1922 40.424 56.2202 40.0801V39.0001C56.1922 38.6561 56.3 38.3149 56.5206 38.0494C56.7412 37.784 57.0569 37.6155 57.4002 37.5801H60.0002" stroke="#D0ABB4" stroke-width="2" stroke-linecap="round" stroke-linejoin="round"/>
<path d="M63.6701 46.3898L61.8301 48.2298C61.5628 48.4449 61.2222 48.5474 60.8806 48.5156C60.539 48.4839 60.2232 48.3204 60.0001 48.0598L59.2101 47.2698C58.9406 47.0521 58.7675 46.7371 58.7282 46.3928C58.689 46.0486 58.7866 45.7027 59.0001 45.4298L60.8401 43.5898" stroke="#D0ABB4" stroke-width="2" stroke-linecap="round" stroke-linejoin="round"/>
<path d="M69.7198 47.2607V49.8607C69.6748 50.1967 69.5022 50.5025 69.2378 50.7148C68.9735 50.927 68.6376 51.0294 68.2998 51.0007H67.1798C66.8358 51.0287 66.4946 50.9208 66.2291 50.7003C65.9637 50.4797 65.7952 50.164 65.7598 49.8207V47.2207" stroke="#D0ABB4" stroke-width="2" stroke-linecap="round" stroke-linejoin="round"/>
<path d="M74.6101 43.5898L76.4501 45.4298C76.6681 45.6978 76.7725 46.0405 76.7407 46.3846C76.7089 46.7286 76.5435 47.0464 76.2801 47.2698L75.4901 48.0598C75.2666 48.3233 74.9488 48.4887 74.6048 48.5205C74.2608 48.5523 73.918 48.4479 73.6501 48.2298L71.8101 46.3898" stroke="#D0ABB4" stroke-width="2" stroke-linecap="round" stroke-linejoin="round"/>
<path d="M75.4702 37.5391H78.0802C78.43 37.5769 78.7506 37.7517 78.9718 38.0253C79.1929 38.299 79.2966 38.6491 79.2602 38.9991V40.1191C79.2856 40.4625 79.1768 40.8023 78.9567 41.0672C78.7367 41.332 78.4225 41.5012 78.0802 41.5391H75.4702" stroke="#D0ABB4" stroke-width="2" stroke-linecap="round" stroke-linejoin="round"/>
<path d="M71.8101 32.6499L73.6501 30.8099C73.918 30.5918 74.2608 30.4875 74.6048 30.5193C74.9488 30.5511 75.2666 30.7164 75.4901 30.9799L76.2801 31.7699C76.5435 31.9934 76.7089 32.3112 76.7407 32.6552C76.7725 32.9992 76.6681 33.342 76.4501 33.6099L74.6101 35.4499" stroke="#D0ABB4" stroke-width="2" stroke-linecap="round" stroke-linejoin="round"/>
<path d="M62.86 78.8691H35.97C35.4453 78.8691 35.02 79.2945 35.02 79.8191V81.0491C35.02 81.5738 35.4453 81.9991 35.97 81.9991H62.86C63.3847 81.9991 63.81 81.5738 63.81 81.0491V79.8191C63.81 79.2945 63.3847 78.8691 62.86 78.8691Z" stroke="#D0ABB4" stroke-width="2" stroke-linecap="round" stroke-linejoin="round"/>
<path d="M56.4902 71.9707L57.9102 78.8707" stroke="#D0ABB4" stroke-width="2" stroke-linecap="round" stroke-linejoin="round"/>
<path d="M40.0498 78.8707L41.4798 71.9707" stroke="#D0ABB4" stroke-width="2" stroke-linecap="round" stroke-linejoin="round"/>
<path d="M88.4502 69.9592V17.4492C88.4502 16.6208 87.7786 15.9492 86.9502 15.9492L13.0602 15.9492C12.2318 15.9492 11.5602 16.6208 11.5602 17.4492V69.9592C11.5602 70.7876 12.2318 71.4592 13.0602 71.4592H86.9502C87.7786 71.4592 88.4502 70.7876 88.4502 69.9592Z" stroke="#D0ABB4" stroke-width="2" stroke-linecap="round" stroke-linejoin="round"/>
<path d="M11.5601 66.3691H88.4401" stroke="#D0ABB4" stroke-width="2" stroke-linecap="round" stroke-linejoin="round"/>
<path d="M58.7299 33.1306H45.3799L39.1299 26.8906" stroke="#D0ABB4" stroke-width="2" stroke-linecap="round" stroke-linejoin="round"/>
<path d="M56.1301 39.5195H23.1001" stroke="#D0ABB4" stroke-width="2" stroke-linecap="round" stroke-linejoin="round"/>
<path d="M58.73 46.3496H36.61L30.54 52.4196" stroke="#D0ABB4" stroke-width="2" stroke-linecap="round" stroke-linejoin="round"/>
<path d="M88.4401 57.5898H50.8301" stroke="#D0ABB4" stroke-width="2" stroke-linecap="round" stroke-linejoin="round"/>
<path d="M88.1599 22.0391H70.4399" stroke="#D0ABB4" stroke-width="2" stroke-linecap="round" stroke-linejoin="round"/>
<path d="M11.7202 23.5508H19.7602L24.9702 28.7608" stroke="#D0ABB4" stroke-width="2" stroke-linecap="round" stroke-linejoin="round"/>
<path d="M20.9 41.3802C21.9273 41.3802 22.76 40.5474 22.76 39.5202C22.76 38.4929 21.9273 37.6602 20.9 37.6602C19.8728 37.6602 19.04 38.4929 19.04 39.5202C19.04 40.5474 19.8728 41.3802 20.9 41.3802Z" stroke="#D0ABB4" stroke-width="2" stroke-linecap="round" stroke-linejoin="round"/>
<path d="M29.0299 55.72C30.0572 55.72 30.8899 54.8873 30.8899 53.86C30.8899 52.8328 30.0572 52 29.0299 52C28.0027 52 27.1699 52.8328 27.1699 53.86C27.1699 54.8873 28.0027 55.72 29.0299 55.72Z" stroke="#D0ABB4" stroke-width="2" stroke-linecap="round" stroke-linejoin="round"/>
<path d="M67.9699 23.8997C68.9971 23.8997 69.8299 23.0669 69.8299 22.0397C69.8299 21.0124 68.9971 20.1797 67.9699 20.1797C66.9426 20.1797 66.1099 21.0124 66.1099 22.0397C66.1099 23.0669 66.9426 23.8997 67.9699 23.8997Z" stroke="#D0ABB4" stroke-width="2" stroke-linecap="round" stroke-linejoin="round"/>
<path d="M48.6598 59.4505C49.6871 59.4505 50.5198 58.6177 50.5198 57.5905C50.5198 56.5632 49.6871 55.7305 48.6598 55.7305C47.6326 55.7305 46.7998 56.5632 46.7998 57.5905C46.7998 58.6177 47.6326 59.4505 48.6598 59.4505Z" stroke="#D0ABB4" stroke-width="2" stroke-linecap="round" stroke-linejoin="round"/>
<path d="M27.0102 32.4609C28.1369 32.4609 29.0502 31.5475 29.0502 30.4209C29.0502 29.2942 28.1369 28.3809 27.0102 28.3809C25.8836 28.3809 24.9702 29.2942 24.9702 30.4209C24.9702 31.5475 25.8836 32.4609 27.0102 32.4609Z" stroke="#D0ABB4" stroke-width="2" stroke-linecap="round" stroke-linejoin="round"/>
<path d="M37.2702 27.1907C38.2974 27.1907 39.1302 26.358 39.1302 25.3307C39.1302 24.3035 38.2974 23.4707 37.2702 23.4707C36.2429 23.4707 35.4102 24.3035 35.4102 25.3307C35.4102 26.358 36.2429 27.1907 37.2702 27.1907Z" stroke="#D0ABB4" stroke-width="2" stroke-linecap="round" stroke-linejoin="round"/>
</svg>
