<svg width="100" height="100" viewBox="0 0 100 100" fill="none" xmlns="http://www.w3.org/2000/svg">
<path d="M86.58 17.2305H55.71V49.7305H86.58V17.2305Z" stroke="#D0ABB4" stroke-width="1.5" stroke-linecap="square" stroke-linejoin="round"/>
<path d="M83.25 20.4492H59.02V43.5492H83.25V20.4492Z" stroke="#D0ABB4" stroke-width="1.5" stroke-linecap="square" stroke-linejoin="round"/>
<path d="M70.9902 40.5499V33.9199" stroke="#D0ABB4" stroke-width="1.5" stroke-linejoin="round"/>
<path d="M71.0001 40.5508C71.0001 40.5508 69.9301 35.5508 63.1401 35.5508C65.0001 39.5208 66.0601 40.4508 71.0001 40.5508Z" stroke="#D0ABB4" stroke-width="1.5" stroke-linecap="round" stroke-linejoin="round"/>
<path d="M71 40.5508C71 40.5508 72.06 35.5508 78.85 35.5508C76.9 39.5208 75.87 40.4508 71 40.5508Z" stroke="#D0ABB4" stroke-width="1.5" stroke-linecap="round" stroke-linejoin="round"/>
<path d="M75.2398 30.2998C75.1376 31.3482 74.6489 32.321 73.8688 33.0287C73.0887 33.7365 72.0731 34.1285 71.0198 34.1285C69.9665 34.1285 68.9509 33.7365 68.1708 33.0287C67.3907 32.321 66.902 31.3482 66.7998 30.2998V24.0898C69.1298 24.0898 75.2398 28.1698 75.2398 30.2998Z" stroke="#D0ABB4" stroke-width="1.5" stroke-linejoin="round"/>
<path d="M75.2399 30.7793C75.2399 30.0893 75.2899 24.2793 75.2899 24.2793C75.2899 24.2793 72.0399 25.0793 71.6699 26.2793" stroke="#D0ABB4" stroke-width="1.5" stroke-linejoin="round"/>
<path d="M69.1299 25.0702C69.3199 24.1502 71.1899 22.7402 71.1899 22.7402C71.1899 22.7402 73.2499 24.3202 73.2499 25.3002" stroke="#D0ABB4" stroke-width="1.5" stroke-linejoin="round"/>
<path d="M30.7998 86.0702V70.2402" stroke="#D0ABB4" stroke-width="2" stroke-linejoin="round"/>
<path d="M30.7402 86.0703C30.7402 86.0703 28.2102 74.0703 11.9902 74.0703C16.5602 83.6203 19.0002 85.8503 30.7402 86.0703Z" stroke="#D0ABB4" stroke-width="2" stroke-linecap="round" stroke-linejoin="round"/>
<path d="M30.7402 86.0703C30.7402 86.0703 33.2802 74.0703 49.5002 74.0703C44.9202 83.6203 42.4502 85.8503 30.7402 86.0703Z" stroke="#D0ABB4" stroke-width="2" stroke-linecap="round" stroke-linejoin="round"/>
<path d="M40.94 61.5995C40.94 66.6695 36.43 70.7795 30.87 70.7795C25.31 70.7795 20.79 66.6695 20.79 61.5995V46.7695C26.35 46.7695 40.94 56.5295 40.94 61.5995Z" stroke="#D0ABB4" stroke-width="2" stroke-linejoin="round"/>
<path d="M40.9402 61.6005C40.9402 59.9405 41.0702 47.2305 41.0702 47.2305C41.0702 47.2305 33.3202 49.1405 32.4302 51.9205" stroke="#D0ABB4" stroke-width="2" stroke-linejoin="round"/>
<path d="M26.3501 48.1108C26.8001 45.9208 31.2801 42.5508 31.2801 42.5508C31.2801 42.5508 36.2101 46.3208 36.2101 48.6608" stroke="#D0ABB4" stroke-width="2" stroke-linejoin="round"/>
<path d="M74.5299 54.4102C73.7311 59.0228 71.6618 63.3212 68.5545 66.8225C65.4472 70.3237 61.425 72.889 56.9399 74.2302" stroke="#D0ABB4" stroke-width="2" stroke-linecap="round" stroke-linejoin="round"/>
<path d="M49.7601 25C44.9119 25.0011 40.1675 26.4046 36.099 29.0412C32.0304 31.6779 28.8114 35.4351 26.8301 39.86" stroke="#D0ABB4" stroke-width="2" stroke-linecap="round" stroke-linejoin="round"/>
<path d="M44.3198 20.7891L50.2498 25.0091L45.6998 29.8091" stroke="#D0ABB4" stroke-width="2" stroke-linecap="round" stroke-linejoin="round"/>
<path d="M59.3902 67.8809L56.4102 74.2309L63.1102 76.8109" stroke="#D0ABB4" stroke-width="2" stroke-linecap="round" stroke-linejoin="round"/>
</svg>
