<svg width="56" height="56" viewBox="0 0 56 56" fill="none" xmlns="http://www.w3.org/2000/svg">
<g clip-path="url(#clip0_3571_64646)">
<path d="M27.9395 38.6754C33.869 38.6754 38.6759 33.8686 38.6759 27.939C38.6759 22.0095 33.869 17.2026 27.9395 17.2026C22.01 17.2026 17.2031 22.0095 17.2031 27.939C17.2031 33.8686 22.01 38.6754 27.9395 38.6754Z" stroke="white" stroke-width="2" stroke-miterlimit="10" stroke-linecap="round" stroke-linejoin="round"/>
<path d="M27.9395 10.7364V0.976074" stroke="white" stroke-width="2" stroke-miterlimit="10" stroke-linecap="round" stroke-linejoin="round"/>
<path d="M27.9395 55.0239V38.7974" stroke="white" stroke-width="2" stroke-miterlimit="10" stroke-linecap="round" stroke-linejoin="round"/>
<path d="M10.7369 27.9387H0.976562" stroke="white" stroke-width="2" stroke-miterlimit="10" stroke-linecap="round" stroke-linejoin="round"/>
<path d="M55.024 27.9387H45.2637" stroke="white" stroke-width="2" stroke-miterlimit="10" stroke-linecap="round" stroke-linejoin="round"/>
<path d="M53.6815 31.9649L49.7773 27.9387" stroke="white" stroke-width="2" stroke-miterlimit="10" stroke-linecap="round" stroke-linejoin="round"/>
<path d="M53.6815 24.0347L49.7773 27.9388" stroke="white" stroke-width="2" stroke-miterlimit="10" stroke-linecap="round" stroke-linejoin="round"/>
<path d="M10.7369 27.939H0.976562" stroke="white" stroke-width="2" stroke-miterlimit="10" stroke-linecap="round" stroke-linejoin="round"/>
<path d="M55.0254 27.939H38.7988" stroke="white" stroke-width="2" stroke-miterlimit="10" stroke-linecap="round" stroke-linejoin="round"/>
<path d="M53.6815 31.9651L49.7773 27.939" stroke="white" stroke-width="2" stroke-miterlimit="10" stroke-linecap="round" stroke-linejoin="round"/>
<path d="M53.6815 24.0347L49.7773 27.9388" stroke="white" stroke-width="2" stroke-miterlimit="10" stroke-linecap="round" stroke-linejoin="round"/>
<path d="M47.3377 31.9651L43.4336 27.939" stroke="white" stroke-width="2" stroke-miterlimit="10" stroke-linecap="round" stroke-linejoin="round"/>
<path d="M47.3377 24.0347L43.4336 27.9388" stroke="white" stroke-width="2" stroke-miterlimit="10" stroke-linecap="round" stroke-linejoin="round"/>
<path d="M15.8605 15.8607L8.90625 8.90649" stroke="white" stroke-width="2" stroke-miterlimit="10" stroke-linecap="round" stroke-linejoin="round"/>
<path d="M47.0934 47.0939L35.625 35.6255" stroke="white" stroke-width="2" stroke-miterlimit="10" stroke-linecap="round" stroke-linejoin="round"/>
<path d="M38.7969 44.4096V38.7974" stroke="white" stroke-width="2" stroke-miterlimit="10" stroke-linecap="round" stroke-linejoin="round"/>
<path d="M44.4091 38.7974H38.7969" stroke="white" stroke-width="2" stroke-miterlimit="10" stroke-linecap="round" stroke-linejoin="round"/>
<path d="M15.8605 40.1394L8.90625 47.0937" stroke="white" stroke-width="2" stroke-miterlimit="10" stroke-linecap="round" stroke-linejoin="round"/>
<path d="M47.0929 8.90625L40.1387 15.8605" stroke="white" stroke-width="2" stroke-miterlimit="10" stroke-linecap="round" stroke-linejoin="round"/>
<path d="M49.0458 12.5662H43.4336" stroke="white" stroke-width="2" stroke-miterlimit="10" stroke-linecap="round" stroke-linejoin="round"/>
<path d="M43.4336 6.9541V12.5663" stroke="white" stroke-width="2" stroke-miterlimit="10" stroke-linecap="round" stroke-linejoin="round"/>
<path d="M15.8605 40.1396L8.90625 47.0939" stroke="white" stroke-width="2" stroke-miterlimit="10" stroke-linecap="round" stroke-linejoin="round"/>
<path d="M47.0934 8.90649L35.625 20.3749" stroke="white" stroke-width="2" stroke-miterlimit="10" stroke-linecap="round" stroke-linejoin="round"/>
<path d="M49.0458 12.5667H43.4336" stroke="white" stroke-width="2" stroke-miterlimit="10" stroke-linecap="round" stroke-linejoin="round"/>
<path d="M43.4336 6.9541V12.5663" stroke="white" stroke-width="2" stroke-miterlimit="10" stroke-linecap="round" stroke-linejoin="round"/>
<path d="M44.4091 17.2026H38.7969" stroke="white" stroke-width="2" stroke-miterlimit="10" stroke-linecap="round" stroke-linejoin="round"/>
<path d="M38.7969 11.5903V17.2025" stroke="white" stroke-width="2" stroke-miterlimit="10" stroke-linecap="round" stroke-linejoin="round"/>
<path d="M30.7453 25.4989C31.5539 25.4989 32.2094 24.8434 32.2094 24.0349C32.2094 23.2263 31.5539 22.5708 30.7453 22.5708C29.9367 22.5708 29.2812 23.2263 29.2812 24.0349C29.2812 24.8434 29.9367 25.4989 30.7453 25.4989Z" fill="white"/>
<path d="M30.9885 32.3311C30.3785 32.8191 29.6464 33.0631 29.0364 33.0631C27.5724 33.0631 26.8403 32.0871 26.8403 29.891V28.0609H29.2804V25.9869H26.8403V22.4487H24.6443V25.9869H22.3262V28.0609H24.6443V30.013C24.6443 33.3071 25.8643 35.0152 28.5484 35.0152C29.8904 35.0152 30.8665 34.6492 31.7205 33.9171L30.9885 32.3311Z" fill="white"/>
</g>
<defs>
<clipPath id="clip0_3571_64646">
<rect width="56" height="56" fill="white"/>
</clipPath>
</defs>
</svg>
