<svg width="46" height="56" viewBox="0 0 46 56" fill="none" xmlns="http://www.w3.org/2000/svg">
<g clip-path="url(#clip0_3571_64691)">
<path d="M22.6578 17.6372C23.8164 17.6372 24.975 17.3797 26.7773 16.9935C36.9475 14.1613 45.8302 21.4993 44.1566 33.9866C43.3842 39.9085 40.4233 45.1866 38.2348 48.7912C36.0463 52.5246 32.4417 55.3567 28.3222 54.9705C25.8762 54.7131 24.4601 54.1981 22.6578 54.1981C20.8555 54.1981 19.5681 54.7131 16.9934 54.9705C12.8739 55.3567 9.26929 52.3958 7.08078 48.7912C4.89228 45.1866 1.93136 39.9085 1.15894 33.9866C-0.514618 21.4993 8.36814 14.1613 18.5383 16.9935C20.3406 17.5085 21.4992 17.6372 22.6578 17.6372Z" stroke="#3D1522" stroke-width="2.3" stroke-miterlimit="10" stroke-linecap="round" stroke-linejoin="round"/>
<path d="M6.952 35.0167C5.40717 28.3224 7.98188 23.8167 11.0715 21.6282" stroke="#3D1522" stroke-width="2.3" stroke-miterlimit="10" stroke-linecap="round" stroke-linejoin="round"/>
<path d="M30.3823 1.03027C30.3823 1.03027 22.6582 4.89234 22.6582 15.1912V16.4785" stroke="#3D1522" stroke-width="2.3" stroke-miterlimit="10" stroke-linecap="round" stroke-linejoin="round"/>
<path d="M23.3006 10.1709C23.3006 10.1709 17.765 13.1318 13.388 11.587C9.01094 10.0421 6.95117 4.5065 6.95117 4.5065C6.95117 4.5065 11.9719 1.54558 16.3489 3.09041C20.8546 4.63524 23.3006 10.1709 23.3006 10.1709Z" stroke="#3D1522" stroke-width="2.3" stroke-miterlimit="10" stroke-linecap="round" stroke-linejoin="round"/>
</g>
<defs>
<clipPath id="clip0_3571_64691">
<rect width="45.4437" height="56" fill="white"/>
</clipPath>
</defs>
</svg>
