<svg width="87" height="60" viewBox="0 0 87 60" fill="none" xmlns="http://www.w3.org/2000/svg">
<g clip-path="url(#clip0_3571_64718)">
<path d="M68.6432 0.762695C68.6432 0.762695 57.0754 9.661 53.1348 16.3983" stroke="white" stroke-width="2.3" stroke-miterlimit="10"/>
<path d="M17.541 59.2371C17.541 59.2371 29.1088 50.3388 33.0495 43.6016" stroke="white" stroke-width="2.3" stroke-miterlimit="10"/>
<path d="M85.6765 16.144C74.2358 23.644 64.829 34.322 58.9816 46.6525C57.8375 49.0678 56.8205 51.6101 54.7866 53.3898C52.7527 55.1694 49.5748 55.805 47.5409 54.1525C45.7612 52.6271 45.507 49.9576 46.0155 47.6694C47.0324 42.0762 50.9731 37.5 53.5155 32.4152C56.0578 27.3305 57.8375 20.5932 53.2612 16.3983L38.6426 5.84741" stroke="white" stroke-width="2.3" stroke-miterlimit="10"/>
<path d="M85.677 16.144C82.1177 18.4322 78.8126 20.9746 75.7617 23.8983" stroke="white" stroke-width="2.3" stroke-miterlimit="10"/>
<path d="M82.2452 13.093C79.4486 14.8727 75.8892 17.7964 72.457 20.8473" stroke="white" stroke-width="2.3" stroke-miterlimit="10"/>
<path d="M78.8134 10.0425C76.6523 11.4408 72.8388 14.4916 69.1523 17.9238" stroke="white" stroke-width="2.3" stroke-miterlimit="10"/>
<path d="M75.3796 6.8645C73.9813 7.75433 69.7864 11.0594 65.8457 14.873" stroke="white" stroke-width="2.3" stroke-miterlimit="10"/>
<path d="M71.9478 3.81372C71.1851 4.3222 66.7359 7.7544 62.541 11.8222" stroke="white" stroke-width="2.3" stroke-miterlimit="10"/>
<path d="M68.6429 0.762695C68.6429 0.762695 63.8124 4.44914 59.3633 8.89829" stroke="white" stroke-width="2.3" stroke-miterlimit="10"/>
<path d="M0.507812 43.8559C11.9485 36.3559 21.3553 25.6779 27.2027 13.3474C28.3468 10.9321 29.3637 8.38975 31.3976 6.61009C33.4315 4.83043 36.6095 4.19484 38.6434 5.84738C40.4231 7.3728 40.6773 10.0423 40.1688 12.3304C39.1519 17.9237 35.2112 22.4999 32.6688 27.5847C30.1265 32.6694 28.3468 39.4067 32.9231 43.6016L47.4146 54.1525" stroke="white" stroke-width="2.3" stroke-miterlimit="10"/>
<path d="M0.507812 43.856C4.06714 41.5679 7.37222 39.0255 10.4231 36.1018" stroke="white" stroke-width="2.3" stroke-miterlimit="10"/>
<path d="M3.93945 46.9071C6.73606 45.1274 10.2954 42.2037 13.7276 39.1528" stroke="white" stroke-width="2.3" stroke-miterlimit="10"/>
<path d="M7.37305 50.085C9.53406 48.6867 13.3476 45.6358 17.0341 42.2036" stroke="white" stroke-width="2.3" stroke-miterlimit="10"/>
<path d="M10.6777 53.1357C12.076 52.2458 16.271 48.9408 20.2116 45.1272" stroke="white" stroke-width="2.3" stroke-miterlimit="10"/>
<path d="M14.1094 56.1865C14.8721 55.678 19.3212 52.2458 23.5162 48.178" stroke="white" stroke-width="2.3" stroke-miterlimit="10"/>
<path d="M17.541 59.2376C17.541 59.2376 22.3715 55.5512 26.8207 51.1021" stroke="white" stroke-width="2.3" stroke-miterlimit="10"/>
</g>
<defs>
<clipPath id="clip0_3571_64718">
<rect width="86.1864" height="60" fill="white"/>
</clipPath>
</defs>
</svg>
