<svg width="120" height="120" viewBox="0 0 120 120" fill="none" xmlns="http://www.w3.org/2000/svg">
<path d="M70.4899 108.79H51.9399C51.5147 108.79 51.1699 109.135 51.1699 109.56V112.68C51.1699 113.105 51.5147 113.45 51.9399 113.45H70.4899C70.9152 113.45 71.2599 113.105 71.2599 112.68V109.56C71.2599 109.135 70.9152 108.79 70.4899 108.79Z" stroke="#5F1D33" stroke-width="2" stroke-linejoin="round"/>
<path d="M68.9093 108.79C76.2393 105.44 81.3993 97.4299 81.3993 88.0799C81.3993 78.0799 75.5093 73.9499 67.3993 71.0799C67.1193 70.9799 72.3393 60.2299 75.6093 59.1499H46.8793C51.0193 60.9399 55.7293 70.8199 54.6093 71.2499C46.7093 74.2499 41.0293 78.2499 41.0293 88.0999C41.0293 97.4499 46.1893 105.46 53.5193 108.81" stroke="#5F1D33" stroke-width="2" stroke-linejoin="round"/>
<path d="M43.2793 80.23C46.9293 80.23 46.9293 81.23 50.5793 81.23C54.2293 81.23 54.2293 80.23 57.8893 80.23C61.5493 80.23 61.5393 81.23 65.1893 81.23C68.8393 81.23 68.8393 80.23 72.4893 80.23C76.1393 80.23 76.1393 81.23 79.7993 81.23" stroke="#5F1D33" stroke-width="1.5" stroke-linecap="round" stroke-linejoin="round"/>
<path d="M66.7903 36.5798H58.3203C58.323 32.2593 60.0398 28.1164 63.0939 25.0604C66.148 22.0044 70.2898 20.2851 74.6103 20.2798H90.3303V28.7498H74.6103C72.5354 28.7524 70.5464 29.5785 69.0801 31.0467C67.6139 32.5148 66.7903 34.5049 66.7903 36.5798Z" stroke="#5F1D33" stroke-width="2" stroke-linecap="round" stroke-linejoin="round"/>
<path d="M65.8992 47.73C65.9248 48.21 65.8523 48.6902 65.6861 49.1413C65.52 49.5924 65.2638 50.005 64.933 50.3538C64.6022 50.7026 64.2039 50.9805 63.7623 51.1703C63.3206 51.3602 62.8449 51.4581 62.3642 51.4581C61.8835 51.4581 61.4078 51.3602 60.9662 51.1703C60.5245 50.9805 60.1262 50.7026 59.7954 50.3538C59.4647 50.005 59.2084 49.5924 59.0423 49.1413C58.8762 48.6902 58.8037 48.21 58.8292 47.73C58.8292 45.78 62.3592 40.73 62.3592 40.73C62.3592 40.73 65.8992 45.78 65.8992 47.73Z" stroke="#5F1D33" stroke-width="1.5" stroke-linecap="round" stroke-linejoin="round"/>
<path d="M83.2808 10.77H73.5808C72.4596 10.77 71.5508 11.6789 71.5508 12.8V13.01C71.5508 14.1312 72.4596 15.04 73.5808 15.04H83.2808C84.4019 15.04 85.3108 14.1312 85.3108 13.01V12.8C85.3108 11.6789 84.4019 10.77 83.2808 10.77Z" stroke="#5F1D33" stroke-width="2" stroke-linecap="round" stroke-linejoin="round"/>
<path d="M90.4609 27.8001V21.6001C90.4609 20.5976 90.8592 19.6361 91.5681 18.9272C92.277 18.2183 93.2384 17.8201 94.2409 17.8201H94.7309V31.5801H94.2409C93.2384 31.5801 92.277 31.1818 91.5681 30.4729C90.8592 29.7641 90.4609 28.8026 90.4609 27.8001V27.8001Z" stroke="#5F1D33" stroke-width="2" stroke-linecap="round" stroke-linejoin="round"/>
<path d="M76.7891 15.04V20.28" stroke="#5F1D33" stroke-width="2" stroke-linecap="round" stroke-linejoin="round"/>
<path d="M80.0703 15.04V20.28" stroke="#5F1D33" stroke-width="2" stroke-linecap="round" stroke-linejoin="round"/>
</svg>
