<svg width="120" height="120" viewBox="0 0 120 120" fill="none" xmlns="http://www.w3.org/2000/svg">
<path d="M37.75 41C37.75 41 46.55 32.09 60.49 41C51.29 46.76 47.93 47.3 37.75 41Z" stroke="#5F1D33" stroke-width="1.5" stroke-linecap="round" stroke-linejoin="round"/>
<path d="M62.7002 8C62.7002 8 69.7002 14.93 62.7002 25.9C58.2002 18.63 57.7702 16 62.7002 8Z" stroke="#5F1D33" stroke-width="1.5" stroke-linecap="round" stroke-linejoin="round"/>
<path d="M60.9495 68.79C62.0595 68.79 62.9595 67.8901 62.9595 66.78C62.9595 65.6699 62.0595 64.77 60.9495 64.77C59.8394 64.77 58.9395 65.6699 58.9395 66.78C58.9395 67.8901 59.8394 68.79 60.9495 68.79Z" stroke="#5F1D33" stroke-width="1.5" stroke-linecap="round" stroke-linejoin="round"/>
<path d="M62.8918 102.553C65.9303 98.1809 65.7502 92.7997 62.4894 90.5334C59.2287 88.2671 54.1222 89.974 51.0837 94.3458C48.0452 98.7177 48.2254 104.099 51.4861 106.365C54.7468 108.631 59.8533 106.925 62.8918 102.553Z" stroke="#5F1D33" stroke-width="2" stroke-miterlimit="10"/>
<path d="M56.9994 85.3802L83.1694 28.6602C83.1694 28.6602 77.4994 29.0002 75.3494 31.0002C73.1994 33.0002 59.4894 51.0602 56.9994 65.9302C54.5094 80.8002 55.7094 81.3302 52.8794 87.3602C50.9691 88.6599 49.3148 90.3007 47.9994 92.2002C43.3794 98.8502 43.6594 107.04 48.6194 110.5C53.5794 113.96 61.3594 111.35 65.9794 104.7C70.5994 98.0501 70.3294 89.8602 65.3594 86.4102C64.1359 85.6142 62.747 85.1078 61.2984 84.9293C59.8498 84.7508 58.3795 84.905 56.9994 85.3802V85.3802Z" stroke="#5F1D33" stroke-width="2" stroke-linejoin="round"/>
<path d="M33.2209 77.5078C37.6337 74.5291 39.41 69.4463 37.1883 66.155C34.9666 62.8637 29.5884 62.6103 25.1756 65.589C20.7628 68.5677 18.9866 73.6505 21.2082 76.9418C23.4299 80.2331 28.8082 80.4865 33.2209 77.5078Z" stroke="#5F1D33" stroke-width="2" stroke-miterlimit="10"/>
<path d="M55.9398 72.8002C46.5398 74.0102 45.3998 73.4802 40.2398 75.8002C38.9151 77.6882 37.25 79.3126 35.3298 80.5902C28.6198 85.1302 20.4298 84.7402 17.0498 79.7302C13.6698 74.7202 16.3698 66.9802 23.0498 62.4502C29.7298 57.9202 37.9498 58.3002 41.3298 63.3102C42.1071 64.5484 42.5929 65.947 42.7505 67.4005C42.9082 68.8539 42.7335 70.3241 42.2398 71.7002L57.1498 65.1002" stroke="#5F1D33" stroke-width="2" stroke-linejoin="round"/>
<path d="M88.0505 51.3398L99.3405 46.3398C99.3405 46.3398 99.0005 51.9998 96.9305 54.0998C94.8605 56.1998 77.9305 68.7498 63.3105 71.6998" stroke="#5F1D33" stroke-width="2" stroke-linejoin="round"/>
<path d="M68.7402 59.94L76.3702 56.54" stroke="#5F1D33" stroke-width="2" stroke-linejoin="round"/>
<path d="M40.8105 15.6299L67.2605 42.0699" stroke="#5F1D33" stroke-width="1.5" stroke-linecap="round" stroke-linejoin="round"/>
<path d="M65.2504 45.4101L41.6504 21.8101" stroke="#5F1D33" stroke-width="1.5" stroke-linecap="round" stroke-linejoin="round"/>
<path d="M73.9107 48.73L82.4207 57.24C82.597 57.4148 82.7369 57.6227 82.8324 57.8518C82.9278 58.081 82.977 58.3268 82.977 58.575C82.977 58.8232 82.9278 59.069 82.8324 59.2981C82.7369 59.5272 82.597 59.7352 82.4207 59.91V59.91C82.2459 60.0863 82.038 60.2262 81.8088 60.3216C81.5797 60.4171 81.3339 60.4663 81.0857 60.4663C80.8375 60.4663 80.5917 60.4171 80.3626 60.3216C80.1334 60.2262 79.9255 60.0863 79.7507 59.91L72.2207 52.39" stroke="#5F1D33" stroke-width="1.5" stroke-linecap="round" stroke-linejoin="round"/>
<path d="M76.1193 44.71L86.9393 55.54C87.2871 55.9288 87.4693 56.4381 87.4469 56.9594C87.4244 57.4806 87.1992 57.9724 86.8193 58.33V58.33C86.4618 58.7099 85.9699 58.9351 85.4487 58.9575C84.9275 58.9799 84.4181 58.7978 84.0293 58.45L74.0293 48.45" stroke="#5F1D33" stroke-width="1.5" stroke-linecap="round" stroke-linejoin="round"/>
<path d="M54.4609 17.71L71.9309 35.18" stroke="#5F1D33" stroke-width="1.5" stroke-linecap="round" stroke-linejoin="round"/>
<path d="M69.7096 38.3102L45.8496 14.4502" stroke="#5F1D33" stroke-width="1.5" stroke-linecap="round" stroke-linejoin="round"/>
<path d="M77.5709 40.8198L87.9009 51.1498C88.252 51.5054 88.4489 51.9851 88.4489 52.4848C88.4489 52.9846 88.252 53.4642 87.9009 53.8198V53.8198C87.5436 54.1716 87.0623 54.3688 86.5609 54.3688C86.0595 54.3688 85.5782 54.1716 85.2209 53.8198L75.8809 44.4698" stroke="#5F1D33" stroke-width="1.5" stroke-linecap="round" stroke-linejoin="round"/>
</svg>
