<svg width="120" height="120" viewBox="0 0 120 120" fill="none" xmlns="http://www.w3.org/2000/svg">
<path d="M50.6602 71.3V52.98" stroke="#5F1D33" stroke-width="1.5" stroke-linejoin="round"/>
<path d="M42.8594 66.92C42.8594 66.92 36.5994 59.92 25.8594 66.12C32.5194 70.71 34.9994 71.24 42.8594 66.92Z" stroke="#5F1D33" stroke-width="1.5" stroke-linecap="round" stroke-linejoin="round"/>
<path d="M50.6792 68C50.6792 68 59.6792 65.41 58.8392 53C51.7892 57 50.2192 59 50.6792 68Z" stroke="#5F1D33" stroke-width="1.5" stroke-linecap="round" stroke-linejoin="round"/>
<path d="M58.4102 66.5099C58.4102 66.5099 65.0102 59.8299 75.4102 66.5099C68.5602 70.7999 66.0502 71.2099 58.4102 66.5099Z" stroke="#5F1D33" stroke-width="1.5" stroke-linecap="round" stroke-linejoin="round"/>
<path d="M58.42 46.36C58.42 50.25 54.96 53.36 50.7 53.36C46.44 53.36 43 50.25 43 46.36V35C47.25 35 58.42 42.48 58.42 46.36Z" stroke="#5F1D33" stroke-width="1.5" stroke-linejoin="round"/>
<path d="M58.4204 47.2499C58.4204 45.9799 58.5204 35.3599 58.5204 35.3599C58.5204 35.3599 52.5804 36.8199 51.9004 38.9999" stroke="#5F1D33" stroke-width="1.5" stroke-linejoin="round"/>
<path d="M47.5898 36.0002C47.9398 34.3202 51.3698 31.7402 51.3698 31.7402C51.3698 31.7402 55.1398 34.6202 55.1398 36.4202" stroke="#5F1D33" stroke-width="1.5" stroke-linejoin="round"/>
<path d="M74.5404 59.4798C71.8004 62.2298 67.1304 61.9998 64.1204 58.9998C61.1104 55.9998 60.8904 51.3198 63.6304 48.5698L71.6304 40.5698C74.6704 43.5598 77.2904 56.7398 74.5404 59.4798Z" stroke="#5F1D33" stroke-width="1.5" stroke-linejoin="round"/>
<path d="M73.9199 60.11C74.7899 59.18 82.3999 51.77 82.3999 51.77C82.3999 51.77 77.1599 48.61 75.1699 49.64" stroke="#5F1D33" stroke-width="1.5" stroke-linejoin="round"/>
<path d="M74.2598 44.4598C75.6898 43.5198 79.9398 44.1198 79.9398 44.1198C79.9398 44.1198 80.5598 48.8298 79.2898 50.1198" stroke="#5F1D33" stroke-width="1.5" stroke-linejoin="round"/>
<path d="M27.0808 59.4798C29.8308 62.2298 34.4908 61.9998 37.5108 58.9998C40.5308 55.9998 40.7408 51.3198 37.9908 48.5698L29.9908 40.5698C27.0008 43.5598 24.3408 56.7398 27.0808 59.4798Z" stroke="#5F1D33" stroke-width="1.5" stroke-linejoin="round"/>
<path d="M27.7105 60.11C26.8405 59.18 19.2305 51.77 19.2305 51.77C19.2305 51.77 24.4605 48.61 26.4505 49.64" stroke="#5F1D33" stroke-width="1.5" stroke-linejoin="round"/>
<path d="M27.3695 44.4598C25.9395 43.5198 21.6895 44.1198 21.6895 44.1198C21.6895 44.1198 21.0595 48.8298 22.3295 50.1198" stroke="#5F1D33" stroke-width="1.5" stroke-linejoin="round"/>
<path d="M57.1795 107.59H44.0395C43.6143 107.59 43.2695 107.935 43.2695 108.36V110.23C43.2695 110.655 43.6143 111 44.0395 111H57.1795C57.6048 111 57.9495 110.655 57.9495 110.23V108.36C57.9495 107.935 57.6048 107.59 57.1795 107.59Z" stroke="#5F1D33" stroke-width="2" stroke-linejoin="round"/>
<path d="M56.2301 107.59C61.5901 105.14 65.3601 99.2898 65.3601 92.4598C65.3601 85.1498 61.0501 82.1298 55.1001 80.0198C54.8901 79.9498 58.7101 72.0898 61.1001 71.2998H40.1001C43.1001 72.6098 46.5701 79.8298 45.7601 80.1498C39.9801 82.3598 35.8301 85.2898 35.8301 92.4598C35.8301 99.2898 39.6001 105.14 44.9601 107.59" stroke="#5F1D33" stroke-width="2" stroke-linejoin="round"/>
<path d="M44.6698 71.3C44.5098 67.3 40.1098 60.55 37.5098 59" stroke="#5F1D33" stroke-width="1.5" stroke-linejoin="round"/>
<path d="M56.4707 71.3C56.6307 67.3 61.0307 60.55 63.6307 59" stroke="#5F1D33" stroke-width="1.5" stroke-linejoin="round"/>
<path d="M50.5406 68C50.5406 68 41.5406 65.41 42.3906 53C49.4306 57 51.0006 59 50.5406 68Z" stroke="#5F1D33" stroke-width="1.5" stroke-linecap="round" stroke-linejoin="round"/>
<path d="M37.5098 86.5801C40.1698 86.5801 40.1698 87.5801 42.8398 87.5801C45.5098 87.5801 45.5098 86.5801 48.1698 86.5801C50.8298 86.5801 50.8398 87.5801 53.5098 87.5801C56.1798 87.5801 56.1798 86.5801 58.8498 86.5801C61.5198 86.5801 61.5198 87.5801 64.1898 87.5801" stroke="#5F1D33" stroke-width="1.5" stroke-linecap="round" stroke-linejoin="round"/>
<path d="M91.6599 34.84H79.2299C78.5977 34.84 77.9913 34.5896 77.5434 34.1436C77.0955 33.6975 76.8425 33.0922 76.8398 32.46V14.17C76.8425 13.5379 77.0955 12.9326 77.5434 12.4865C77.9913 12.0405 78.5977 11.79 79.2299 11.79H99.8598C100.491 11.79 101.096 12.0408 101.543 12.4871C101.989 12.9335 102.24 13.5388 102.24 14.17V24.09" stroke="#5F1D33" stroke-width="2" stroke-linecap="round" stroke-linejoin="round"/>
<path d="M99.56 37.3202C102.355 37.3202 104.62 35.0548 104.62 32.2602C104.62 29.4656 102.355 27.2002 99.56 27.2002C96.7654 27.2002 94.5 29.4656 94.5 32.2602C94.5 35.0548 96.7654 37.3202 99.56 37.3202Z" stroke="#5F1D33" stroke-width="2" stroke-linecap="round" stroke-linejoin="round"/>
<path d="M83.19 20.5201C83.8472 20.5201 84.38 19.9874 84.38 19.3301C84.38 18.6729 83.8472 18.1401 83.19 18.1401C82.5328 18.1401 82 18.6729 82 19.3301C82 19.9874 82.5328 20.5201 83.19 20.5201Z" fill="#5F1D33"/>
<path d="M89.5396 20.5201C90.1968 20.5201 90.7296 19.9874 90.7296 19.3301C90.7296 18.6729 90.1968 18.1401 89.5396 18.1401C88.8824 18.1401 88.3496 18.6729 88.3496 19.3301C88.3496 19.9874 88.8824 20.5201 89.5396 20.5201Z" fill="#5F1D33"/>
<path d="M95.8892 20.5201C96.5464 20.5201 97.0792 19.9874 97.0792 19.3301C97.0792 18.6729 96.5464 18.1401 95.8892 18.1401C95.232 18.1401 94.6992 18.6729 94.6992 19.3301C94.6992 19.9874 95.232 20.5201 95.8892 20.5201Z" fill="#5F1D33"/>
<path d="M83.19 25.2799C83.8472 25.2799 84.38 24.7471 84.38 24.0899C84.38 23.4327 83.8472 22.8999 83.19 22.8999C82.5328 22.8999 82 23.4327 82 24.0899C82 24.7471 82.5328 25.2799 83.19 25.2799Z" fill="#5F1D33"/>
<path d="M89.5396 25.2799C90.1968 25.2799 90.7296 24.7471 90.7296 24.0899C90.7296 23.4327 90.1968 22.8999 89.5396 22.8999C88.8824 22.8999 88.3496 23.4327 88.3496 24.0899C88.3496 24.7471 88.8824 25.2799 89.5396 25.2799Z" fill="#5F1D33"/>
<path d="M95.8892 25.2799C96.5464 25.2799 97.0792 24.7471 97.0792 24.0899C97.0792 23.4327 96.5464 22.8999 95.8892 22.8999C95.232 22.8999 94.6992 23.4327 94.6992 24.0899C94.6992 24.7471 95.232 25.2799 95.8892 25.2799Z" fill="#5F1D33"/>
<path d="M83.19 30.0499C83.8472 30.0499 84.38 29.5171 84.38 28.8599C84.38 28.2027 83.8472 27.6699 83.19 27.6699C82.5328 27.6699 82 28.2027 82 28.8599C82 29.5171 82.5328 30.0499 83.19 30.0499Z" fill="#5F1D33"/>
<path d="M89.5396 30.0499C90.1968 30.0499 90.7296 29.5171 90.7296 28.8599C90.7296 28.2027 90.1968 27.6699 89.5396 27.6699C88.8824 27.6699 88.3496 28.2027 88.3496 28.8599C88.3496 29.5171 88.8824 30.0499 89.5396 30.0499Z" fill="#5F1D33"/>
<path d="M83.9902 15.1V8.75" stroke="#5F1D33" stroke-width="2" stroke-linecap="round" stroke-linejoin="round"/>
<path d="M95.0996 15.1V8.75" stroke="#5F1D33" stroke-width="2" stroke-linecap="round" stroke-linejoin="round"/>
<path d="M99.5508 29.7002V32.8702H101.761" stroke="#5F1D33" stroke-width="1.5" stroke-linecap="round" stroke-linejoin="round"/>
</svg>
