<svg width="120" height="120" viewBox="0 0 120 120" fill="none" xmlns="http://www.w3.org/2000/svg">
<path d="M73.4398 44.0001C73.4398 44.0001 75.6798 36.1501 66.1398 31.1001C65.8598 38.1101 66.6198 40.1801 73.4398 44.0001Z" stroke="#5F1D33" stroke-width="1.5" stroke-linecap="round" stroke-linejoin="round"/>
<path d="M73.4492 43.64C73.4492 43.64 79.6992 38.39 88.1992 45.05C81.8792 48.17 79.6692 48.32 73.4492 43.64Z" stroke="#5F1D33" stroke-width="1.5" stroke-linecap="round" stroke-linejoin="round"/>
<path d="M87.0506 32.7302C85.4706 35.7302 81.5406 36.7302 78.2706 35.0002C76.7335 34.272 75.5469 32.9652 74.9698 31.3652C74.3928 29.7652 74.4721 28.0019 75.1906 26.4602L79.8006 17.7402C83.0806 19.4702 88.6306 29.7502 87.0506 32.7302Z" stroke="#5F1D33" stroke-width="1.5" stroke-linejoin="round"/>
<path d="M87.0508 32.7302C87.5308 31.7302 91.6008 24.3202 91.6008 24.3202C91.6008 24.3202 86.4408 23.0302 85.0508 24.3902" stroke="#5F1D33" stroke-width="1.5" stroke-linejoin="round"/>
<path d="M82.6602 20.26C83.6602 19.11 87.2902 18.52 87.2902 18.52C87.2902 18.52 89.0202 22.27 88.2902 23.65" stroke="#5F1D33" stroke-width="1.5" stroke-linejoin="round"/>
<path d="M78.27 35C74.0261 41.4053 71.5208 48.8041 71 56.47" stroke="#5F1D33" stroke-width="1.5" stroke-linecap="round" stroke-linejoin="round"/>
<path d="M79.7304 51.1502C90.268 51.1502 98.8104 42.6078 98.8104 32.0702C98.8104 21.5326 90.268 12.9902 79.7304 12.9902C69.1928 12.9902 60.6504 21.5326 60.6504 32.0702C60.6504 42.6078 69.1928 51.1502 79.7304 51.1502Z" stroke="#5F1D33" stroke-width="2" stroke-linecap="round" stroke-linejoin="round"/>
<path d="M66.2402 18.5801L93.2202 45.5601" stroke="#5F1D33" stroke-width="2" stroke-linecap="round" stroke-linejoin="round"/>
<path d="M58.7395 89.8901H54.5195" stroke="#5F1D33" stroke-width="2" stroke-linecap="round" stroke-linejoin="round"/>
<path d="M79.2399 89.8901H75.6699" stroke="#5F1D33" stroke-width="2" stroke-linecap="round" stroke-linejoin="round"/>
<path d="M38.2207 92.9502V110.35H79.9407V90.9302" stroke="#5F1D33" stroke-width="2" stroke-linecap="round" stroke-linejoin="round"/>
<path d="M42.3505 89.8901H40.0605" stroke="#5F1D33" stroke-width="2" stroke-linecap="round" stroke-linejoin="round"/>
<path d="M39.0898 91.7298L42.1398 98.2198H76.0198L79.7298 90.3198" stroke="#5F1D33" stroke-width="2" stroke-linecap="round" stroke-linejoin="round"/>
<path d="M62.02 98.2202H56V110.35H62.02V98.2202Z" stroke="#5F1D33" stroke-width="1.5" stroke-linecap="round" stroke-linejoin="round"/>
<path d="M36.6105 93.3301L34.3105 98.2201" stroke="#5F1D33" stroke-width="2" stroke-linecap="round" stroke-linejoin="round"/>
<path d="M80.1406 90.3198L83.8606 98.2198" stroke="#5F1D33" stroke-width="2" stroke-linecap="round" stroke-linejoin="round"/>
<path d="M39.9991 83.0001C42.0991 81.0001 42.5591 76.0001 40.5491 74.3701C37.6091 75.3701 36.6391 79.9401 37.7691 82.5301" stroke="#5F1D33" stroke-width="1.5" stroke-linecap="round" stroke-linejoin="round"/>
<path d="M37.3308 79.8901C35.7408 78.1001 33.2008 76.8901 31.4808 77.5001C31.0408 79.6101 32.6108 81.7801 34.5608 83.0001" stroke="#5F1D33" stroke-width="1.5" stroke-linecap="round" stroke-linejoin="round"/>
<path d="M37.3594 83.0599C34.5594 82.2599 30.0294 84.3499 29.6094 86.9099C31.9094 88.9699 36.3794 87.5099 38.0694 85.2399" stroke="#5F1D33" stroke-width="1.5" stroke-linecap="round" stroke-linejoin="round"/>
<path d="M36.0005 87C35.2605 89.27 35.4505 92.08 36.8705 93.24C38.9405 92.56 40.0305 90.07 40.1005 87.75" stroke="#5F1D33" stroke-width="1.5" stroke-linecap="round" stroke-linejoin="round"/>
<path d="M38.7109 85.3599C39.4109 88.1899 43.4909 91.0699 45.9209 90.1499C46.5409 87.1499 43.1109 84.0299 40.3109 83.6699" stroke="#5F1D33" stroke-width="1.5" stroke-linecap="round" stroke-linejoin="round"/>
<path d="M42.7802 84.6102C45.1202 84.1302 47.4902 82.5502 47.7802 80.7302C46.1602 79.2802 43.4502 79.5802 41.4102 80.7302" stroke="#5F1D33" stroke-width="1.5" stroke-linecap="round" stroke-linejoin="round"/>
<path d="M38.7004 85.37C39.5564 85.37 40.2504 84.6761 40.2504 83.82C40.2504 82.964 39.5564 82.27 38.7004 82.27C37.8443 82.27 37.1504 82.964 37.1504 83.82C37.1504 84.6761 37.8443 85.37 38.7004 85.37Z" stroke="#5F1D33" stroke-width="1.5" stroke-linecap="round" stroke-linejoin="round"/>
<path d="M74.47 72.16C76.57 70.16 77.02 65.16 75.01 63.52C72.08 64.52 71.11 69.09 72.23 71.69" stroke="#5F1D33" stroke-width="1.5" stroke-linecap="round" stroke-linejoin="round"/>
<path d="M71.7799 69.0002C70.1899 67.2102 67.6499 65.9502 65.9199 66.6002C65.4799 68.7102 67.0599 70.8802 69.0099 72.1102" stroke="#5F1D33" stroke-width="1.5" stroke-linecap="round" stroke-linejoin="round"/>
<path d="M71.8006 72.18C69.0106 71.38 64.4805 73.46 64.0605 76.03C66.3505 78.03 70.8306 76.63 72.5106 74.35" stroke="#5F1D33" stroke-width="1.5" stroke-linecap="round" stroke-linejoin="round"/>
<path d="M72.4297 81.7199C73.0921 81.0965 73.6188 80.3431 73.9767 79.5069C74.3346 78.6706 74.516 77.7695 74.5097 76.8599" stroke="#5F1D33" stroke-width="1.5" stroke-linecap="round" stroke-linejoin="round"/>
<path d="M70.4094 76.1201C69.7873 77.8517 69.8373 79.7536 70.5494 81.4501" stroke="#5F1D33" stroke-width="1.5" stroke-linecap="round" stroke-linejoin="round"/>
<path d="M79.63 76C79.08 75.1552 78.3636 74.4313 77.5246 73.8725C76.6856 73.3138 75.7415 72.9318 74.75 72.75" stroke="#5F1D33" stroke-width="1.5" stroke-linecap="round" stroke-linejoin="round"/>
<path d="M73.1602 74.48C73.7915 76.3372 75.1326 77.8688 76.8902 78.74" stroke="#5F1D33" stroke-width="1.5" stroke-linecap="round" stroke-linejoin="round"/>
<path d="M77.2194 73.72C79.5694 73.24 81.9394 71.72 82.2194 69.85C80.5994 68.4 77.8994 68.69 75.8594 69.79" stroke="#5F1D33" stroke-width="1.5" stroke-linecap="round" stroke-linejoin="round"/>
<path d="M73.1398 74.4901C73.9959 74.4901 74.6898 73.7962 74.6898 72.9401C74.6898 72.0841 73.9959 71.3901 73.1398 71.3901C72.2838 71.3901 71.5898 72.0841 71.5898 72.9401C71.5898 73.7962 72.2838 74.4901 73.1398 74.4901Z" stroke="#5F1D33" stroke-width="1.5" stroke-linecap="round" stroke-linejoin="round"/>
<path d="M55.3208 87.7202C54.4308 90.1702 52.0608 93.5102 45.8008 94.7902C47.1008 89.5502 48.1708 87.4402 52.3308 85.9702" stroke="#5F1D33" stroke-width="1.5" stroke-linecap="round" stroke-linejoin="round"/>
<path d="M61.79 84.8501C63.63 86.6501 65.47 89.8501 64.99 95.2001C60.72 92.6701 58.92 91.0901 58.5 87.4301" stroke="#5F1D33" stroke-width="1.5" stroke-linecap="round" stroke-linejoin="round"/>
<path d="M52.3406 77.2701C50.0282 75.7898 48.216 73.6464 47.1406 71.1201C52.6106 71.1201 54.9006 71.7001 57.3506 75.5201" stroke="#5F1D33" stroke-width="1.5" stroke-linecap="round" stroke-linejoin="round"/>
<path d="M62 78.3901C65.31 78.8401 66.84 79.7501 68.49 82.9901" stroke="#5F1D33" stroke-width="1.5" stroke-linecap="round" stroke-linejoin="round"/>
<path d="M66.1492 83.8701C64.8835 83.5191 63.7073 82.902 62.6992 82.0601" stroke="#5F1D33" stroke-width="1.5" stroke-linecap="round" stroke-linejoin="round"/>
<path d="M44.7402 84C46.9302 84 48.3302 84.8 50.2802 86.94" stroke="#5F1D33" stroke-width="1.5" stroke-linecap="round" stroke-linejoin="round"/>
<path d="M50.7695 83.3799C49.6135 82.4103 48.6531 81.2292 47.9395 79.8999" stroke="#5F1D33" stroke-width="1.5" stroke-linecap="round" stroke-linejoin="round"/>
<path d="M53.6895 72.1199C53.6895 72.0099 53.6895 71.8999 53.6895 71.7899V62.4399C57.1995 62.4399 66.3995 68.5899 66.3995 71.7899C66.3995 71.7899 66.3995 72.4399 66.3995 73.0599" stroke="#5F1D33" stroke-width="1.5" stroke-linejoin="round"/>
<path d="M64.3593 76.27C63.4583 76.9518 62.3981 77.3924 61.2793 77.55" stroke="#5F1D33" stroke-width="1.5" stroke-linejoin="round"/>
<path d="M66.4502 66.4102C66.4502 65.4102 66.4502 62.7202 66.4502 62.7202C66.4502 62.7202 61.5502 63.9302 60.9902 65.7202" stroke="#5F1D33" stroke-width="1.5" stroke-linejoin="round"/>
<path d="M57.4707 63.2099C57.7607 61.8199 60.5807 59.6899 60.5807 59.6899C60.5807 59.6899 63.6907 62.0699 63.6907 63.5499" stroke="#5F1D33" stroke-width="1.5" stroke-linejoin="round"/>
<path d="M74.6602 83.0598C74.7076 81.6953 75.2683 80.3989 76.2302 79.4298L82.8502 72.8198C85.3302 75.2998 87.4902 86.1598 85.2302 88.4298C84.0331 89.5098 82.4565 90.071 80.8463 89.9904C79.236 89.9098 77.7234 89.194 76.6402 87.9998C76.5092 87.8773 76.3856 87.7471 76.2701 87.6098" stroke="#5F1D33" stroke-width="1.5" stroke-linejoin="round"/>
<path d="M84.7109 88.9399C85.4309 88.1799 91.7109 82.0699 91.7109 82.0699C91.7109 82.0699 87.4009 79.4599 85.7109 80.3099" stroke="#5F1D33" stroke-width="1.5" stroke-linejoin="round"/>
<path d="M85 76.0498C86.18 75.2698 89.68 75.7598 89.68 75.7598C89.68 75.7598 90.2 79.6398 89.15 80.6898" stroke="#5F1D33" stroke-width="1.5" stroke-linejoin="round"/>
<path d="M50.7407 71.2799L47.4107 63.6299C44.8007 64.7599 40.4107 71.0699 39.4707 74.9999" stroke="#5F1D33" stroke-width="1.5" stroke-linejoin="round"/>
<path d="M46.9297 80.16C48.6832 79.3904 50.1025 78.0172 50.9297 76.29" stroke="#5F1D33" stroke-width="1.5" stroke-linejoin="round"/>
<path d="M38.7598 75.6902C38.3798 74.6902 35.7598 68.9902 35.7598 68.9902C35.7598 68.9902 40.7598 68.1402 41.9398 69.5302" stroke="#5F1D33" stroke-width="1.5" stroke-linejoin="round"/>
<path d="M44.2303 65.8398C43.4203 64.6898 39.9803 63.8398 39.9803 63.8398C39.9803 63.8398 38.0803 67.2598 38.6703 68.6198" stroke="#5F1D33" stroke-width="1.5" stroke-linejoin="round"/>
<path d="M72.5707 81.76C71.6912 81.6709 70.8046 81.8342 70.0147 82.231C69.2248 82.6277 68.5643 83.2414 68.1107 84C67.1107 86.15 67.4707 89.25 70.3807 89.87C70.8369 89.982 71.313 89.9853 71.7707 89.8797C72.2284 89.774 72.6549 89.5623 73.0158 89.2617C73.3767 88.9611 73.662 88.5799 73.8487 88.1489C74.0354 87.7178 74.1183 87.249 74.0907 86.78C74.0136 86.4032 73.8198 86.0602 73.5367 85.7998C73.2536 85.5393 72.8957 85.3747 72.5137 85.3293C72.1317 85.284 71.7452 85.3601 71.4089 85.5469C71.0727 85.7337 70.8039 86.0217 70.6407 86.37" stroke="#5F1D33" stroke-width="1.5" stroke-miterlimit="10" stroke-linecap="round"/>
<path d="M70.74 92.4302C73.772 92.4302 76.23 89.9722 76.23 86.9402C76.23 83.9082 73.772 81.4502 70.74 81.4502C67.708 81.4502 65.25 83.9082 65.25 86.9402C65.25 89.9722 67.708 92.4302 70.74 92.4302Z" stroke="#5F1D33" stroke-width="1.5" stroke-miterlimit="10" stroke-linecap="round"/>
<path d="M58.6398 75.8699C57.6584 75.7584 56.6655 75.9309 55.7792 76.3669C54.8929 76.803 54.1504 77.4843 53.6398 78.3299C52.4698 80.7199 52.9298 84.1499 56.1598 84.8499C56.6676 84.9795 57.1989 84.9866 57.7099 84.8707C58.221 84.7548 58.6972 84.5193 59.0995 84.1834C59.5017 83.8476 59.8185 83.421 60.0237 82.9388C60.2289 82.4567 60.3167 81.9327 60.2798 81.4099C60.1928 80.9972 59.9776 80.6226 59.6648 80.3395C59.3521 80.0565 58.9578 79.8796 58.5385 79.8341C58.1192 79.7887 57.6962 79.8769 57.33 80.0863C56.9639 80.2957 56.6733 80.6155 56.4998 80.9999" stroke="#5F1D33" stroke-width="1.5" stroke-miterlimit="10" stroke-linecap="round"/>
<path d="M56.6098 87.72C59.9787 87.72 62.7098 84.989 62.7098 81.62C62.7098 78.2511 59.9787 75.52 56.6098 75.52C53.2408 75.52 50.5098 78.2511 50.5098 81.62C50.5098 84.989 53.2408 87.72 56.6098 87.72Z" stroke="#5F1D33" stroke-width="1.5" stroke-miterlimit="10" stroke-linecap="round"/>
</svg>
