<svg width="120" height="120" viewBox="0 0 120 120" fill="none" xmlns="http://www.w3.org/2000/svg">
<path d="M85.7893 11.4302L74.7793 22.4502L90.7893 41.7002L105.049 27.4402L85.7893 11.4302Z" stroke="#5F1D33" stroke-width="2" stroke-linecap="round" stroke-linejoin="round"/>
<path d="M86.3294 36.34L70.1094 34.98V29.36L79.8494 28.54" stroke="#5F1D33" stroke-width="2" stroke-linecap="round" stroke-linejoin="round"/>
<path d="M64.1699 39.63V24.71L70.1099 29.5V34.84L64.1699 39.63Z" stroke="#5F1D33" stroke-width="2" stroke-linecap="round" stroke-linejoin="round"/>
<path d="M101.14 24.1902C101.934 22.9881 102.466 21.6319 102.7 20.2103C102.935 18.7887 102.866 17.3336 102.5 15.9402C101.37 10.9402 97.5 7.65018 93.76 8.49018C91.33 9.00018 89.6 11.2502 89 14.1002" stroke="#5F1D33" stroke-width="2" stroke-linecap="round" stroke-linejoin="round"/>
<path d="M64.0004 49.7302C64.0004 50.3402 63.7581 50.9252 63.3267 51.3565C62.8954 51.7879 62.3104 52.0302 61.7004 52.0302C61.0904 52.0302 60.5054 51.7879 60.074 51.3565C59.6427 50.9252 59.4004 50.3402 59.4004 49.7302C59.4004 48.4602 61.7004 45.1802 61.7004 45.1802C61.7004 45.1802 64.0004 48.4602 64.0004 49.7302Z" stroke="#5F1D33" stroke-width="1.5" stroke-linecap="round" stroke-linejoin="round"/>
<path d="M60.0004 42.1499C60.0004 42.7599 59.7581 43.3449 59.3267 43.7762C58.8954 44.2075 58.3104 44.4499 57.7004 44.4499C57.0904 44.4499 56.5054 44.2075 56.074 43.7762C55.6427 43.3449 55.4004 42.7599 55.4004 42.1499C55.4004 40.8799 57.7004 37.6099 57.7004 37.6099C57.7004 37.6099 60.0004 40.8799 60.0004 42.1499Z" stroke="#5F1D33" stroke-width="1.5" stroke-linecap="round" stroke-linejoin="round"/>
<path d="M56.0004 49.8701C56.0004 50.4801 55.7581 51.0651 55.3267 51.4964C54.8954 51.9278 54.3104 52.1701 53.7004 52.1701C53.0904 52.1701 52.5054 51.9278 52.074 51.4964C51.6427 51.0651 51.4004 50.4801 51.4004 49.8701C51.4004 48.6001 53.7004 45.3301 53.7004 45.3301C53.7004 45.3301 56.0004 48.6001 56.0004 49.8701Z" stroke="#5F1D33" stroke-width="1.5" stroke-linecap="round" stroke-linejoin="round"/>
<path d="M57.5598 89.5H53.3398" stroke="#5F1D33" stroke-width="2" stroke-linecap="round" stroke-linejoin="round"/>
<path d="M78.0505 89.5H74.4805" stroke="#5F1D33" stroke-width="2" stroke-linecap="round" stroke-linejoin="round"/>
<path d="M37.0391 92.5498V109.96H78.7491V90.5298" stroke="#5F1D33" stroke-width="2" stroke-linecap="round" stroke-linejoin="round"/>
<path d="M41.1709 89.5H38.8809" stroke="#5F1D33" stroke-width="2" stroke-linecap="round" stroke-linejoin="round"/>
<path d="M37.9102 91.3399L40.9602 97.8299H74.8302L78.5502 89.9199" stroke="#5F1D33" stroke-width="2" stroke-linecap="round" stroke-linejoin="round"/>
<path d="M60.8403 97.8301H54.8203V109.96H60.8403V97.8301Z" stroke="#5F1D33" stroke-width="1.5" stroke-linecap="round" stroke-linejoin="round"/>
<path d="M35.4291 92.9302L33.1191 97.8302" stroke="#5F1D33" stroke-width="2" stroke-linecap="round" stroke-linejoin="round"/>
<path d="M78.9609 89.9199L82.6709 97.8299" stroke="#5F1D33" stroke-width="2" stroke-linecap="round" stroke-linejoin="round"/>
<path d="M38.8392 82.6398C40.9392 80.6398 41.3892 75.6398 39.3792 74.0098C36.4492 75.0098 35.4792 79.5798 36.6092 82.1698" stroke="#5F1D33" stroke-width="1.5" stroke-linecap="round" stroke-linejoin="round"/>
<path d="M36.1499 79.4999C34.5599 77.6999 32.0199 76.4999 30.2999 77.0999C29.8499 79.2099 31.4299 81.3799 33.3799 82.6099" stroke="#5F1D33" stroke-width="1.5" stroke-linecap="round" stroke-linejoin="round"/>
<path d="M36.1797 82.6701C33.3797 81.8601 28.8497 83.9501 28.4297 86.5201C30.7297 88.5201 35.1997 87.1201 36.8797 84.8401" stroke="#5F1D33" stroke-width="1.5" stroke-linecap="round" stroke-linejoin="round"/>
<path d="M34.7798 86.6099C34.0398 88.8699 34.2298 91.6799 35.6498 92.8399C37.7098 92.1599 38.8098 89.6699 38.8798 87.3499" stroke="#5F1D33" stroke-width="1.5" stroke-linecap="round" stroke-linejoin="round"/>
<path d="M37.5293 84.9998C38.2293 87.8198 42.3093 90.6998 44.7393 89.7798C45.3593 86.7798 41.9193 83.6698 39.1293 83.2998" stroke="#5F1D33" stroke-width="1.5" stroke-linecap="round" stroke-linejoin="round"/>
<path d="M41.6002 84.2102C43.9402 83.7302 46.3102 82.1502 46.6002 80.3402C44.9802 78.8902 42.2802 79.1802 40.2402 80.2802" stroke="#5F1D33" stroke-width="1.5" stroke-linecap="round" stroke-linejoin="round"/>
<path d="M37.5207 84.9799C38.3767 84.9799 39.0707 84.2859 39.0707 83.4299C39.0707 82.5738 38.3767 81.8799 37.5207 81.8799C36.6647 81.8799 35.9707 82.5738 35.9707 83.4299C35.9707 84.2859 36.6647 84.9799 37.5207 84.9799Z" stroke="#5F1D33" stroke-width="1.5" stroke-linecap="round" stroke-linejoin="round"/>
<path d="M73.2907 71.7599C75.3807 69.7599 75.8407 64.7599 73.8307 63.1299C70.9007 64.1299 69.9207 68.6999 71.0507 71.2899" stroke="#5F1D33" stroke-width="1.5" stroke-linecap="round" stroke-linejoin="round"/>
<path d="M70.6002 68.6098C69.0102 66.8198 66.4602 65.6098 64.7402 66.2198C64.3002 68.3298 65.8802 70.4998 67.8302 71.7298" stroke="#5F1D33" stroke-width="1.5" stroke-linecap="round" stroke-linejoin="round"/>
<path d="M70.6191 71.7801C67.8191 70.9801 63.2891 73.0701 62.8691 75.6301C65.1691 77.6901 69.6491 76.2301 71.3291 73.9601" stroke="#5F1D33" stroke-width="1.5" stroke-linecap="round" stroke-linejoin="round"/>
<path d="M71.25 81.3302C71.911 80.7057 72.4367 79.9521 72.7945 79.1161C73.1523 78.2801 73.3346 77.3796 73.33 76.4702" stroke="#5F1D33" stroke-width="1.5" stroke-linecap="round" stroke-linejoin="round"/>
<path d="M69.2293 75.73C68.6078 77.4582 68.6578 79.3568 69.3693 81.05" stroke="#5F1D33" stroke-width="1.5" stroke-linecap="round" stroke-linejoin="round"/>
<path d="M78.4503 75.6501C77.8991 74.8054 77.1826 74.0811 76.3439 73.5208C75.5052 72.9605 74.5617 72.5759 73.5703 72.3901" stroke="#5F1D33" stroke-width="1.5" stroke-linecap="round" stroke-linejoin="round"/>
<path d="M72 74.0801C72.6391 75.9384 73.9821 77.4717 75.74 78.3501" stroke="#5F1D33" stroke-width="1.5" stroke-linecap="round" stroke-linejoin="round"/>
<path d="M76.0009 73.3299C78.3509 72.8499 80.7109 71.2699 81.0009 69.4499C79.3809 67.9999 76.6809 68.2999 74.6309 69.4499" stroke="#5F1D33" stroke-width="1.5" stroke-linecap="round" stroke-linejoin="round"/>
<path d="M71.9602 74.0902C72.8162 74.0902 73.5102 73.3963 73.5102 72.5402C73.5102 71.6842 72.8162 70.9902 71.9602 70.9902C71.1041 70.9902 70.4102 71.6842 70.4102 72.5402C70.4102 73.3963 71.1041 74.0902 71.9602 74.0902Z" stroke="#5F1D33" stroke-width="1.5" stroke-linecap="round" stroke-linejoin="round"/>
<path d="M54.1391 87.3298C53.2491 89.7798 50.8791 93.1098 44.6191 94.3998C45.9191 89.1498 46.9891 87.0498 51.1491 85.5698" stroke="#5F1D33" stroke-width="1.5" stroke-linecap="round" stroke-linejoin="round"/>
<path d="M60.6105 84.46C62.4505 86.25 64.2805 89.46 63.8005 94.81C59.5405 92.27 57.7405 90.69 57.3105 87.03" stroke="#5F1D33" stroke-width="1.5" stroke-linecap="round" stroke-linejoin="round"/>
<path d="M51.16 76.8802C48.8621 75.3897 47.0646 73.2438 46 70.7202C51.47 70.7202 53.76 71.3002 56.21 75.1302" stroke="#5F1D33" stroke-width="1.5" stroke-linecap="round" stroke-linejoin="round"/>
<path d="M60.8496 78C64.1596 78.44 65.6796 79.35 67.3396 82.59" stroke="#5F1D33" stroke-width="1.5" stroke-linecap="round" stroke-linejoin="round"/>
<path d="M64.9991 83.4699C63.7298 83.1256 62.5496 82.5116 61.5391 81.6699" stroke="#5F1D33" stroke-width="1.5" stroke-linecap="round" stroke-linejoin="round"/>
<path d="M43.5605 83.5498C45.7405 83.5498 47.1505 84.3598 49.1005 86.5498" stroke="#5F1D33" stroke-width="1.5" stroke-linecap="round" stroke-linejoin="round"/>
<path d="M49.5898 83C48.4338 82.0304 47.4734 80.8493 46.7598 79.52" stroke="#5F1D33" stroke-width="1.5" stroke-linecap="round" stroke-linejoin="round"/>
<path d="M52.5 71.73C52.5 71.62 52.5 71.51 52.5 71.4V62C56 62 65.21 68.2 65.21 71.4C65.21 71.4 65.26 72.04 65.21 72.66" stroke="#5F1D33" stroke-width="1.5" stroke-linejoin="round"/>
<path d="M63.1796 75.8799C62.2802 76.5628 61.2189 77.0004 60.0996 77.1499" stroke="#5F1D33" stroke-width="1.5" stroke-linejoin="round"/>
<path d="M65.2608 66.0001C65.2608 65.0001 65.2608 62.3101 65.2608 62.3101C65.2608 62.3101 60.3608 63.5101 59.8008 65.3101" stroke="#5F1D33" stroke-width="1.5" stroke-linejoin="round"/>
<path d="M56.2891 62.8098C56.5791 61.4298 59.3991 59.2998 59.3991 59.2998C59.3991 59.2998 62.5091 61.6798 62.5091 63.1598" stroke="#5F1D33" stroke-width="1.5" stroke-linejoin="round"/>
<path d="M73.4707 82.6699C73.5167 81.2913 74.0809 79.9808 75.0507 78.9999L81.6707 72.3799C84.1507 74.8999 86.3107 85.7699 84.0507 87.9999C82.8546 89.0817 81.2793 89.6468 79.6683 89.5718C78.0573 89.4969 76.5412 88.7881 75.4507 87.5999C75.3228 87.4739 75.2026 87.3403 75.0907 87.1999" stroke="#5F1D33" stroke-width="1.5" stroke-linejoin="round"/>
<path d="M83.5293 88.5398C84.2493 87.7798 90.5293 81.6698 90.5293 81.6698C90.5293 81.6698 86.2193 79.0698 84.5293 79.9098" stroke="#5F1D33" stroke-width="1.5" stroke-linejoin="round"/>
<path d="M83.8105 75.6499C84.9905 74.8699 88.4905 75.3599 88.4905 75.3599C88.4905 75.3599 89.0005 79.2499 88.0005 80.2899" stroke="#5F1D33" stroke-width="1.5" stroke-linejoin="round"/>
<path d="M49.5493 70.89L46.2293 63.23C43.6193 64.36 39.2293 70.68 38.2793 74.6" stroke="#5F1D33" stroke-width="1.5" stroke-linejoin="round"/>
<path d="M45.7402 79.7701C47.4955 78.998 48.915 77.6211 49.7402 75.8901" stroke="#5F1D33" stroke-width="1.5" stroke-linejoin="round"/>
<path d="M37.5801 75.2999C37.1901 74.2999 34.5801 68.5899 34.5801 68.5899C34.5801 68.5899 39.5801 67.7499 40.7601 69.1399" stroke="#5F1D33" stroke-width="1.5" stroke-linejoin="round"/>
<path d="M43.0506 65.4502C42.2406 64.2902 38.8006 63.4502 38.8006 63.4502C38.8006 63.4502 36.9006 66.8702 37.4906 68.2302" stroke="#5F1D33" stroke-width="1.5" stroke-linejoin="round"/>
<path d="M71.3903 81.3599C70.5139 81.2678 69.6293 81.4267 68.8397 81.8179C68.0501 82.2092 67.3879 82.8168 66.9303 83.5699C65.8703 85.7299 66.2903 88.8199 69.2003 89.4399C69.6558 89.5501 70.1308 89.552 70.5872 89.4455C71.0435 89.3389 71.4686 89.127 71.8283 88.8266C72.188 88.5262 72.4724 88.1457 72.6585 87.7156C72.8447 87.2855 72.9275 86.8178 72.9003 86.3499C72.8263 85.9721 72.6344 85.6274 72.3522 85.3655C72.0699 85.1036 71.7119 84.9379 71.3296 84.8924C70.9472 84.8468 70.5603 84.9237 70.2244 85.1119C69.8885 85.3001 69.621 85.59 69.4603 85.9399" stroke="#5F1D33" stroke-width="1.5" stroke-miterlimit="10" stroke-linecap="round"/>
<path d="M69.5603 92.0298C72.5924 92.0298 75.0503 89.5718 75.0503 86.5398C75.0503 83.5078 72.5924 81.0498 69.5603 81.0498C66.5283 81.0498 64.0703 83.5078 64.0703 86.5398C64.0703 89.5718 66.5283 92.0298 69.5603 92.0298Z" stroke="#5F1D33" stroke-width="1.5" stroke-miterlimit="10" stroke-linecap="round"/>
<path d="M57.4601 75.4699C56.4788 75.3596 55.4864 75.5326 54.6004 75.9686C53.7143 76.4045 52.9716 77.0851 52.4601 77.9299C51.2901 80.3199 51.7501 83.7598 54.9801 84.4498C55.4922 84.5917 56.031 84.6078 56.5506 84.4968C57.0702 84.3858 57.5554 84.151 57.9648 83.8123C58.3742 83.4735 58.6958 83.041 58.9021 82.5513C59.1085 82.0617 59.1936 81.5294 59.1501 80.9999C59.0855 80.5664 58.8802 80.1662 58.5659 79.8608C58.2516 79.5554 57.8457 79.3616 57.4106 79.3094C56.9754 79.2571 56.5352 79.3492 56.1575 79.5715C55.7798 79.7938 55.4856 80.1341 55.3201 80.5399" stroke="#5F1D33" stroke-width="1.5" stroke-miterlimit="10" stroke-linecap="round"/>
<path d="M55.4301 87.3299C58.799 87.3299 61.5301 84.5988 61.5301 81.2299C61.5301 77.861 58.799 75.1299 55.4301 75.1299C52.0611 75.1299 49.3301 77.861 49.3301 81.2299C49.3301 84.5988 52.0611 87.3299 55.4301 87.3299Z" stroke="#5F1D33" stroke-width="1.5" stroke-miterlimit="10" stroke-linecap="round"/>
</svg>
