<svg width="22" height="12" viewBox="0 0 22 12" fill="none" xmlns="http://www.w3.org/2000/svg">
  <path
      d="M0.292786 6.69471C0.105315 6.50718 0 6.25288 0 5.98771C0 5.72255 0.105315 5.46824 0.292786 5.28071L5.29279 0.280712C5.48139 0.0985542 5.73399 -0.00224062 5.99619 3.78025e-05C6.25838 0.00231622 6.5092 0.107485 6.6946 0.292894C6.88001 0.478302 6.98518 0.729114 6.98746 0.991311C6.98974 1.25351 6.88894 1.50611 6.70679 1.69471L3.41379 4.98771H20.9998C21.265 4.98771 21.5194 5.09307 21.7069 5.28061C21.8944 5.46814 21.9998 5.7225 21.9998 5.98771C21.9998 6.25293 21.8944 6.50728 21.7069 6.69482C21.5194 6.88235 21.265 6.98771 20.9998 6.98771H3.41379L6.70679 10.2807C6.8023 10.373 6.87848 10.4833 6.93089 10.6053C6.9833 10.7273 7.01088 10.8585 7.01204 10.9913C7.01319 11.1241 6.98789 11.2558 6.93761 11.3787C6.88733 11.5016 6.81307 11.6132 6.71918 11.7071C6.62529 11.801 6.51364 11.8753 6.39074 11.9255C6.26784 11.9758 6.13616 12.0011 6.00339 12C5.87061 11.9988 5.73939 11.9712 5.61738 11.9188C5.49538 11.8664 5.38503 11.7902 5.29279 11.6947L0.292786 6.69471Z"
      fill="#4E1528"/>
</svg>