<svg width="226" height="52" viewBox="0 0 226 52" fill="none" xmlns="http://www.w3.org/2000/svg">
    <path d="M42.6415 50.3419C41.8192 49.4482 41.2671 48.4487 40.9852 47.3433C40.7033 46.2379 40.5623 44.8738 40.5623 43.251C40.5623 41.6047 40.8207 39.4645 41.3376 36.8304C42.0189 33.3731 43.2523 28.9046 45.0379 23.4247C44.1451 23.5658 42.8882 23.7892 41.2671 24.095C39.6695 24.3772 38.5418 24.5654 37.884 24.6594C35.887 33.8788 32.2924 41.0285 27.1003 46.1085C25.3147 47.8725 23.1885 49.2953 20.7217 50.3772C18.2783 51.4591 15.6 52 12.6867 52C9.77348 52 7.30662 51.1533 5.28614 49.46C3.26566 47.7666 2.25542 45.4971 2.25542 42.6513C2.25542 39.8055 3.40662 36.8892 5.70903 33.9023C1.90301 30.351 0 26.1529 0 21.308C0 18.4152 0.528614 15.7693 1.58584 13.3704C2.66656 10.9715 4.08795 8.96065 5.84999 7.33786C7.63553 5.71506 9.703 4.33921 12.0524 3.21031C16.5162 1.0701 21.4735 0 26.9241 0H46.0599C46.4828 0 46.7882 0.19991 46.9761 0.599729C46.9526 0.76436 46.8704 0.917232 46.7295 1.05834C46.612 1.19946 46.5298 1.32881 46.4828 1.4464C43.5225 4.99774 41.2201 10.019 39.5755 16.5102C39.1996 17.9448 38.7533 19.8381 38.2364 22.19L45.9894 20.8847C49.7954 12.7237 53.9538 7.33786 58.4647 4.72727C59.9448 3.85708 61.3544 3.42198 62.6936 3.42198C64.0327 3.42198 65.1487 3.763 66.0415 4.44505C66.9577 5.10357 67.4159 6.17368 67.4159 7.65536C67.4159 9.11352 66.8873 10.6658 65.83 12.3121C64.7963 13.9584 63.4689 15.4048 61.8478 16.6513C58.6056 19.1208 55.293 20.9199 51.9099 22.0488C50.8057 24.5889 49.631 28.3872 48.3858 33.4437C47.1641 38.4767 46.5532 42.0751 46.5532 44.2388C46.5532 46.4025 47.0114 47.4844 47.9276 47.4844C49.2668 47.4844 51.0406 45.9439 53.249 42.863L55.2225 44.7327C53.9773 46.5907 52.5325 48.2135 50.8879 49.6011C49.2668 50.9887 47.6927 51.6825 46.1656 51.6825C44.662 51.6825 43.4873 51.2356 42.6415 50.3419ZM4.12319 22.8955C4.12319 26.4469 5.2274 29.5631 7.43583 32.2442C10.3726 29.5396 13.9906 27.4229 18.29 25.8942C22.5894 24.3654 26.9593 23.4247 31.3997 23.0719C33.6081 12.9588 36.1807 6.1384 39.1174 2.61058C37.3319 2.32836 35.2057 2.18725 32.7388 2.18725C30.2719 2.18725 27.9813 2.35188 25.8668 2.68114C23.7524 2.98688 21.6262 3.46902 19.4882 4.12754C17.3503 4.78607 15.365 5.67978 13.5325 6.80868C11.7235 7.93759 10.1141 9.24288 8.70451 10.7246C5.65029 13.8526 4.12319 17.9095 4.12319 22.8955ZM7.64728 35.2782C5.90873 37.7006 5.03945 39.9937 5.03945 42.1574C5.03945 44.2976 5.6268 46.085 6.8015 47.5197C7.99969 48.9543 9.57378 49.6716 11.5238 49.6716C13.4973 49.6716 15.3063 49.3189 16.9509 48.6133C18.5955 47.8842 20.0521 46.8729 21.3208 45.5794C22.5894 44.2623 23.7406 42.8394 24.7744 41.3107C25.8081 39.7585 26.7244 38.0299 27.5232 36.1248C28.9798 32.6676 30.1545 29.1515 31.0472 25.5767C21.1563 26.3998 13.9084 29.081 9.3036 33.6201C11.2771 34.6784 13.0861 35.2076 14.7307 35.2076C16.3988 35.2076 17.5265 35.1841 18.1138 35.137L18.9244 37.0068C17.7027 37.1479 16.4458 37.2185 15.1536 37.2185C12.4048 37.2185 9.9027 36.5717 7.64728 35.2782ZM63.4336 5.6445C62.4469 5.6445 61.3779 6.16192 60.2267 7.19674C59.099 8.23157 58.0418 9.53686 57.055 11.1126C55.387 13.8408 54.0243 16.4749 52.9671 19.0149C55.34 18.1212 57.4662 16.9218 59.3457 15.4166C62.8933 12.5708 64.6671 9.98372 64.6671 7.65536C64.6671 6.31479 64.2559 5.6445 63.4336 5.6445Z"
          fill="#4e1528"/>
    <path d="M64.1737 43.8507C64.3147 46.5554 66.1355 47.9077 69.6361 47.9077C70.9282 47.9077 72.2674 47.5432 73.6535 46.8141C75.0632 46.0615 76.2026 45.1796 77.0719 44.1682L78.5872 45.156C76.6372 48.4251 73.5243 50.4242 69.2484 51.1533C68.3086 51.2944 67.4041 51.365 66.5349 51.365C63.9975 51.365 61.883 50.5301 60.1915 48.8602C58.4999 47.1669 57.6541 45.109 57.6541 42.6866C57.6541 40.2641 58.3942 38.0298 59.8743 35.9837C61.3544 33.9141 63.1987 32.3148 65.4071 31.1859C67.6391 30.057 69.8358 29.4925 71.9972 29.4925C74.1586 29.4925 76.0264 29.9864 77.6005 30.9742C79.1981 31.962 80.0086 33.2908 80.0321 34.9607C80.0791 36.6305 79.5975 38.0769 78.5872 39.2999C77.577 40.4993 76.2966 41.4166 74.746 42.0516C71.6683 43.2981 68.6493 43.9213 65.6891 43.9213L64.1737 43.8507ZM63.9623 41.9104C66.5701 41.8164 68.6611 41.4048 70.2351 40.6757C71.8327 39.9231 72.9369 39.0764 73.5478 38.1357C74.1821 37.1714 74.4993 36.1719 74.4993 35.137C74.4993 34.0787 74.2291 33.3026 73.6888 32.8087C73.1484 32.2913 72.5728 32.0326 71.962 32.0326C70.4583 32.0326 69.0722 32.5617 67.8035 33.6201C66.5583 34.6549 65.6068 35.9249 64.949 37.4301C64.2912 38.9118 63.9623 40.4052 63.9623 41.9104Z"
          fill="#4e1528"/>
    <path d="M101.917 34.114C101.024 34.114 99.9667 34.6902 98.745 35.8426C97.5234 36.9715 96.3369 38.3591 95.1857 40.0054C93.3532 42.6395 91.4854 45.6735 89.5824 49.1072L88.6309 50.8005H83.6619C83.6619 50.8005 84.0261 49.6952 84.7544 47.4844C86.7984 41.3695 87.8204 37.7476 87.8204 36.6187C87.8204 35.4663 87.6324 34.8901 87.2565 34.8901C86.5752 34.8901 85.7646 35.7015 84.8249 37.3243C84.6134 37.7006 84.4372 38.0063 84.2963 38.2415C84.1553 38.4532 83.9908 38.7237 83.8029 39.0529C83.6384 39.3587 83.5327 39.5468 83.4857 39.6174L81.1246 38.2415C82.9571 35.2546 84.6369 33.0556 86.164 31.6445C87.6911 30.2099 89.2535 29.4925 90.8511 29.4925C91.5794 29.4925 92.202 29.7983 92.7188 30.4098C93.2592 31.0213 93.5294 31.7503 93.5294 32.597C93.5294 33.4202 93.4824 34.161 93.3884 34.8195C93.2945 35.4545 93.1887 36.0425 93.0713 36.5834C92.9538 37.1244 92.7893 37.7711 92.5779 38.5237C92.3664 39.2763 92.1902 39.8526 92.0493 40.2524C91.9318 40.6522 91.7673 41.1931 91.5559 41.8752C91.3445 42.5572 91.2152 42.957 91.1682 43.0746C91.5911 42.228 92.3077 40.9815 93.3179 39.3351C94.3282 37.6888 94.986 36.654 95.2914 36.2307C95.5969 35.8073 96.0197 35.2429 96.5601 34.5373C97.1005 33.8317 97.5703 33.2908 97.9697 32.9145C98.3926 32.5147 98.886 32.0678 99.4499 31.5739C100.037 31.0565 100.589 30.6685 101.106 30.4098C102.422 29.7983 103.691 29.4925 104.912 29.4925C106.134 29.4925 107.109 29.8571 107.837 30.5862C108.589 31.2917 108.965 32.1266 108.965 33.0909C108.965 34.0317 108.659 34.8666 108.049 35.5957C107.461 36.3012 106.768 36.654 105.969 36.654C105.194 36.654 104.583 36.5247 104.137 36.2659C103.691 35.9837 103.385 35.6897 103.221 35.384C102.727 34.5373 102.293 34.114 101.917 34.114Z"
          fill="#4e1528"/>
    <path d="M130.004 46.673C128.853 48.0606 127.325 49.1895 125.422 50.0597C123.519 50.9299 121.323 51.365 118.832 51.365C116.342 51.365 114.228 50.6242 112.489 49.1425C110.774 47.6608 109.916 45.7793 109.916 43.498C109.916 43.2393 109.963 42.7571 110.057 42.0516C111.021 35.5839 112.771 28.5047 115.308 20.8141C117.846 13.1 120.571 7.34962 123.484 3.56309H129.475C127.713 5.53867 125.599 9.73677 123.132 16.1574C120.688 22.578 118.715 28.9046 117.211 35.137C120.054 31.374 123.249 29.4925 126.797 29.4925C129.005 29.4925 130.697 30.2451 131.872 31.7503C133.07 33.232 133.669 34.9371 133.669 36.8657C133.669 38.7942 133.352 40.5699 132.717 42.1927C132.083 43.792 131.178 45.2854 130.004 46.673ZM116.119 42.0516C115.931 43.0393 115.837 44.0036 115.837 44.9444C115.837 45.8616 116.178 46.8024 116.859 47.7666C117.54 48.7074 118.586 49.1777 119.995 49.1777C121.405 49.1777 122.697 48.5663 123.872 47.3433C126.127 44.9679 127.255 41.8281 127.255 37.924C127.255 36.3247 126.985 35.0194 126.444 34.0081C125.904 32.9733 125.07 32.4559 123.942 32.4559C122.815 32.4559 121.405 33.3614 119.713 35.1723C118.045 36.9833 116.847 39.2763 116.119 42.0516Z"
          fill="#4e1528"/>
    <path d="M155.976 30.2687H161.474L158.69 40.8168C158.243 42.2985 158.02 43.6508 158.02 44.8738C158.02 46.0733 158.232 46.673 158.655 46.673C159.077 46.673 159.653 46.3085 160.381 45.5794C161.133 44.8268 161.768 44.0742 162.284 43.3216L163.095 42.1927L164.61 43.6038C163.835 45.109 162.848 46.4848 161.65 47.7313C159.324 50.1538 157.304 51.365 155.589 51.365C153.568 51.365 152.558 49.801 152.558 46.673C152.558 46.1556 152.581 45.7675 152.628 45.5088C152.276 46.7083 151.606 47.7666 150.62 48.6839C148.74 50.4713 146.614 51.365 144.241 51.365C141.892 51.365 140 50.5654 138.567 48.9661C137.158 47.3433 136.453 45.3207 136.453 42.8982C136.453 39.1352 137.674 35.9602 140.118 33.3731C142.561 30.7861 145.428 29.4925 148.717 29.4925C150.361 29.4925 151.724 29.9512 152.805 30.8684C153.885 31.7621 154.59 32.938 154.919 34.3962L155.976 30.2687ZM150.091 32.5265C148.728 32.5265 147.448 33.1027 146.25 34.2551C145.075 35.384 144.171 36.7598 143.536 38.3826C142.902 39.9819 142.585 41.5459 142.585 43.0746C142.585 44.6033 142.914 45.8381 143.571 46.7788C144.253 47.7196 145.287 48.19 146.673 48.19C148.082 48.19 149.351 47.555 150.479 46.2849C152.617 43.839 153.686 40.9344 153.686 37.5712C153.686 34.2081 152.487 32.5265 150.091 32.5265Z"
          fill="#4e1528"/>
    <path d="M179.623 3.8806H185.332C184.322 5.62099 182.771 9.48982 180.68 15.4871C178.589 21.4609 176.674 27.4817 174.936 33.5495C173.221 39.5939 172.363 43.2981 172.363 44.6621C172.363 46.0027 172.528 46.673 172.857 46.673C173.843 46.673 175.382 45.1796 177.473 42.1927L178.953 43.6038C177.92 45.3912 176.804 46.8964 175.605 48.1194C173.491 50.2831 171.776 51.365 170.46 51.365C168.064 51.365 166.866 49.9186 166.866 47.0258C166.866 42.7218 168.287 35.9367 171.13 26.6703C173.996 17.4039 176.827 9.80733 179.623 3.8806Z"
          fill="#4e1528"/>
    <path d="M187.094 51.365C186.107 51.365 185.332 51.0592 184.768 50.4478C184.204 49.8363 183.922 49.0014 183.922 47.943C183.922 46.8611 184.193 45.403 184.733 43.5685C185.297 41.7105 185.849 40.0289 186.389 38.5237C186.953 37.0185 187.235 36.019 187.235 35.5251C187.235 35.0077 187.071 34.749 186.742 34.749C185.919 34.749 184.592 36.3718 182.759 39.6174L180.398 38.2415C183.852 32.4089 187.024 29.4925 189.913 29.4925C191.887 29.4925 192.874 30.739 192.874 33.232C192.874 33.9611 192.639 35.1253 192.169 36.7246L189.631 43.9919C189.373 44.6739 189.244 45.2971 189.244 45.8616C189.244 46.4025 189.455 46.673 189.878 46.673C190.677 46.673 192.145 45.1913 194.283 42.228L195.763 43.6038C194.495 45.9557 192.979 47.8372 191.217 49.2483C189.479 50.6594 188.104 51.365 187.094 51.365ZM197.138 19.0855C197.138 20.0262 196.821 20.8847 196.186 21.6608C195.552 22.4369 194.694 22.825 193.614 22.825C192.533 22.825 191.722 22.5075 191.182 21.8725C190.642 21.2139 190.371 20.3908 190.371 19.403C190.371 18.4152 190.7 17.545 191.358 16.7924C192.039 16.0163 192.909 15.6282 193.966 15.6282C195.023 15.6282 195.81 15.9692 196.327 16.6513C196.867 17.3098 197.138 18.1212 197.138 19.0855Z"
          fill="#4e1528"/>
    <path d="M217.366 30.2687H222.864L220.08 40.8168C219.633 42.2985 219.41 43.6508 219.41 44.8738C219.41 46.0733 219.621 46.673 220.044 46.673C220.467 46.673 221.043 46.3085 221.771 45.5794C222.523 44.8268 223.157 44.0742 223.674 43.3216L224.485 42.1927L226 43.6038C225.225 45.109 224.238 46.4848 223.04 47.7313C220.714 50.1538 218.693 51.365 216.978 51.365C214.958 51.365 213.948 49.801 213.948 46.673C213.948 46.1556 213.971 45.7675 214.018 45.5088C213.666 46.7083 212.996 47.7666 212.009 48.6839C210.13 50.4713 208.004 51.365 205.631 51.365C203.281 51.365 201.39 50.5654 199.957 48.9661C198.547 47.3433 197.842 45.3207 197.842 42.8982C197.842 39.1352 199.064 35.9602 201.508 33.3731C203.951 30.7861 206.817 29.4925 210.106 29.4925C211.751 29.4925 213.114 29.9512 214.194 30.8684C215.275 31.7621 215.98 32.938 216.309 34.3962L217.366 30.2687ZM211.481 32.5265C210.118 32.5265 208.838 33.1027 207.639 34.2551C206.465 35.384 205.56 36.7598 204.926 38.3826C204.292 39.9819 203.974 41.5459 203.974 43.0746C203.974 44.6033 204.303 45.8381 204.961 46.7788C205.642 47.7196 206.676 48.19 208.062 48.19C209.472 48.19 210.741 47.555 211.868 46.2849C214.006 43.839 215.075 40.9344 215.075 37.5712C215.075 34.2081 213.877 32.5265 211.481 32.5265Z"
          fill="#4e1528"/>
</svg>
