<svg width="70" height="88" viewBox="0 0 70 88" fill="none" xmlns="http://www.w3.org/2000/svg">
<path d="M34.8218 43.9641V24.0762" stroke="#D0ABB4" stroke-width="1.6" stroke-miterlimit="10" stroke-linejoin="round"/>
<path d="M26.431 39.201C26.431 39.201 19.6806 31.6144 8.0813 38.3394C15.2833 43.3174 17.9692 43.8917 26.431 39.201Z" stroke="#D0ABB4" stroke-width="1.6" stroke-miterlimit="10" stroke-linecap="round" stroke-linejoin="round"/>
<path d="M34.8457 40.3264C34.8457 40.3264 44.5672 37.5263 43.6402 24.0762C36.0341 28.408 34.3703 30.6098 34.8457 40.3264Z" stroke="#D0ABB4" stroke-width="1.6" stroke-miterlimit="10" stroke-linecap="round" stroke-linejoin="round"/>
<path d="M43.1885 38.7471C43.1885 38.7471 50.2954 31.4955 61.562 38.771C54.1223 43.4139 51.4126 43.8447 43.1885 38.7471Z" stroke="#D0ABB4" stroke-width="1.6" stroke-miterlimit="10" stroke-linecap="round" stroke-linejoin="round"/>
<path d="M43.1884 16.8975C43.1884 21.1097 39.4567 24.532 34.8692 24.532C30.2818 24.532 26.55 21.1097 26.55 16.8975C26.55 12.6854 26.55 4.57227 26.55 4.57227C31.1613 4.57227 43.1884 12.6854 43.1884 16.8975Z" stroke="#D0ABB4" stroke-width="1.6" stroke-miterlimit="10" stroke-linejoin="round"/>
<path d="M43.1884 17.8528C43.1409 16.4647 43.3072 4.95312 43.3072 4.95312C43.3072 4.95312 36.9134 6.53267 36.1765 8.85413" stroke="#D0ABB4" stroke-width="1.6" stroke-miterlimit="10" stroke-linejoin="round"/>
<path d="M31.5178 5.57797C31.8981 3.75909 35.5823 0.958984 35.5823 0.958984C35.5823 0.958984 39.6469 4.09415 39.6469 6.03269" stroke="#D0ABB4" stroke-width="1.6" stroke-miterlimit="10" stroke-linejoin="round"/>
<path d="M59.8982 31.8065C60.8252 30.8013 69.0255 22.76 69.0255 22.76C69.0255 22.76 63.3923 19.3137 61.253 20.4385" stroke="#D0ABB4" stroke-width="1.6" stroke-miterlimit="10" stroke-linejoin="round"/>
<path d="M60.2546 14.8156C61.7996 13.7865 66.3871 14.4327 66.3871 14.4327C66.3871 14.4327 67.0526 19.5542 65.6978 20.9184" stroke="#D0ABB4" stroke-width="1.6" stroke-miterlimit="10" stroke-linejoin="round"/>
<path d="M10.078 31.8065C9.15102 30.8013 0.950684 22.76 0.950684 22.76C0.950684 22.76 6.58396 19.3137 8.72318 20.4385" stroke="#D0ABB4" stroke-width="1.6" stroke-miterlimit="10" stroke-linejoin="round"/>
<path d="M9.72166 14.8154C8.17667 13.8102 3.613 14.4564 3.613 14.4564C3.613 14.4564 2.9237 19.554 4.3023 20.9421" stroke="#D0ABB4" stroke-width="1.6" stroke-miterlimit="10" stroke-linejoin="round"/>
<path d="M40.859 87.043H28.713C27.691 87.043 26.8828 86.2054 26.8828 85.2002C26.8828 84.1711 27.7147 83.3574 28.713 83.3574H40.859C41.8811 83.3574 42.6893 84.1951 42.6893 85.2002C42.6893 86.2054 41.8573 87.043 40.859 87.043Z" stroke="#D0ABB4" stroke-width="1.6" stroke-miterlimit="10" stroke-linejoin="round"/>
<path d="M28.3802 43.9637C28.2138 39.608 23.46 32.2847 20.6553 30.6094" stroke="#D0ABB4" stroke-width="1.6" stroke-miterlimit="10" stroke-linejoin="round"/>
<path d="M41.0967 43.9637C41.2631 39.608 46.0169 32.2847 48.8216 30.6094" stroke="#D0ABB4" stroke-width="1.6" stroke-miterlimit="10" stroke-linejoin="round"/>
<path d="M34.7028 40.3264C34.7028 40.3264 24.9813 37.5263 25.9083 24.0762C33.5144 28.408 35.202 30.6098 34.7028 40.3264Z" stroke="#D0ABB4" stroke-width="1.6" stroke-miterlimit="10" stroke-linecap="round" stroke-linejoin="round"/>
<path d="M20.6553 59.8789C23.5313 59.8789 23.5313 62.2721 26.4074 62.2721C29.2835 62.2721 29.2835 59.8789 32.1595 59.8789C35.0356 59.8789 35.0356 62.2721 37.9116 62.2721C40.7877 62.2721 40.7877 59.8789 43.6638 59.8789C46.5398 59.8789 46.5398 62.2721 49.4159 62.2721" stroke="#D0ABB4" stroke-width="1.6" stroke-miterlimit="10" stroke-linecap="round" stroke-linejoin="round"/>
<path d="M9.41272 31.1362C12.3601 34.1038 17.3991 33.8884 20.6555 30.6097C23.9119 27.3309 24.1258 22.2811 21.1784 19.2896C18.2311 16.298 12.5265 10.5781 12.5265 10.5781C9.27011 13.833 6.46536 28.1446 9.41272 31.1362Z" stroke="#D0ABB4" stroke-width="1.6" stroke-miterlimit="10" stroke-linejoin="round"/>
<path d="M40.8352 83.3319C46.6111 80.6754 50.6756 74.3094 50.6756 66.9142C50.6756 58.9925 46.0406 55.7138 39.623 53.4162C39.4091 53.3444 43.5211 44.8005 46.0882 43.9629H23.4838C26.7401 45.3749 30.4481 53.2248 29.5687 53.5598C23.3411 55.977 18.8726 59.1361 18.8726 66.9142C18.8726 74.3333 22.9371 80.6754 28.713 83.3319" stroke="#D0ABB4" stroke-width="1.6" stroke-miterlimit="10" stroke-linejoin="round"/>
<path d="M60.5637 31.1362C57.6163 34.1038 52.5773 33.8884 49.3209 30.6097C46.0645 27.3309 45.8506 22.2811 48.798 19.2896C51.7454 16.3219 57.4499 10.5781 57.4499 10.5781C60.7063 13.833 63.5348 28.1446 60.5637 31.1362Z" stroke="#D0ABB4" stroke-width="1.6" stroke-miterlimit="10" stroke-linejoin="round"/>
</svg>
