<svg xmlns="http://www.w3.org/2000/svg" width="24" height="21" viewBox="0 0 24 21" fill="none">
  <g clip-path="url(#clip0_11_5)">
    <path
        d="M2.64825 11.7848L10.9445 19.5791C11.2308 19.8477 11.374 19.9825 11.541 20.016C11.6171 20.0309 11.6953 20.0309 11.7713 20.016C11.9407 19.9825 12.0828 19.8489 12.3679 19.5791L20.6642 11.786C21.791 10.7278 22.4826 9.28718 22.6037 7.74593C22.7249 6.20468 22.2669 4.67365 21.3192 3.45229L20.9493 2.97611C18.6012 -0.0504357 13.8881 0.456774 12.2378 3.91534C12.1854 4.02495 12.103 4.11747 12.0002 4.18223C11.8973 4.247 11.7783 4.28136 11.6568 4.28136C11.5353 4.28136 11.4162 4.247 11.3134 4.18223C11.2106 4.11747 11.1282 4.02495 11.0758 3.91534C9.42555 0.456774 4.71247 -0.0516296 2.36427 2.97611L1.99439 3.45349C1.04743 4.67468 0.589792 6.20519 0.71093 7.74588C0.832072 9.2866 1.52327 10.7267 2.64945 11.7848H2.64825Z"
        fill="rgba(0, 0, 0, 0)" stroke="#f87a88" stroke-width="1.15862"></path>
  </g>
  <defs>
    <clipPath id="clip0_11_5">
      <rect width="24" height="20.7" fill="white" transform="translate(0 0.155172)"></rect>
    </clipPath>
  </defs>
</svg>