<svg width="169" height="40" viewBox="0 0 169 40" fill="none" xmlns="http://www.w3.org/2000/svg">
<g clip-path="url(#clip0_725_2516)">
<mask id="mask0_725_2516" style="mask-type:luminance" maskUnits="userSpaceOnUse" x="0" y="0" width="169" height="40">
<path d="M169 0H0V40H169V0Z" fill="white"/>
</mask>
<g mask="url(#mask0_725_2516)">
<path d="M32.3933 37.8347C31.791 37.1707 31.3867 36.428 31.1801 35.6069C30.9736 34.7856 30.8704 33.772 30.8704 32.5663C30.8704 31.3433 31.0598 29.7532 31.4383 27.7962C31.9373 25.2275 32.8407 21.9075 34.1484 17.8362C33.4946 17.9411 32.574 18.107 31.3867 18.3342C30.2165 18.5439 29.3906 18.6836 28.9088 18.7536C27.4461 25.6033 24.8134 30.9151 21.0105 34.6894C19.7027 36 18.1455 37.0571 16.3387 37.8609C14.5491 38.6647 12.5874 39.0666 10.4537 39.0666C8.31996 39.0666 6.51317 38.4376 5.03331 37.1794C3.55347 35.9213 2.81354 34.2351 2.81354 32.1208C2.81354 30.0065 3.65671 27.8398 5.34305 25.6207C2.55543 22.9821 1.16162 19.8631 1.16162 16.2635C1.16162 14.1143 1.54879 12.1485 2.32312 10.3662C3.11468 8.58392 4.15573 7.08992 5.4463 5.88426C6.75406 4.67858 8.26833 3.65638 9.98909 2.81764C13.2585 1.22754 16.8893 0.432495 20.8814 0.432495H34.897C35.2067 0.432495 35.4304 0.581022 35.5681 0.878072C35.5508 1.00039 35.4906 1.11396 35.3874 1.21881C35.3014 1.32365 35.2412 1.41976 35.2067 1.50712C33.0386 4.14563 31.3523 7.87625 30.1477 12.6989C29.8724 13.7648 29.5455 15.1715 29.1668 16.9189L34.8454 15.9491C37.633 9.8857 40.6787 5.88426 43.9826 3.94468C45.0667 3.29817 46.0991 2.9749 47.08 2.9749C48.0608 2.9749 48.8781 3.22827 49.532 3.73501C50.2032 4.22426 50.5386 5.0193 50.5386 6.12014C50.5386 7.20351 50.1514 8.35676 49.3771 9.57991C48.62 10.8031 47.6478 11.8777 46.4605 12.8038C44.0859 14.6385 41.6595 15.9753 39.1817 16.814C38.3729 18.7012 37.5125 21.5231 36.6006 25.2799C35.7057 29.0193 35.2583 31.6927 35.2583 33.3003C35.2583 34.9079 35.5939 35.7116 36.265 35.7116C37.2458 35.7116 38.5449 34.5671 40.1625 32.2781L41.6079 33.6673C40.6959 35.0476 39.6377 36.2533 38.4331 37.2843C37.2458 38.3153 36.0929 38.8307 34.9745 38.8307C33.8732 38.8307 33.0128 38.4987 32.3933 37.8347ZM4.18154 17.443C4.18154 20.0816 4.9903 22.3968 6.60781 24.3888C8.75875 22.3793 11.4087 20.8067 14.5577 19.6709C17.7066 18.5351 20.9073 17.8362 24.1595 17.5741C25.7771 10.0604 27.6612 4.9931 29.8122 2.37207C28.5044 2.16238 26.9471 2.05754 25.1403 2.05754C23.3335 2.05754 21.6557 2.17986 20.1072 2.42448C18.5585 2.65164 17.0011 3.00985 15.4353 3.49911C13.8694 3.98837 12.4153 4.65236 11.0732 5.4911C9.74818 6.32983 8.56947 7.29961 7.53702 8.40045C5.30003 10.7244 4.18154 13.7386 4.18154 17.443ZM6.76268 26.6429C5.48932 28.4426 4.85264 30.1463 4.85264 31.7538C4.85264 33.344 5.28282 34.672 6.1432 35.7378C7.02079 36.8038 8.17369 37.3367 9.60192 37.3367C11.0473 37.3367 12.3723 37.0746 13.5769 36.5503C14.7814 36.0087 15.8482 35.2573 16.7775 34.2963C17.7066 33.3178 18.5498 32.2607 19.307 31.1248C20.0641 29.9716 20.7351 28.6873 21.3203 27.2719C22.3871 24.7033 23.2475 22.091 23.9014 19.435C16.657 20.0466 11.3485 22.0386 7.97581 25.411C9.42124 26.1973 10.7462 26.5905 11.9507 26.5905C13.1725 26.5905 13.9984 26.5729 14.4286 26.538L15.0223 27.9271C14.1275 28.032 13.2069 28.0844 12.2605 28.0844C10.2472 28.0844 8.4146 27.6039 6.76268 26.6429ZM47.622 4.62616C46.8993 4.62616 46.1163 5.01057 45.2732 5.77941C44.4472 6.54825 43.6729 7.51803 42.9501 8.68876C41.7284 10.7157 40.7304 12.6727 39.956 14.5599C41.6939 13.8959 43.2513 13.0048 44.6278 11.8864C47.2262 9.77213 48.5253 7.85003 48.5253 6.12014C48.5253 5.12416 48.2242 4.62616 47.622 4.62616ZM48.164 33.012C48.2673 35.0214 49.6008 36.0262 52.1648 36.0262C53.1112 36.0262 54.0921 35.7554 55.1072 35.2137C56.1398 34.6545 56.9742 33.9993 57.6109 33.2479L58.7209 33.9818C57.2926 36.4106 55.0127 37.8959 51.8808 38.4376C51.1925 38.5423 50.5301 38.5947 49.8934 38.5947C48.035 38.5947 46.4863 37.9745 45.2474 36.7338C44.0083 35.4758 43.3889 33.9469 43.3889 32.147C43.3889 30.3473 43.931 28.6873 45.015 27.1671C46.0991 25.6294 47.4498 24.4412 49.0674 23.6025C50.7021 22.7638 52.3111 22.3444 53.8941 22.3444C55.4772 22.3444 56.8452 22.7113 57.9981 23.4452C59.1683 24.1791 59.7619 25.1663 59.7791 26.407C59.8135 27.6476 59.4608 28.7222 58.7209 29.6309C57.981 30.522 57.0431 31.2035 55.9073 31.6753C53.6532 32.6013 51.4421 33.0644 49.2739 33.0644L48.164 33.012ZM48.0092 31.5705C49.9192 31.5005 51.4507 31.1947 52.6036 30.6531C53.7736 30.094 54.5824 29.4648 55.0298 28.766C55.4944 28.0494 55.7267 27.3069 55.7267 26.538C55.7267 25.7518 55.5288 25.1751 55.133 24.8082C54.7373 24.4238 54.3157 24.2315 53.8683 24.2315C52.767 24.2315 51.7517 24.6247 50.8226 25.411C49.9105 26.1798 49.2137 27.1234 48.7318 28.2417C48.25 29.3425 48.0092 30.4522 48.0092 31.5705ZM75.8079 25.778C75.154 25.778 74.3797 26.2061 73.4849 27.0622C72.5901 27.9009 71.7212 28.9319 70.8779 30.155C69.5357 32.1122 68.1677 34.3662 66.7739 36.9173L66.0771 38.1754H62.4376C62.4376 38.1754 62.7043 37.3542 63.2377 35.7116C64.7349 31.1685 65.4834 28.4776 65.4834 27.6389C65.4834 26.7826 65.3457 26.3546 65.0704 26.3546C64.5713 26.3546 63.9777 26.9574 63.2895 28.1631C63.1346 28.4426 63.0055 28.6698 62.9023 28.8445C62.799 29.0018 62.6785 29.2027 62.5409 29.4474C62.4204 29.6745 62.3431 29.8143 62.3086 29.8667L60.5792 28.8445C61.9215 26.6254 63.1517 24.9916 64.2703 23.9433C65.3887 22.8773 66.533 22.3444 67.7032 22.3444C68.2366 22.3444 68.6926 22.5715 69.0712 23.0258C69.467 23.4802 69.6648 24.0218 69.6648 24.6509C69.6648 25.2625 69.6304 25.8129 69.5615 26.3021C69.4928 26.774 69.4153 27.2107 69.3292 27.6127C69.2432 28.0145 69.1228 28.4951 68.9679 29.0542C68.8131 29.6133 68.684 30.0414 68.5807 30.3385C68.4947 30.6356 68.3742 31.0374 68.2194 31.5442C68.0645 32.051 67.9699 32.348 67.9354 32.4354C68.2452 31.8063 68.77 30.8802 69.5099 29.6571C70.2499 28.434 70.7317 27.6651 70.9553 27.3506C71.1791 27.036 71.4888 26.6167 71.8846 26.0924C72.2804 25.5683 72.6245 25.1663 72.917 24.8867C73.2268 24.5897 73.5882 24.2577 74.0011 23.8907C74.4313 23.5063 74.8357 23.2181 75.2143 23.0258C76.1778 22.5715 77.1071 22.3444 78.0019 22.3444C78.8967 22.3444 79.6108 22.6153 80.1442 23.1569C80.6948 23.6811 80.9702 24.3014 80.9702 25.0178C80.9702 25.7168 80.7465 26.3371 80.2991 26.8787C79.8689 27.403 79.3612 27.6651 78.7762 27.6651C78.2084 27.6651 77.7609 27.5689 77.434 27.3768C77.1071 27.1671 76.8834 26.9487 76.763 26.7214C76.4016 26.0924 76.0833 25.778 75.8079 25.778ZM96.3795 35.1088C95.5363 36.1398 94.4179 36.9785 93.0241 37.6251C91.6303 38.2715 90.0213 38.5947 88.1974 38.5947C86.3733 38.5947 84.8246 38.0444 83.5513 36.9435C82.2951 35.8427 81.6671 34.4448 81.6671 32.7498C81.6671 32.5577 81.7014 32.1995 81.7703 31.6753C82.4758 26.87 83.7578 21.6105 85.6161 15.8967C87.4746 10.1653 89.4707 5.89299 91.6045 3.07974H95.9924C94.7017 4.54752 93.1532 7.66656 91.3463 12.4368C89.5568 17.2071 88.1112 21.9075 87.0101 26.538C89.0921 23.7422 91.4324 22.3444 94.0307 22.3444C95.6481 22.3444 96.8872 22.9035 97.7475 24.0218C98.6251 25.1226 99.0638 26.3894 99.0638 27.8223C99.0638 29.2551 98.8316 30.5745 98.367 31.7802C97.9024 32.9683 97.2399 34.0778 96.3795 35.1088ZM86.2098 31.6753C86.0722 32.4092 86.0033 33.1256 86.0033 33.8245C86.0033 34.506 86.2529 35.2049 86.7519 35.9213C87.2509 36.6203 88.0167 36.9697 89.0491 36.9697C90.0816 36.9697 91.028 36.5154 91.8883 35.6069C93.5402 33.842 94.3663 31.5093 94.3663 28.6087C94.3663 27.4204 94.1683 26.4506 93.7726 25.6993C93.3768 24.9305 92.766 24.5461 91.9399 24.5461C91.114 24.5461 90.0816 25.2187 88.8427 26.5643C87.6209 27.9097 86.7432 29.6133 86.2098 31.6753ZM115.402 22.9209H119.429L117.39 30.7578C117.063 31.8587 116.899 32.8635 116.899 33.772C116.899 34.6633 117.054 35.1088 117.364 35.1088C117.674 35.1088 118.095 34.838 118.629 34.2963C119.18 33.7372 119.644 33.178 120.023 32.6189L120.616 31.7802L121.726 32.8285C121.158 33.9469 120.436 34.9691 119.558 35.8951C117.854 37.6949 116.375 38.5947 115.118 38.5947C113.639 38.5947 112.899 37.4328 112.899 35.1088C112.899 34.7244 112.916 34.436 112.95 34.2439C112.692 35.135 112.202 35.9213 111.479 36.6029C110.102 37.9307 108.545 38.5947 106.807 38.5947C105.086 38.5947 103.701 38.0007 102.652 36.8125C101.619 35.6069 101.103 34.104 101.103 32.3043C101.103 29.5085 101.998 27.1496 103.787 25.2275C105.577 23.3054 107.676 22.3444 110.085 22.3444C111.29 22.3444 112.288 22.6851 113.079 23.3666C113.871 24.0306 114.387 24.9043 114.628 25.9876L115.402 22.9209ZM111.092 24.5985C110.094 24.5985 109.156 25.0266 108.279 25.8827C107.418 26.7214 106.756 27.7436 106.291 28.9493C105.827 30.1376 105.594 31.2996 105.594 32.4354C105.594 33.5711 105.835 34.4885 106.317 35.1875C106.816 35.8863 107.573 36.2359 108.588 36.2359C109.621 36.2359 110.55 35.764 111.376 34.8205C112.942 33.0033 113.725 30.8453 113.725 28.3465C113.725 25.8478 112.847 24.5985 111.092 24.5985ZM132.722 3.31564H136.903C136.163 4.60868 135.027 7.48308 133.496 11.9389C131.965 16.3772 130.562 20.8503 129.289 25.3586C128.032 29.8493 127.405 32.6013 127.405 33.6149C127.405 34.6109 127.525 35.1088 127.767 35.1088C128.488 35.1088 129.615 33.9993 131.148 31.7802L132.232 32.8285C131.474 34.1565 130.657 35.2749 129.779 36.1834C128.23 37.791 126.975 38.5947 126.011 38.5947C124.256 38.5947 123.378 37.5202 123.378 35.3709C123.378 32.1733 124.419 27.1322 126.501 20.2475C128.6 13.363 130.674 7.71898 132.722 3.31564ZM138.194 38.5947C137.471 38.5947 136.903 38.3676 136.49 37.9133C136.077 37.459 135.871 36.8387 135.871 36.0524C135.871 35.2485 136.069 34.1652 136.464 32.8023C136.877 31.4218 137.281 30.1725 137.678 29.0542C138.091 27.9359 138.297 27.1933 138.297 26.8263C138.297 26.442 138.176 26.2497 137.936 26.2497C137.334 26.2497 136.362 27.4554 135.018 29.8667L133.29 28.8445C135.819 24.5111 138.142 22.3444 140.259 22.3444C141.705 22.3444 142.426 23.2705 142.426 25.1226C142.426 25.6643 142.255 26.5293 141.911 27.7174L140.053 33.1168C139.863 33.6235 139.768 34.0866 139.768 34.506C139.768 34.9079 139.923 35.1088 140.233 35.1088C140.818 35.1088 141.894 34.008 143.46 31.8063L144.543 32.8285C143.615 34.5759 142.504 35.9737 141.214 37.0222C139.941 38.0706 138.933 38.5947 138.194 38.5947ZM145.55 14.6123C145.55 15.3113 145.317 15.9491 144.853 16.5257C144.388 17.1023 143.761 17.3906 142.969 17.3906C142.177 17.3906 141.584 17.1547 141.188 16.6829C140.792 16.1937 140.594 15.5821 140.594 14.8482C140.594 14.1143 140.836 13.4678 141.317 12.9087C141.817 12.332 142.453 12.0437 143.227 12.0437C144.001 12.0437 144.578 12.2971 144.956 12.8038C145.352 13.2931 145.55 13.8959 145.55 14.6123ZM160.366 22.9209H164.393L162.353 30.7578C162.027 31.8587 161.863 32.8635 161.863 33.772C161.863 34.6633 162.018 35.1088 162.328 35.1088C162.637 35.1088 163.058 34.838 163.592 34.2963C164.142 33.7372 164.607 33.178 164.986 32.6189L165.579 31.7802L166.69 32.8285C166.122 33.9469 165.399 34.9691 164.521 35.8951C162.818 37.6949 161.338 38.5947 160.081 38.5947C158.602 38.5947 157.863 37.4328 157.863 35.1088C157.863 34.7244 157.879 34.436 157.913 34.2439C157.656 35.135 157.165 35.9213 156.442 36.6029C155.066 37.9307 153.508 38.5947 151.771 38.5947C150.049 38.5947 148.664 38.0007 147.615 36.8125C146.583 35.6069 146.066 34.104 146.066 32.3043C146.066 29.5085 146.961 27.1496 148.751 25.2275C150.54 23.3054 152.64 22.3444 155.048 22.3444C156.253 22.3444 157.251 22.6851 158.043 23.3666C158.835 24.0306 159.351 24.9043 159.592 25.9876L160.366 22.9209ZM156.056 24.5985C155.057 24.5985 154.119 25.0266 153.242 25.8827C152.381 26.7214 151.719 27.7436 151.254 28.9493C150.79 30.1376 150.558 31.2996 150.558 32.4354C150.558 33.5711 150.799 34.4885 151.281 35.1875C151.779 35.8863 152.536 36.2359 153.551 36.2359C154.584 36.2359 155.513 35.764 156.339 34.8205C157.905 33.0033 158.689 30.8453 158.689 28.3465C158.689 25.8478 157.811 24.5985 156.056 24.5985Z" fill="white"/>
</g>
</g>
<defs>
<clipPath id="clip0_725_2516">
<rect width="169" height="40" fill="white"/>
</clipPath>
</defs>
</svg>