<svg width="22" height="20" viewBox="0 0 22 20" fill="none" xmlns="http://www.w3.org/2000/svg">
<path d="M11 6.89955V10.7664M11 14.6332H11.0096M9.36333 1.93069L1.25653 15.5999C1.08938 15.8922 1.00094 16.2237 1.00001 16.5613C0.999072 16.8989 1.08567 17.2308 1.25119 17.5241C1.41671 17.8174 1.65538 18.0618 1.94346 18.233C2.23153 18.4043 2.55897 18.4963 2.8932 18.5H19.1068C19.441 18.4963 19.7685 18.4043 20.0565 18.233C20.3446 18.0618 20.5833 17.8174 20.7488 17.5241C20.9143 17.2308 21.0009 16.8989 21 16.5613C20.9991 16.2237 20.9106 15.8922 20.7435 15.5999L12.6367 1.93069C12.466 1.64658 12.2258 1.41168 11.9391 1.24866C11.6524 1.08564 11.329 1 11 1C10.671 1 10.3476 1.08564 10.0609 1.24866C9.7742 1.41168 9.53395 1.64658 9.36333 1.93069Z" stroke="#fff" stroke-width="1.66667" stroke-linecap="round" stroke-linejoin="round"/>
</svg>
