<svg viewBox="0 0 108.1 97.4" xmlns="http://www.w3.org/2000/svg"><g fill="#f0dbde"><path d="m55.9 43.2c-5.3 2.8-8.1 6.1-9.5 8.8-.2.4-.4.8-.6 1.2l-2.2-6.8c1.7-.6 3.3-1.9 3.7-3.8.2-.8.1-1.7-.2-2.6.9.2 1.8.2 2.6-.1 1.9-.6 3.1-2.4 3.5-4.1.4-1.8 0-3.8-1.5-5.2-.6-.6-1.5-1-2.4-1.2.7-.7 1.1-1.5 1.3-2.4.4-2-.5-3.9-1.8-5.1s-3.3-1.9-5.2-1.3c-.8.3-1.6.8-2.3 1.5-.3-.9-.7-1.7-1.4-2.3-1.5-1.3-3.6-1.5-5.3-.9s-3.3 1.9-3.8 3.8c-.2.9-.1 1.8.2 2.7-1-.2-1.9-.2-2.7.1-1.9.6-3.1 2.4-3.5 4.1-.4 1.8 0 3.8 1.5 5.2.6.6 1.5 1 2.4 1.2-.7.7-1.1 1.5-1.3 2.4-.4 2 .5 3.8 1.8 5.1 1.3 1.2 3.3 1.9 5.2 1.3.8-.3 1.6-.8 2.3-1.5.3.9.8 1.7 1.4 2.3 1 .9 2.2 1.2 3.5 1.2l2.3 7.1c-.4-.2-.7-.4-1.2-.6-2.7-1.3-6.9-2.4-12.8-1.6-.5.1-.9.6-.9 1.1.1.5.6.9 1.1.9 5.6-.7 9.3.3 11.7 1.4 1.2.6 2 1.2 2.5 1.7.3.2.4.4.6.6.1.1.1.1.1.1.3.3.7.5 1.1.4s.7-.5.7-.9 0-.1 0-.2c0-.2.1-.4.1-.8.2-.7.5-1.7 1.1-2.8 1.2-2.3 3.7-5.3 8.7-8 .5-.3.7-.9.4-1.4-.1-.7-.7-.9-1.2-.6zm-4.6-7.9c-.3 1.3-1.1 2.3-2.1 2.7-1 .3-2.6.1-4.8-1.8-.3-.3-.7-.3-1-.2 1-1.2 1.4-2.9 1-4.5.3.2.6.3 1 .2 2.8-.9 4.3-.4 5.1.3s1.1 2 .8 3.3zm-11.2.6c-1.8.6-3.7-.4-4.3-2.2s.4-3.7 2.2-4.3 3.7.4 4.3 2.2-.4 3.7-2.2 4.3zm4.1-13.4c1.1-.3 2.3 0 3.3.9s1.5 2.1 1.2 3.2c-.2 1-1.2 2.3-4 3.2-.3.1-.6.4-.7.7-.6-1.5-1.9-2.6-3.4-3.1.4-.1.7-.4.7-.7.7-2.8 1.9-3.9 2.9-4.2zm-11.4.6c.2-1.1 1.2-2 2.4-2.4 1.3-.4 2.5-.2 3.4.5.8.7 1.4 2.2.8 5-.1.4.1.8.4 1-.8-.1-1.6 0-2.4.2-.8.3-1.5.7-2 1.2.1-.4 0-.8-.3-1-2.2-1.9-2.5-3.4-2.3-4.5zm-6 6.9c.3-1.3 1.1-2.3 2.1-2.7 1-.3 2.6-.1 4.8 1.8.3.3.7.3 1 .2-1 1.2-1.4 2.9-1 4.5-.3-.2-.6-.3-1-.2-2.8.9-4.3.4-5.1-.3s-1.1-2-.8-3.3zm7.1 12.8c-1.1.3-2.3 0-3.3-.9s-1.5-2.1-1.2-3.2c.2-1 1.2-2.3 4-3.2.3-.1.6-.4.7-.7.6 1.5 1.9 2.6 3.4 3.1-.4.1-.7.4-.7.7-.7 2.8-1.9 3.9-2.9 4.2zm4.8-3.8c.1-.4-.1-.8-.4-1 .8.1 1.6 0 2.4-.2.8-.3 1.5-.7 2-1.2-.1.4 0 .8.3 1 2.2 1.9 2.6 3.5 2.4 4.5-.2 1.1-1.2 2-2.4 2.4-1.3.4-2.6.2-3.4-.5-.9-.7-1.5-2.1-.9-5z"/><path d="m73 45.8-10.8-33.7c-.3-.9-.8-1.8-1.4-2.6s-1.4-1.4-2.3-1.8-1.8-.7-2.8-.8-2 0-2.9.3l-40.7 13c-.9.3-1.8.8-2.6 1.4s-1.4 1.4-1.8 2.3c-.5.9-.7 1.8-.8 2.8s0 2 .3 2.9l10.8 33.7c.3.9.8 1.8 1.4 2.6s1.4 1.4 2.3 1.8 1.8.7 2.8.8 2 0 2.9-.3l40.7-13c.9-.3 1.8-.8 2.6-1.4s1.4-1.4 1.8-2.3c.5-.9.7-1.8.8-2.8.1-.9 0-1.9-.3-2.9zm-45.8 21.5-.2-.6zm44.2-18.7c-.1.7-.3 1.4-.6 2.1-.3.6-.8 1.2-1.3 1.7-.6.5-1.2.8-1.9 1l-40.7 13c-.7.2-1.4.3-2.1.3-.7-.1-1.4-.3-2.1-.6-.6-.3-1.2-.8-1.7-1.3-.5-.6-.8-1.2-1-1.9l-1 .3.9-.3-10.7-33.8-.9.3.9-.3c-.2-.7-.3-1.4-.3-2.1s.3-1.4.6-2.1.8-1.2 1.3-1.7c.6-.5 1.2-.8 1.9-1l-.3-.9.3 1 40.7-13c.7-.2 1.4-.3 2.1-.3s1.4.3 2.1.6c.6.3 1.2.8 1.7 1.3.5.6.8 1.2 1 1.9l.9-.3-1 .3 10.8 33.7.9-.3-.9.3.9-.3-1 .3c.4.6.5 1.4.5 2.1z"/><path d="m107.7 41.9c-.3-.9-.8-1.8-1.4-2.6-.6-.7-1.4-1.3-2.3-1.8l-33.4-17-4.8-15.3c-.3-.9-.8-1.8-1.4-2.6s-1.4-1.4-2.3-1.8-1.9-.7-2.9-.8-2 0-2.9.3l-51.1 16.4c-.9.3-1.8.8-2.6 1.4s-1.4 1.4-1.8 2.3c-.5.9-.7 1.8-.8 2.8-.1 1 0 2 .3 2.9l17.5 54.5c.3.9.8 1.8 1.4 2.6s1.4 1.4 2.3 1.8c.9.5 1.8.7 2.8.8s2 0 2.9-.3l15.7-5 31.1 16c.9.5 1.8.8 2.8.8 1 .1 2 0 2.9-.3s1.8-.8 2.6-1.4c.7-.6 1.3-1.4 1.8-2.3l23.1-45.7c.5-.9.8-1.8.8-2.8.1-.9 0-1.9-.3-2.9zm-51.1-40.6.2.6zm-29.6 83.3-.3-.9c-.7.2-1.4.3-2.1.3-.7-.1-1.4-.3-2.1-.6-.6-.3-1.2-.8-1.7-1.3-.5-.6-.8-1.2-1-1.9l-.9.3 1-.3-17.6-54.6-.9.3.9-.3c-.3-.7-.3-1.4-.3-2.2.1-.7.3-1.4.6-2.1.3-.6.8-1.2 1.3-1.7.6-.5 1.2-.8 1.9-1l-.3-1 .3 1 51.1-16.3c.7-.3 1.4-.3 2.2-.3.7.1 1.4.3 2.1.6.6.3 1.2.8 1.7 1.3.5.6.8 1.2 1 1.9l17.4 54.3.9-.3-.9.3c.3.7.4 1.4.3 2.2 0 .7-.2 1.5-.6 2.1-.3.7-.8 1.3-1.3 1.7-.6.5-1.2.9-1.9 1.1l-51.1 16.5zm72.2-39.6c.2.7.3 1.4.2 2.1s-.3 1.4-.6 2l.9.5-.9-.5-14.3 27.9.9.5-.9-.5c-.3.6-.8 1.2-1.3 1.7s-1.2.8-1.9 1-1.4.3-2.1.2-1.4-.3-2-.6l-.5.9.5-.9-11.6-6 12.8-4.1c1-.3 1.9-.8 2.6-1.5.8-.7 1.4-1.5 1.8-2.4s.7-1.9.8-2.9-.1-2-.4-2.9l-9.4-29.4 22.7 11.7.5-.9-.4.9c.6.3 1.2.8 1.7 1.3.3.5.7 1.2.9 1.9zm6.2 1.7.9.5-.9-.5-23.1 45.7.9.4-.9-.4c-.3.6-.8 1.2-1.3 1.7s-1.2.8-1.9 1-1.4.3-2.1.2-1.4-.3-2-.6l-.5.9.5-.9-29.3-15 17.1-5.5 13.4 6.9c.9.5 1.8.8 2.8.8 1 .1 2 0 2.9-.3s1.8-.8 2.6-1.4c.7-.6 1.3-1.4 1.8-2.3l14.3-27.9c.5-.9.8-1.8.8-2.8.1-1 0-2-.3-2.9s-.8-1.8-1.4-2.6c-.7-.7-1.5-1.3-2.3-1.7l-24.5-12.6-1.4-4.2 31.6 16.2c.6.3 1.2.8 1.7 1.3s.8 1.2 1 1.9.3 1.4.2 2.1c0 .7-.2 1.4-.6 2z"/><path d="m45.6 68.6-19.8 6.4c-.5.2-.8.7-.6 1.3.2.5.7.8 1.3.6l19.8-6.4c.5-.2.8-.7.6-1.3-.2-.5-.7-.8-1.3-.6z"/><path d="m96.9 40.9-.5.9z"/></g></svg>