<svg viewBox="0 0 113.1 86.3" xmlns="http://www.w3.org/2000/svg"><g fill="#f0dbde"><path d="m50.7 54.2-31.6 9.9c-.5.2-.8.7-.7 1.3.2.5.7.8 1.3.7l31.6-9.9c.5-.2.8-.7.7-1.3-.2-.5-.8-.8-1.3-.7z"/><path d="m112.8 33.3c-.6-1.8-1.8-3.3-3.5-4.2l-24-12.7-3.2-10.4c-1.4-4.5-6.2-7-10.7-5.6l-65.4 20.5c-4.5 1.4-7 6.2-5.6 10.7l14 44.6c1.4 4.5 6.2 7 10.7 5.6l29.8-9.3 24.9 13c1.7.9 3.7 1.1 5.5.5s3.3-1.8 4.2-3.5l22.9-43.7-.9-.5h.1l.8.4c.8-1.6.9-3.6.4-5.4zm-29.6-16.9-77.8 24.4-2.7-8.5 77.8-24.5zm-76.6 6.4 65.4-20.5c3.2-1 6.6.6 7.9 3.6l-77.8 24.4c-.6-3.2 1.3-6.5 4.5-7.5zm17.8 57c-3.4 1.1-7.1-.8-8.2-4.3l-10.2-32.8 77.8-24.4 10.3 32.9c1.1 3.4-.8 7.1-4.3 8.2zm64.1 2.2-.9-.5c-.6 1.2-1.7 2.1-3 2.5s-2.7.3-3.9-.4l-23.2-12 32.9-10.3c4.5-1.4 7-6.2 5.6-10.7l-9.8-31.4 22.1 11.7.5-.9-.1.2-.3.6c1.2.6 2.1 1.7 2.5 3.1.4 1.3.3 2.7-.3 4l-23 43.6z"/><path d="m41.9 62.3-21.3 6.7c-.5.2-.8.7-.7 1.3.2.5.7.8 1.3.7l21.2-6.7c.5-.2.8-.7.7-1.3-.2-.6-.7-.9-1.2-.7z"/><path d="m82.3 40.1c-.7-2.3-3.2-3.6-5.5-2.9l-15.9 5c-2.3.7-3.6 3.2-2.9 5.5l2.4 7.6c.7 2.3 3.2 3.6 5.5 2.9l15.9-5c2.3-.7 3.6-3.2 2.9-5.5zm-1.1 11.3-15.9 5c-1.3.4-2.6-.3-3-1.6l-2.3-7.7c-.4-1.3.3-2.6 1.6-3l15.9-5c1.3-.4 2.6.3 3 1.6l2.4 7.6c.3 1.3-.4 2.7-1.7 3.1z"/><path d="m28.2 53.9c-.2-.5-.7-.8-1.3-.7l-10.2 3.2c-.5.2-.8.7-.7 1.3.2.5.7.8 1.3.7l10.2-3.2c.5-.2.8-.8.7-1.3z"/><path d="m31.5 53.9 10.2-3.2c.5-.2.8-.7.7-1.3-.2-.5-.7-.8-1.3-.7l-10.2 3.3c-.5.2-.8.7-.7 1.3.2.5.8.8 1.3.6z"/></g></svg>