<svg viewBox="0 0 110 117" xmlns="http://www.w3.org/2000/svg"><g fill="#f0dbde"><path d="m57.5 90.1-7.6 4.4c-.5.3-.6.9-.4 1.4.3.5.9.6 1.4.4l7.6-4.4c.5-.3.6-.9.4-1.4-.3-.5-.9-.7-1.4-.4z"/><path d="m66.2 86.2c.3.5.9.6 1.4.4l22.9-13.2c.5-.3.6-.9.4-1.4-.3-.5-.9-.6-1.4-.4l-23 13.3c-.5.3-.6.9-.3 1.3z"/><path d="m67.3 75.4c.3.5.9.6 1.4.4l17.3-10c.5-.3.6-.9.4-1.4-.3-.5-.9-.6-1.4-.4l-17.3 10c-.5.3-.7.9-.4 1.4z"/><path d="m16.3 38.4-.9-.4-.1 1c.4 0 .8-.3 1-.6z"/><path d="m109.9 79.5-.9.5.9-.5-45.6-79c-.2-.3-.6-.5-1-.5s-.7.2-.9.6l-6.1 12.3-13.6-.9-.1 1 .1-1c-.4 0-.8.2-1 .6l-6.1 12.3-13.7-.9-.1 1 .1-1c-.4 0-.8.2-1 .6l-6.1 12.3-13.7-.9c-.4 0-.7.2-.9.5-.2.3-.2.7 0 1l45.6 79c.3.5.9.6 1.4.4l62.4-36c.2-.1.4-.4.5-.6-.1-.3-.1-.6-.2-.8zm-107.1-41.4 12.5.8.1-1 .9.4 6.1-12.3 13.7.9c.4 0 .8-.2 1-.6l-.9-.4.9.4 6.1-12.3 13.7.9c.4 0 .8-.2 1-.6l-.9-.4.9.4 5.6-11.3 44.2 76.5-60.6 35z"/><path d="m49.7 74.5c-.3-.5-.9-.6-1.4-.4l-7.6 4.4c-.5.3-.6.9-.4 1.4.3.5.9.6 1.4.4l7.6-4.4c.5-.3.6-.9.4-1.4z"/><path d="m45.3 66.9c-.3-.5-.9-.6-1.4-.4l-7.6 4.4c-.5.3-.6.9-.4 1.4s.9.6 1.4.4l7.6-4.4c.5-.3.7-.9.4-1.4z"/><path d="m57 70.3c.3.5.9.6 1.4.4l22.9-13.2c.5-.3.6-.9.4-1.4-.3-.5-.9-.6-1.4-.4l-23 13.2c-.5.3-.6.9-.3 1.4z"/><path d="m54.1 84.2c.5-.3.6-.9.4-1.4-.3-.5-.9-.6-1.4-.4l-7.6 4.4c-.5.3-.6.9-.4 1.4.3.5.9.6 1.4.4z"/><path d="m40.1 57.9c-.3-.5-.9-.6-1.4-.4l-7.6 4.4c-.5.3-.6.9-.4 1.4.3.5.9.6 1.4.4l7.6-4.4c.5-.3.6-.9.4-1.4z"/><path d="m49.9 43.2 17.3-10c.5-.3.6-.9.4-1.4-.3-.5-.9-.6-1.4-.4l-17.3 10c-.5.3-.6.9-.4 1.4.3.5.9.7 1.4.4z"/><path d="m35.3 49.6c-.3-.5-.9-.6-1.4-.4l-7.6 4.4c-.5.3-.6.9-.4 1.4.3.5.9.6 1.4.4l7.6-4.4c.5-.4.6-1 .4-1.4z"/><path d="m58.1 59.5c.3.5.9.6 1.4.4l17.3-10c.5-.3.6-.9.4-1.4-.3-.5-.9-.6-1.4-.4l-17.3 10c-.5.3-.7.9-.4 1.4z"/><path d="m48.7 54 22.9-13.2c.5-.3.6-.9.4-1.4s-.9-.6-1.4-.4l-22.9 13.3c-.5.3-.6.9-.4 1.4.3.5.9.6 1.4.3z"/></g></svg>