<svg viewBox="0 0 90.6 104.4" xmlns="http://www.w3.org/2000/svg"><g fill="#f0dbde"><path d="m63.4 31.1c-.5-.3-1.1-.1-1.4.4l-18.6 32.7-13.3-7.9c-.5-.3-1.1-.1-1.4.4s-.1 1.1.4 1.4l14.2 8.4.5-.9.9.5 19.1-33.6c.2-.5 0-1.1-.4-1.4z"/><path d="m62.1 104.4.2-.1-.6-.9v1z"/><path d="m89 41.3-1 .3 1-.3-7.5-28.5-1 .3 1-.3-.1-.6-.6-.1-45.8-12-.5-.1-.4.4-33.7 33.5.7.7-.7-.7-.4.4.1.6 7.5 28.5c5.4 20.5 19 30.8 31.1 36 6.1 2.6 11.8 3.8 16 4.5 2.1.3 3.8.5 5 .6.6 0 1.1.1 1.4.1h.4.1s0 0 0-1c.6.8.6.8.6.8s0 0 .1-.1.2-.1.3-.2c.3-.2.7-.5 1.1-.9 1-.8 2.4-1.9 4-3.4 3.3-3 7.5-7.3 11.4-12.8 8.1-11.1 14.8-26.9 9.9-45.7zm-11.3 44.4c-3.8 5.4-8 9.6-11.1 12.5-1.6 1.4-2.9 2.6-3.9 3.3-.5.4-.8.7-1.1.8-.1 0-.1.1-.1.1h-.1c-.3 0-.8 0-1.3-.1-1.2-.1-2.8-.2-4.9-.5-4.1-.6-9.7-1.9-15.5-4.3-11.7-5-24.8-14.8-30-34.6l-7.5-28 32.9-32.7 44.6 11.7 7.3 27.9c4.7 18-1.7 33.2-9.3 43.9z"/><path d="m43.3 66.4.9.6.5-.9-.9-.5z"/></g></svg>