<?xml version="1.0" encoding="utf-8"?>
<!-- Generator: Adobe Illustrator 24.1.2, SVG Export Plug-In . SVG Version: 6.00 Build 0)  -->
<svg version="1.1" id="Layer_1" xmlns="http://www.w3.org/2000/svg" xmlns:xlink="http://www.w3.org/1999/xlink" x="0px" y="0px"
	 viewBox="0 0 120 120" style="enable-background:new 0 0 120 120;" xml:space="preserve">
<style type="text/css">
	.st0{fill:#5F1D33;}
	.st1{fill:none;stroke:#5F1D33;stroke-width:2;stroke-linecap:round;stroke-linejoin:round;}
</style>
<g>
	<path class="st0" d="M43.4,61.4c0,1.3,1,2.3,2.2,2.3c1.3,0,2.3-1,2.3-2.3c0-1.2-1-2.3-2.3-2.3C44.4,59.2,43.4,60.2,43.4,61.4"/>
	<path class="st0" d="M35.7,61.4c0,1.3,1,2.3,2.3,2.3c1.3,0,2.3-1,2.3-2.3c0-1.2-1-2.3-2.3-2.3C36.7,59.2,35.7,60.2,35.7,61.4"/>
	<path class="st0" d="M28,61.4c0,1.3,1,2.3,2.3,2.3c1.2,0,2.2-1,2.2-2.3c0-1.2-1-2.3-2.2-2.3C29,59.2,28,60.2,28,61.4"/>
	<path class="st0" d="M20.3,61.4c0,1.3,1,2.3,2.2,2.3c1.3,0,2.3-1,2.3-2.3c0-1.2-1-2.3-2.3-2.3C21.3,59.2,20.3,60.2,20.3,61.4"/>
	<path class="st0" d="M12.5,61.4c0,1.3,1,2.3,2.3,2.3c1.2,0,2.2-1,2.2-2.3c0-1.2-1-2.3-2.2-2.3C13.5,59.2,12.5,60.2,12.5,61.4"/>
	<path class="st0" d="M43.5,62.2c0.4,1.2,1.7,1.8,2.9,1.4c1.2-0.4,1.8-1.7,1.4-2.9c-0.4-1.2-1.7-1.8-2.9-1.4
		C43.7,59.7,43.1,61,43.5,62.2"/>
	<path class="st0" d="M36.2,64.7c0.4,1.2,1.7,1.8,2.9,1.4c1.2-0.4,1.8-1.7,1.4-2.9c-0.4-1.2-1.7-1.8-2.9-1.4
		C36.4,62.2,35.8,63.5,36.2,64.7"/>
	<path class="st0" d="M28.9,67.1c0.4,1.2,1.7,1.8,2.9,1.4c1.2-0.4,1.8-1.7,1.4-2.9c-0.4-1.2-1.7-1.8-2.9-1.4
		C29.2,64.7,28.5,66,28.9,67.1"/>
	<path class="st0" d="M21.6,69.6c0.4,1.2,1.7,1.8,2.9,1.4c1.2-0.4,1.8-1.7,1.4-2.9c-0.4-1.2-1.7-1.8-2.9-1.4
		C21.8,67.1,21.2,68.4,21.6,69.6"/>
	<path class="st0" d="M14.3,72.1c0.4,1.2,1.7,1.8,2.9,1.4c1.2-0.4,1.8-1.7,1.4-2.9c-0.4-1.2-1.7-1.8-2.9-1.4
		C14.5,69.6,13.9,70.9,14.3,72.1"/>
	<path class="st0" d="M43.9,62.8c0.8,1,2.2,1.1,3.2,0.4c1-0.8,1.1-2.2,0.4-3.2c-0.8-1-2.2-1.1-3.2-0.4
		C43.3,60.4,43.1,61.9,43.9,62.8"/>
	<path class="st0" d="M37.8,67.6c0.8,1,2.2,1.2,3.2,0.4c1-0.8,1.1-2.2,0.3-3.2c-0.8-1-2.2-1.1-3.2-0.4
		C37.2,65.2,37.1,66.7,37.8,67.6"/>
	<path class="st0" d="M31.8,72.4c0.8,1,2.2,1.2,3.2,0.4c1-0.8,1.1-2.2,0.3-3.2c-0.8-1-2.2-1.2-3.2-0.4C31.2,70,31,71.4,31.8,72.4"/>
	<path class="st0" d="M25.7,77.2c0.8,1,2.2,1.2,3.2,0.4c1-0.8,1.1-2.2,0.3-3.2c-0.8-1-2.2-1.1-3.2-0.4C25.1,74.8,25,76.2,25.7,77.2"
		/>
	<path class="st0" d="M19.7,82c0.8,1,2.2,1.1,3.2,0.4c1-0.8,1.2-2.2,0.4-3.2c-0.8-1-2.2-1.1-3.2-0.4C19.1,79.6,18.9,81,19.7,82"/>
	<path class="st0" d="M43.5,60.7c0.4-1.2,1.7-1.8,2.9-1.4c1.2,0.4,1.8,1.7,1.4,2.9c-0.4,1.2-1.7,1.8-2.9,1.4
		C43.7,63.2,43.1,61.9,43.5,60.7"/>
	<path class="st0" d="M36.2,58.2c0.4-1.2,1.7-1.8,2.9-1.4c1.2,0.4,1.8,1.7,1.4,2.9c-0.4,1.2-1.7,1.8-2.9,1.4
		C36.4,60.7,35.8,59.4,36.2,58.2"/>
	<path class="st0" d="M28.9,55.7c0.4-1.2,1.7-1.8,2.9-1.4c1.2,0.4,1.8,1.7,1.4,2.9c-0.4,1.2-1.7,1.8-2.9,1.4
		C29.2,58.2,28.5,56.9,28.9,55.7"/>
	<path class="st0" d="M21.6,53.3c0.4-1.2,1.7-1.8,2.9-1.4c1.2,0.4,1.8,1.7,1.4,2.9c-0.4,1.2-1.7,1.8-2.9,1.4
		C21.8,55.7,21.2,54.4,21.6,53.3"/>
	<path class="st0" d="M14.3,50.8c0.4-1.2,1.7-1.8,2.9-1.4c1.2,0.4,1.8,1.7,1.4,2.9c-0.4,1.2-1.7,1.8-2.9,1.4
		C14.5,53.2,13.9,52,14.3,50.8"/>
	<path class="st0" d="M43.9,60c0.8-1,2.2-1.1,3.2-0.4c1,0.8,1.1,2.2,0.4,3.2c-0.8,1-2.2,1.1-3.2,0.4C43.3,62.4,43.1,61,43.9,60"/>
	<path class="st0" d="M37.8,55.2c0.8-1,2.2-1.1,3.2-0.4c1,0.8,1.1,2.2,0.3,3.2c-0.8,1-2.2,1.1-3.2,0.4
		C37.2,57.7,37.1,56.2,37.8,55.2"/>
	<path class="st0" d="M31.8,50.5c0.8-1,2.2-1.2,3.2-0.4c1,0.8,1.1,2.2,0.3,3.2c-0.8,1-2.2,1.2-3.2,0.4C31.2,52.9,31,51.4,31.8,50.5"
		/>
	<path class="st0" d="M25.7,45.7c0.8-1,2.2-1.2,3.2-0.4c1,0.8,1.1,2.2,0.3,3.2c-0.8,1-2.2,1.1-3.2,0.4C25.1,48.1,25,46.7,25.7,45.7"
		/>
	<path class="st0" d="M19.7,40.9c0.8-1,2.2-1.1,3.2-0.4c1,0.8,1.2,2.2,0.4,3.2c-0.8,1-2.2,1.1-3.2,0.4
		C19.1,43.3,18.9,41.9,19.7,40.9"/>
	<path class="st1" d="M96.5,87.2H77.1V76.9c0,0,1-8.2-12-9.1H54.9V57.7h40.8c0,0,9.9,0.4,10.3,9.6c0,0-9.6-1.3-9.6,13.4"/>
	<path class="st1" d="M65.1,67.9c0,0,1.7,17.7-10.2,21.1"/>
	<path class="st1" d="M95.2,87.2c0,0,10.8,10,10.8,25.8"/>
	<path class="st1" d="M77.1,87.2c0,0-10.8,10-10.8,25.8"/>
</g>
</svg>
