<?xml version="1.0" encoding="utf-8"?>
<!-- Generator: Adobe Illustrator 24.1.2, SVG Export Plug-In . SVG Version: 6.00 Build 0)  -->
<svg version="1.1" id="Layer_1" xmlns="http://www.w3.org/2000/svg" xmlns:xlink="http://www.w3.org/1999/xlink" x="0px" y="0px"
	 viewBox="0 0 120 120" style="enable-background:new 0 0 120 120;" xml:space="preserve">
<style type="text/css">
	.st0{fill:none;stroke:#5F1D33;stroke-width:2;stroke-linecap:round;stroke-linejoin:round;}
</style>
<g>
	<path class="st0" d="M41.1,113.4v-1.3c0-11.8,9.5-21.3,21.3-21.3c11.7,0,21.2,9.5,21.2,21.3v1.3"/>
	<line class="st0" x1="62.4" y1="84.5" x2="62.4" y2="73.9"/>
	<line class="st0" x1="34.8" y1="112.1" x2="24.2" y2="112.1"/>
	<line class="st0" x1="100.5" y1="112.1" x2="89.9" y2="112.1"/>
	<line class="st0" x1="42.9" y1="92.6" x2="35.4" y2="85.1"/>
	<line class="st0" x1="89.3" y1="85.1" x2="81.8" y2="92.6"/>
	<line class="st0" x1="55.2" y1="85.5" x2="52.5" y2="75.2"/>
	<line class="st0" x1="99.2" y1="102.2" x2="88.9" y2="105"/>
	<line class="st0" x1="38.5" y1="98.3" x2="29.3" y2="93"/>
	<line class="st0" x1="81.4" y1="79.1" x2="76.1" y2="88.2"/>
	<line class="st0" x1="48.6" y1="88.2" x2="43.3" y2="79.1"/>
	<line class="st0" x1="95.4" y1="93" x2="86.2" y2="98.3"/>
	<line class="st0" x1="35.7" y1="105" x2="25.5" y2="102.2"/>
	<line class="st0" x1="72.2" y1="75.2" x2="69.5" y2="85.5"/>
</g>
</svg>
