<?xml version="1.0" encoding="utf-8"?>
<!-- Generator: Adobe Illustrator 24.1.2, SVG Export Plug-In . SVG Version: 6.00 Build 0)  -->
<svg version="1.1" id="Layer_1" xmlns="http://www.w3.org/2000/svg" xmlns:xlink="http://www.w3.org/1999/xlink" x="0px" y="0px"
	 viewBox="0 0 120 120" style="enable-background:new 0 0 120 120;" xml:space="preserve">
<style type="text/css">
	.st0{fill:none;stroke:#5F1D33;stroke-width:2;stroke-linecap:round;stroke-linejoin:round;}
</style>
<g>
	<path class="st0" d="M57.2,98.5c0,0-1.6-5.6-6-6.7c-4.4-1.2-10-0.7-13.2,7.9c-3.2,8.7-3.8,10.3-8.4,11.9
		C29.5,111.6,53,121.1,57.2,98.5z"/>
	<path class="st0" d="M56.4,87.5c0,0,3.7,2.3,5.2,6.4c0,0,5-1.7,8.6-5.4c3.6-3.7,25.2-26.9,33.4-40.5c0,0-31.1,20.8-42.4,32.5
		C61.1,80.5,57.6,83.9,56.4,87.5z"/>
</g>
</svg>
