<svg width="23" height="25" viewBox="0 0 23 25" fill="none" xmlns="http://www.w3.org/2000/svg">
  <path
      d="M6.17578 7.38867V6.11093C6.17578 4.75543 6.72098 3.45544 7.69145 2.49696C8.66192 1.53847 9.97815 1 11.3506 1C12.723 1 14.0393 1.53847 15.0098 2.49696C15.9802 3.45544 16.5254 4.75543 16.5254 6.11093V7.38867M15.2317 15.0551V12.4996M7.46949 15.0551V12.4996"
      stroke="#3d1522" stroke-width="1.4" stroke-linecap="round"/>
  <path
      d="M1 12.4996C1 10.0898 1 8.88618 1.75811 8.13742C2.51622 7.38867 3.73489 7.38867 6.17482 7.38867H16.5245C18.9644 7.38867 20.1831 7.38867 20.9412 8.13742C21.6993 8.88618 21.6993 10.0898 21.6993 12.4996V13.7773C21.6993 18.5957 21.6993 21.0055 20.1831 22.5017C18.6681 23.9992 16.2282 23.9992 11.3496 23.9992C6.47108 23.9992 4.03115 23.9992 2.51622 22.5017C1 21.0055 1 18.5957 1 13.7773V12.4996Z"
      stroke="#3d1522" stroke-width="1.4"/>
</svg>