<svg width="20" height="20" viewBox="0 0 20 20" fill="none" xmlns="http://www.w3.org/2000/svg">
<path fill-rule="evenodd" clip-rule="evenodd" d="M16.4923 1.83247C16.2723 1.83247 16.0544 1.8758 15.8512 1.95999C15.6479 2.04418 15.4632 2.16758 15.3077 2.32315L3.11054 14.5203L2.22209 17.7779L5.47973 16.8895L17.6769 4.69234C17.8324 4.53677 17.9558 4.35209 18.04 4.14884C18.1242 3.94559 18.1675 3.72774 18.1675 3.50774C18.1675 3.28774 18.1242 3.06989 18.04 2.86664C17.9558 2.66339 17.8324 2.47871 17.6769 2.32315C17.5213 2.16758 17.3366 2.04418 17.1334 1.95999C16.9301 1.8758 16.7123 1.83247 16.4923 1.83247ZM15.1499 0.267011C15.5755 0.0907302 16.0316 0 16.4923 0C16.9529 0 17.409 0.0907302 17.8346 0.267011C18.2602 0.443291 18.6469 0.701669 18.9726 1.02739C19.2983 1.35312 19.5567 1.73981 19.733 2.16539C19.9093 2.59097 20 3.0471 20 3.50774C20 3.96838 19.9093 4.42451 19.733 4.8501C19.5567 5.27567 19.2983 5.66236 18.9726 5.98809L6.60343 18.3573C6.49068 18.47 6.35046 18.5514 6.19663 18.5933L1.15733 19.9677C0.840122 20.0542 0.500875 19.9641 0.26838 19.7316C0.0358855 19.4991 -0.0542064 19.1599 0.0323059 18.8427L1.40666 13.8034C1.44861 13.6495 1.52999 13.5093 1.64273 13.3966L14.0119 1.02739C14.3376 0.701669 14.7243 0.443291 15.1499 0.267011Z" fill="white"/>
</svg>
